<svg width="103" height="83" viewBox="0 0 103 83" fill="none" xmlns="http://www.w3.org/2000/svg">
<path d="M33.5544 59.1872L33.5303 59.1739C31.9362 58.7463 30.5055 58.238 29.1889 57.6577C28.3303 57.3388 27.5199 56.9306 26.6664 56.4992C26.2511 56.2893 25.8251 56.1185 25.3981 55.9479C23.4691 61.4697 21.5253 66.989 19.0845 72.3268C18.0776 74.5273 16.8191 76.8496 14.5374 77.9214C13.5224 78.4005 12.3531 78.5954 11.4355 79.2206C10.5261 79.8539 9.99829 81.2019 10.7778 81.9652C11.3137 82.4929 12.1907 82.5092 12.9702 82.4848C15.2032 82.4117 17.6311 82.2737 19.32 80.9015C20.067 80.2843 20.5949 79.4723 21.1145 78.6766C25.2963 72.2618 29.4862 65.847 33.668 59.4242L33.6706 59.4135L33.6513 59.3952C33.5987 59.3339 33.5706 59.2613 33.5544 59.1872Z" fill="#81918A"/>
<path d="M97.4501 45.4578C96.6138 43.8095 94.4457 43.0625 92.5132 43.2492C90.5725 43.4279 88.8186 44.3536 87.1377 45.2792C88.3476 42.3804 88.64 39.1811 88.0959 36.1118L87.9962 35.7921C87.9969 35.775 88.0096 35.7649 88.0125 35.7487L88.007 35.7471C87.5264 33.0841 86.4185 30.5505 84.796 28.4027L84.7424 28.4466C84.0197 27.4884 77.7511 22.6083 74.9985 22.4297C72.2539 22.2511 69.5175 22.8113 66.8298 23.3635C62.2258 24.3054 57.6299 25.2554 53.0258 26.1974C47.4031 27.3568 41.3781 28.4705 35.9427 27.03C31.9617 32.2083 25.8213 35.9332 19.0921 37.2511C19.0044 37.2685 18.9143 37.2807 18.8262 37.2973C18.866 37.6248 18.8981 37.9523 18.9221 38.2799C19.1657 41.3492 18.9952 44.4591 19.6691 47.4635C19.6691 47.4635 21.1461 52.1551 24.1686 54.1913C24.6733 54.5313 27.1238 55.8176 27.5651 56.0524C28.262 56.4234 35.2038 59.443 35.2203 59.4671C35.9336 59.7345 36.7749 59.7746 37.5215 59.8659L37.5299 59.8528L37.4186 59.3276C36.8041 56.6498 35.667 54.5468 34.0398 53.0822C33.9229 52.9776 33.9133 52.7976 34.0184 52.681C34.1239 52.5652 34.3035 52.5549 34.4196 52.6604C36.1356 54.2035 37.3314 56.4063 37.9741 59.2063L38.0974 59.7883L38.0989 59.7971C38.185 59.862 38.2454 59.9619 38.2428 60.1039C38.2295 60.8342 38.0978 61.5438 37.9229 62.2453C38.1012 63.762 38.1899 65.291 38.3288 66.8133C38.4912 68.6322 38.7997 70.5891 40.1395 71.9208C40.448 72.2293 40.8135 72.4973 41.2438 72.6028C41.7148 72.7084 42.202 72.611 42.6648 72.4973C45.5068 71.7908 48.1458 70.378 50.2407 68.4454C51.9784 66.8296 53.3994 64.621 53.0258 62.3555C52.9934 62.1281 52.9284 61.8926 52.766 61.714C52.4088 61.3405 51.7591 61.4379 51.2476 61.5922C48.3568 62.4529 45.7504 64.1013 43.8178 66.2937C43.0434 64.0091 43.4682 61.5417 44.1006 59.233C44.1096 59.1164 44.1143 58.9996 44.1272 58.8833C44.1556 58.6268 44.1913 58.3706 44.2391 58.117C44.281 57.895 44.3779 57.6572 44.3922 57.4458C44.3999 57.3332 44.4464 57.2304 44.5203 57.1559L44.6187 56.8195C45.1179 55.0607 45.5893 53.1838 45.3962 51.3005C45.1643 49.0199 43.5966 46.5086 41.0484 46.12C40.8934 46.097 40.7867 45.9519 40.8101 45.7965C40.8339 45.6419 40.9794 45.5348 41.1341 45.5586C43.9677 45.99 45.7079 48.744 45.9616 51.2426C46.165 53.2258 45.6797 55.1622 45.1651 56.9765L45.1041 57.1848C47.0045 57.0729 48.825 56.2874 50.4194 55.2749C52.1327 54.1868 53.6592 52.847 55.3157 51.6778C56.4387 50.8863 57.6303 50.1846 58.8686 49.5621C58.8879 49.5206 58.9094 49.4791 58.9405 49.4547C59.2145 49.2393 59.4868 49.0209 59.7712 48.8193C59.9018 48.7267 60.039 48.6443 60.1704 48.5532L60.2144 48.5218L60.2159 48.5208C60.2409 48.5003 60.266 48.4801 60.2906 48.4591C60.3482 48.41 60.404 48.3588 60.4593 48.3071C60.5188 48.2516 60.5889 48.2233 60.6609 48.2078L60.6603 48.2065C60.7523 48.1675 60.8415 48.123 60.9339 48.085C63.0626 47.1969 65.325 46.5617 67.6567 46.2001C67.7102 46.1921 67.7608 46.2041 67.8079 46.2241C67.5011 45.3748 67.2348 44.4891 67.0255 43.581C66.5929 41.7123 66.386 39.7839 66.1857 37.9188L65.8828 35.0364C65.867 34.8802 65.9804 34.7406 66.1366 34.7247C66.29 34.7061 66.4319 34.8223 66.4482 34.9785L66.7487 37.8367C66.9494 39.7065 67.1543 41.6176 67.579 43.4529C67.7986 44.4044 68.0766 45.335 68.4052 46.2191C68.8255 47.3666 69.333 48.4839 69.9143 49.5425C70.4063 50.4314 71.0375 51.4218 71.9867 52.0308C72.282 52.2235 72.6185 52.4208 73.0496 52.5192C74.576 52.8677 75.6767 53.1532 76.4622 53.3896C76.9274 53.4652 77.3951 53.5194 77.8634 53.5721C81.4121 53.579 84.9605 53.1903 88.4044 52.3761C88.2908 54.4385 85.8304 57.5322 83.8248 60.8046C81.8192 64.0769 80.2033 67.8283 80.8854 71.5472C81.0965 72.7003 81.5756 73.8777 82.5419 74.6166C83.5163 75.3555 85.0672 75.4935 85.9766 74.6897C86.7236 74.0157 86.8292 72.952 86.9266 71.9857C87.6493 65.0188 90.4425 58.2549 94.9166 52.6521C96.6137 50.5166 98.6681 47.8695 97.4501 45.4578ZM31.6709 35.909C31.3009 37.2928 31.2133 38.7752 31.4175 40.1962C31.4401 40.3516 31.3323 40.4955 31.1768 40.5181C31.163 40.5197 31.1495 40.5209 31.136 40.5209C30.9968 40.5209 30.8755 40.4186 30.8553 40.2771C30.64 38.7807 30.732 37.2198 31.1213 35.7623C31.1626 35.6113 31.3192 35.5221 31.4694 35.5609C31.6213 35.6017 31.7113 35.7576 31.6709 35.909ZM37.1193 30.8908C36.7486 32.2777 36.661 33.7597 36.866 35.1775C36.8886 35.333 36.7807 35.4773 36.6257 35.4995C36.6118 35.5015 36.5979 35.5026 36.5845 35.5026C36.4457 35.5026 36.324 35.4008 36.3037 35.2592C36.0877 33.7657 36.1796 32.2043 36.5698 30.7441C36.6106 30.593 36.7661 30.505 36.9179 30.5427C37.0698 30.5835 37.1598 30.7393 37.1193 30.8908ZM42.1213 29.4698C41.7514 30.8535 41.6638 32.3359 41.868 33.7569C41.8902 33.9124 41.7823 34.0563 41.6269 34.0789C41.613 34.0805 41.5996 34.0816 41.5861 34.0816C41.4469 34.0816 41.3256 33.9794 41.305 33.8378C41.0905 32.3411 41.1829 30.7801 41.5718 29.3231C41.6126 29.172 41.7681 29.0824 41.9199 29.1216C42.0718 29.1625 42.1618 29.3183 42.1213 29.4698ZM45.8546 39.5975C45.8142 39.6181 45.7705 39.6276 45.7281 39.6276C45.6238 39.6276 45.5231 39.5701 45.4736 39.4702C44.9451 38.4128 44.6568 37.2277 44.6398 36.0426C44.6378 35.8856 44.7631 35.7568 44.9201 35.7544C45.0482 35.7512 45.2059 35.8777 45.2083 36.0347C45.2238 37.1346 45.4914 38.2348 45.9819 39.2165C46.0521 39.3568 45.9953 39.5273 45.8546 39.5975ZM46.9025 33.1309C46.8823 33.2728 46.7605 33.3751 46.6214 33.3751C46.6079 33.3751 46.5944 33.3743 46.5809 33.3724C46.4255 33.3502 46.3177 33.2062 46.3395 33.0508C46.5401 31.6397 46.6539 30.2037 46.6777 28.7827C46.6805 28.6257 46.8168 28.5115 46.9667 28.5032C47.1237 28.5059 47.2486 28.6352 47.2462 28.7922C47.2217 30.2366 47.1063 31.6964 46.9025 33.1309ZM49.6572 38.014C49.6695 38.1706 49.5526 38.3074 49.396 38.3196L49.3734 38.3204C49.2267 38.3204 49.1022 38.2074 49.0903 38.0584C48.9824 36.683 49.0578 35.3024 49.3139 33.9556C49.3428 33.8005 49.4943 33.6971 49.6461 33.7296C49.8004 33.7589 49.9015 33.9076 49.8721 34.0618C49.6255 35.3591 49.553 36.6889 49.6572 38.014ZM51.9901 30.6564C52.1428 30.6418 52.2863 30.7524 52.3034 30.9086C52.4528 32.2939 52.8041 33.6669 53.3473 34.9884C53.4068 35.1339 53.3378 35.2996 53.1923 35.3595C53.157 35.3742 53.1205 35.3809 53.0844 35.3809C52.9726 35.3809 52.8668 35.3147 52.8216 35.2049C52.2578 33.8334 51.8934 32.4085 51.738 30.9696C51.7213 30.8134 51.8343 30.6735 51.9901 30.6564ZM54.0752 44.3002C54.0407 44.314 54.0047 44.3208 53.9694 44.3208C53.8568 44.3208 53.7501 44.2534 53.7057 44.1424C53.312 43.1623 52.9409 42.1429 52.6031 41.1125C52.5543 40.9634 52.6352 40.8028 52.7847 40.754C52.9342 40.7049 53.0939 40.7862 53.1431 40.9356C53.4773 41.9538 53.8441 42.9617 54.233 43.9307C54.2917 44.0762 54.2207 44.2419 54.0752 44.3002ZM56.1385 30.3547C56.1163 30.3603 56.0941 30.3627 56.0723 30.3627C55.9438 30.3627 55.8273 30.2746 55.7964 30.1442C55.5486 29.1062 55.1521 28.1221 54.618 27.2189C54.5383 27.0837 54.5827 26.9097 54.7179 26.8296C54.8531 26.7495 55.0276 26.7951 55.1073 26.9295C55.6703 27.8819 56.0882 28.919 56.349 30.0126C56.3855 30.1652 56.2912 30.3182 56.1385 30.3547ZM57.4311 36.3987C57.2951 35.3135 57.0766 34.2291 56.7816 33.1757C56.7392 33.0246 56.8272 32.868 56.9787 32.8256C57.1297 32.7848 57.2867 32.8712 57.3288 33.0226C57.6313 34.1027 57.8557 35.2148 57.9949 36.3281C58.0143 36.4839 57.9041 36.6259 57.7483 36.6453L57.7126 36.6477C57.5714 36.6477 57.4489 36.5426 57.4311 36.3987ZM59.6403 43.7693C59.5843 43.8284 59.5094 43.8581 59.4341 43.8581C59.3639 43.8581 59.2937 43.8323 59.2386 43.78C58.7811 43.3466 58.7363 42.7131 58.697 42.154C58.6879 42.0248 58.6788 41.8955 58.6649 41.7702C58.5765 41.0661 58.2308 40.3694 57.7165 39.8627C57.6047 39.7525 57.6035 39.5725 57.7134 39.4607C57.824 39.3481 58.0032 39.3477 58.1154 39.4575C58.728 40.061 59.1236 40.8587 59.2291 41.7032C59.2446 41.84 59.2545 41.9768 59.264 42.114C59.2993 42.6139 59.3326 43.0862 59.6296 43.3677C59.7434 43.4755 59.7485 43.6555 59.6403 43.7693ZM60.6782 33.6027C60.6556 33.6079 60.6334 33.6106 60.6112 33.6106C60.4832 33.6106 60.3666 33.523 60.3353 33.393C60.0883 32.3653 59.6946 31.3832 59.1645 30.4733C59.0852 30.3377 59.1312 30.1636 59.2668 30.0847C59.4043 30.0062 59.5764 30.0522 59.6553 30.187C60.2136 31.1449 60.6279 32.1785 60.888 33.2597C60.9245 33.4124 60.8305 33.5658 60.6782 33.6027ZM63.3454 41.0597C63.3271 41.0633 63.3089 41.0649 63.2907 41.0649C63.1574 41.0649 63.0385 40.9709 63.0119 40.8349C62.7312 39.3977 62.2106 38.0409 61.4645 36.8023C61.3836 36.6679 61.4268 36.4931 61.5612 36.4122C61.6952 36.3301 61.8697 36.3741 61.9513 36.5089C62.732 37.8046 63.2764 39.2232 63.5702 40.7263C63.5999 40.8801 63.4996 41.0296 63.3454 41.0597ZM63.9579 29.7457C63.9357 29.7513 63.9135 29.7537 63.8917 29.7537C63.7633 29.7537 63.6467 29.6656 63.6158 29.5352C63.3699 28.5047 62.9758 27.5199 62.445 26.6084C62.3657 26.4728 62.4117 26.2987 62.5473 26.2198C62.684 26.1409 62.8573 26.1873 62.9358 26.3221C63.4952 27.282 63.91 28.3184 64.1685 29.4036C64.205 29.5562 64.1106 29.7092 63.9579 29.7457ZM70.7449 31.0866C70.7037 31.1076 70.6593 31.118 70.6157 31.118C70.5122 31.118 70.4127 31.0617 70.3623 30.9633C69.5828 29.446 69.2407 27.6801 69.3985 25.9919C69.4131 25.8356 69.5515 25.7203 69.7081 25.7353C69.8643 25.75 69.9793 25.8888 69.9646 26.045C69.8163 27.6266 70.1375 29.2815 70.8682 30.704C70.9396 30.8436 70.8849 31.0149 70.7449 31.0866ZM76.4653 36.4435C76.4273 36.4605 76.3872 36.4689 76.348 36.4689C76.2401 36.4689 76.1367 36.407 76.0891 36.3019L75.7683 35.5942C75.4365 34.8615 75.1038 34.1269 74.7664 33.3969C74.7006 33.2542 74.7628 33.0853 74.9052 33.0195C75.0475 32.9533 75.2168 33.0155 75.2826 33.1582C75.6204 33.8898 75.9539 34.626 76.2861 35.3595L76.6069 36.0672C76.6715 36.21 76.6085 36.3785 76.4653 36.4435ZM78.6944 28.7145H78.6864C78.533 28.7145 78.4065 28.5924 78.4022 28.4381C78.3637 27.0449 77.7733 25.6862 76.7821 24.7108C76.6703 24.6006 76.6687 24.4206 76.779 24.3088C76.8888 24.1962 77.0688 24.1958 77.181 24.3056C78.2757 25.3832 78.9279 26.8839 78.9707 28.4223C78.9747 28.5793 78.8514 28.7101 78.6944 28.7145ZM84.6392 33.3755C84.617 33.3811 84.5948 33.3835 84.573 33.3835C84.4445 33.3835 84.328 33.2954 84.2971 33.165C84.0516 32.1341 83.6575 31.1493 83.1262 30.2378C83.047 30.1022 83.0929 29.9281 83.2285 29.8492C83.3641 29.7711 83.5386 29.8171 83.6171 29.9515C84.1769 30.9114 84.5916 31.9482 84.8498 33.0334C84.8862 33.186 84.7919 33.3394 84.6392 33.3755Z" fill="#81918A"/>
<path d="M71.6782 52.5081C70.624 51.8325 69.9432 50.7684 69.4167 49.8176C68.8538 48.7923 67.8383 46.747 67.744 46.7615C65.4574 47.1168 61.1067 48.8128 61.0335 48.8813C61.0099 48.9033 60.9832 48.9215 60.9593 48.943C62.9379 52.0035 64.9243 55.0562 66.9029 58.1168C67.1627 58.5147 67.4226 58.9207 67.52 59.3836C67.6905 60.1712 67.3413 60.967 67.0328 61.714C64.7348 67.3168 64.207 73.5529 65.5468 79.4236C65.766 80.3817 66.1396 81.4536 67.1059 81.8352C68.2264 82.2737 69.5418 81.4454 69.9966 80.3817C70.4432 79.3262 70.2807 78.1325 70.1427 77.0039C69.5824 72.5054 69.6474 67.5035 72.733 64.02C73.7805 62.8345 75.1933 61.7708 75.4369 60.2443C75.8227 57.827 72.0141 52.727 71.6782 52.5081Z" fill="#81918A"/>
<path d="M90.0726 13.708C91.6832 18.5563 90.5597 25.2367 85.3547 28.2067C86.9479 30.3612 88.0457 32.8804 88.542 35.5278C93.341 35.8157 98.0305 33.0201 99.2761 29.0911C99.3618 28.8251 99.4328 28.5563 99.5037 28.2879C99.635 27.7927 99.7705 27.28 99.9949 26.7927C100.211 26.3265 100.496 25.8999 100.772 25.4875C100.886 25.317 101 25.1469 101.109 24.9737C102.24 23.1806 102.665 21.2003 102.308 19.3941C101.842 17.5038 100.481 15.7731 98.5788 15.0324C98.5839 14.9905 98.5857 14.9477 98.5903 14.9057C98.5364 14.8459 98.4994 14.7732 98.5097 14.6893C98.6161 13.8225 98.6407 12.7278 98.3748 11.6482C98.1911 11.0086 97.9104 10.3999 97.5069 9.8519C96.6029 8.60804 94.9602 7.79327 93.4008 7.94686C93.2042 7.98036 93.0085 8.02496 92.8171 8.09623C92.7614 8.1172 92.7023 8.1165 92.6464 8.10169C92.5998 8.1168 92.5512 8.12141 92.5051 8.1386C92.5181 8.10644 92.5233 8.07225 92.5354 8.03983C92.5291 8.03443 92.52 8.03403 92.5142 8.02803C92.4357 7.94716 92.4123 7.82781 92.4543 7.72354C92.7567 6.97453 92.7883 6.1442 92.5987 5.36076C92.3498 4.53801 91.8683 3.7777 91.1734 3.21792C90.151 2.38972 88.7326 2.05123 87.3979 2.22444C86.9561 2.30562 86.5284 2.44899 86.1356 2.6569C86.0686 2.69259 85.9901 2.70051 85.9167 2.67634C85.9111 2.67456 85.9093 2.66747 85.9038 2.66539C85.8668 2.68367 85.8264 2.69513 85.7899 2.71445C85.0452 1.24197 83.2121 0.445835 81.5039 0.580048C80.9833 0.650373 80.4933 0.813226 80.0706 1.06465C84.0723 4.37766 88.3233 8.46141 90.0726 13.708Z" fill="#81918A"/>
<path d="M28.9824 28.249C28.9191 28.2712 28.8455 28.2814 28.7869 28.3109C28.5878 28.4084 28.4102 28.5523 28.2227 28.7046C28.0641 28.833 27.9043 28.9615 27.7286 29.0697C27.2065 29.396 26.6221 29.517 26.0166 29.5174C25.1888 29.5174 24.3213 29.2906 23.5196 29.0515L20.0436 28.0036C19.4398 27.8276 18.8633 27.6317 18.4748 27.188C17.771 26.3816 18.0747 25.3753 18.3681 24.402C18.6187 23.5709 18.8554 22.7855 18.4787 22.1721C18.3998 22.0417 18.2975 21.9259 18.1964 21.8094C18.0208 21.6068 17.8388 21.397 17.7389 21.1215C17.5276 20.5482 17.838 19.6033 18.1683 18.969C18.1849 18.9376 18.2077 18.912 18.2327 18.8897C18.2375 18.8716 18.2386 18.8532 18.2472 18.8358C18.2952 18.7398 18.3523 18.6534 18.3999 18.5864C18.4914 18.4591 18.6691 18.429 18.7963 18.5198C18.9244 18.611 18.9537 18.7886 18.8629 18.9163C18.8296 18.9626 18.7892 19.0221 18.7563 19.0887C18.7418 19.1177 18.7161 19.1346 18.6943 19.1561C18.6892 19.1815 18.6852 19.2073 18.6726 19.2315C18.3309 19.8884 18.1588 20.6172 18.273 20.9264C18.3372 21.1044 18.4776 21.2658 18.6259 21.4371C18.7484 21.5778 18.8697 21.7202 18.9641 21.8764C19.4735 22.7054 19.1881 23.6514 18.9121 24.5661C18.6405 25.4669 18.4058 26.2448 18.9026 26.8142C19.1901 27.1421 19.6829 27.3062 20.2054 27.4588L23.6826 28.5071C24.9513 28.8846 26.391 29.2343 27.4289 28.5868C27.5852 28.4905 27.7251 28.3763 27.8647 28.2629C28.0689 28.0976 28.2798 27.9263 28.5347 27.8014C28.7298 27.7039 28.9395 27.6365 29.1731 27.5976C29.6469 27.5068 30.152 27.5469 30.6416 27.5861C31.2201 27.6325 31.7653 27.6745 32.2509 27.5183C32.9266 27.3038 33.4099 26.7127 33.578 25.8959C33.6732 25.462 33.6558 25.003 33.5538 24.5803L33.5583 24.5791C33.1716 23.3134 32.2511 22.2669 31.5487 21.1224C30.6717 19.7096 30.1196 18.1099 29.9572 16.4778C29.8841 15.7714 29.876 15.0487 29.6161 14.3829L29.6811 14.3504C29.1858 13.2785 28.2357 12.4178 27.1396 11.8575C26.0271 11.2892 24.9066 10.534 23.6561 10.396C22.6492 10.2823 21.5124 10.3635 20.6761 10.8994V10.6802C16.8841 10.0143 18.8653 10.3554 14.8865 10.7938C11.3381 11.1836 8.21198 13.4247 4.64731 13.6683C4.485 13.6795 4.32001 13.6879 4.15547 13.697C4.4942 13.9859 4.83078 14.2967 5.15063 14.6449C5.25252 14.7468 5.38733 14.8987 5.44799 15.0938C5.51143 15.3047 5.48169 15.5398 5.36076 15.7955C5.17877 16.1904 4.85763 16.556 4.37946 16.9093C3.43107 17.5968 2.25947 17.9794 1.07835 17.9881H1.07637C0.920155 17.9881 0.793275 17.862 0.792089 17.7058C0.790903 17.5488 0.917372 17.4207 1.07438 17.4195C2.13774 17.4116 3.19239 17.0674 4.04364 16.4505C4.44052 16.1571 4.70378 15.8637 4.84572 15.5549C4.90441 15.4312 4.92462 15.3273 4.90441 15.2599C4.88142 15.1853 4.79973 15.0973 4.74026 15.0382C4.29956 14.5586 3.83396 14.1374 3.35158 13.7692C3.31024 13.7747 3.26728 13.7755 3.22629 13.7819C2.8203 13.8388 2.4305 13.9444 2.08949 14.1636C1.73221 14.3909 1.46423 14.7158 1.25316 15.0649C0.701011 15.9825 0.538606 17.0137 0.668499 18.0449C0.847168 19.4416 1.55359 20.822 2.56045 21.8694C4.30622 23.7045 6.7747 24.7764 9.16197 25.7914C11.5574 26.8145 14.0177 27.8863 15.7635 29.7295C16.9355 30.9679 17.6898 32.4683 18.1778 34.0707C18.2656 34.0406 18.3519 34.0151 18.4399 33.9841C22.2987 32.6477 25.8404 30.716 28.9824 28.249Z" fill="#81918A"/>
<path d="M29.0071 28.1868L29.0283 28.2137L29.0736 28.1789C29.0517 28.1825 29.0288 28.1826 29.0071 28.1868Z" fill="#81918A"/>
<path d="M28.9824 28.249C29.0015 28.2423 29.0217 28.2364 29.0414 28.2303L29.0283 28.2137L28.9824 28.249Z" fill="#81918A"/>
</svg>
