<svg width="120" height="113" viewBox="0 0 120 113" fill="none" xmlns="http://www.w3.org/2000/svg">
<path d="M1.10632 65.3961C4.38445 69.721 6.04915 74.6297 8.72659 79.0233C11.4212 83.4171 17.7542 87.5706 22.4912 89.8016C22.2364 81.771 23.5 73.7646 26.2155 66.2028C33.012 48.7996 50.3807 35.9447 61.0559 20.4982C60.8156 19.3826 60.5925 18.2498 60.4208 17.1173C59.958 15.2618 60.1023 13.3067 60.8327 11.5393C61.6258 10.283 62.7088 9.2353 63.9907 8.48429C69.0088 5.10655 74.5127 2.51379 80.3125 0.79541C80.4327 0.846942 80.5699 0.88127 80.69 0.932624C91.7256 4.67421 101.354 8.98208 114.741 11.7453C115.704 11.929 116.614 12.328 117.401 12.9124C119.787 14.7144 119.341 18.6275 117.212 20.7042C115.101 22.7982 111.943 23.4846 108.94 23.8964C105.277 24.642 101.751 25.9505 98.4877 27.7752C95.5334 29.4706 94.6018 34.306 94.6344 34.4807C94.6626 34.6376 94.6277 34.7992 94.5373 34.9304C94.4469 35.0617 94.3082 35.1518 94.1516 35.1813C93.1689 35.3599 92.1721 35.4496 91.1733 35.4495C87.7982 35.451 84.5003 34.4391 81.7069 32.5448C81.6169 32.4707 81.5515 32.371 81.5196 32.2588C81.3634 33.2871 80.9754 34.2663 80.3851 35.1226C84.2362 37.3258 86.0527 37.3576 91.6704 37.335H92.837C93.8169 37.3818 94.7753 37.6393 95.6467 38.0899C96.5182 38.5405 97.2823 39.1737 97.8869 39.9463C98.2703 40.4073 98.5404 40.9516 98.6758 41.5357C98.8111 42.1198 98.8079 42.7275 98.6663 43.3101C98.5116 43.824 98.1773 44.2653 97.7244 44.5533C97.2715 44.8412 96.7302 44.9568 96.1991 44.8789C95.5623 44.8612 94.9285 44.786 94.3052 44.6543C93.7136 44.5611 93.1438 44.3618 92.623 44.0662C92.5015 44.8466 92.3707 45.6252 92.2061 46.397C90.9588 52.4724 87.8204 57.9971 83.2406 62.1796C83.3602 62.1105 83.5005 62.0863 83.6362 62.1114C83.772 62.1365 83.8944 62.2093 83.9813 62.3166C87.4883 67.1273 90.1875 72.4776 91.9728 78.1569C92.4699 80.0084 92.5834 81.9418 92.3063 83.8387C91.9229 87.5601 91.0319 91.2114 89.6582 94.6911C89.6251 94.7533 89.5805 94.8087 89.5268 94.8543C89.5083 94.8755 89.5125 94.9069 89.4906 94.9257C89.3349 95.0879 89.1905 95.2603 89.0581 95.442C88.2738 96.4342 87.0033 98.0415 85.3993 98.0415C85.2645 98.0419 85.1299 98.0307 84.9971 98.008C83.554 97.7634 82.359 96.2163 81.3399 93.2732C80.7449 91.5334 81.9231 87.2545 83.0746 83.3811C83.2439 82.8096 83.3864 82.3369 83.4735 82.0084C83.497 81.9256 83.5375 81.8486 83.5925 81.7824C80.1802 78.0896 77.0827 74.118 74.3324 69.909L74.3243 69.8885C72.4876 71.6724 70.8745 73.6729 69.5205 75.846C69.592 75.8924 69.6526 75.9536 69.6983 76.0256C69.744 76.0975 69.7736 76.1785 69.7852 76.2629C70.9879 84.9474 73.3049 93.4406 76.6788 101.533C76.8726 102.089 77.1656 102.605 77.5436 103.056C78.2988 103.644 79.2032 104.01 80.1549 104.112C80.3879 104.164 80.6209 104.214 80.8488 104.27C82.7511 104.731 83.9612 105.795 84.0853 107.111C84.1175 107.435 84.0825 107.763 83.9825 108.073C83.8824 108.383 83.7194 108.67 83.5037 108.914C82.4966 109.892 81.1562 110.452 79.7527 110.481C79.3571 110.506 78.961 110.519 78.5643 110.52C76.2697 110.517 73.9955 110.089 71.8568 109.258C71.7323 109.205 71.6305 109.109 71.5694 108.988C71.4391 109.06 71.2856 109.078 71.1425 109.037C70.9993 108.996 70.8783 108.9 70.8059 108.77C66.9633 102.431 63.7084 91.6173 62.2355 83.9937L58.0522 89.5612H58.035C57.6572 93.6875 57.0209 97.7861 56.1299 101.833C60.4507 103.391 64.3723 105.888 67.612 109.144C67.9013 109.361 68.1347 109.644 68.2929 109.969C68.4511 110.295 68.5295 110.653 68.5217 111.015C68.3158 112.079 66.8569 112.302 65.7414 112.285C55.3922 112.062 45.0487 111.85 34.711 111.65C32.0348 111.782 29.3611 111.344 26.8676 110.363C25.6479 109.754 24.6905 108.723 24.1731 107.462C9.80786 98.8805 -0.198074 81.6664 1.10632 65.3961ZM111.548 13.4814C112.126 14.5587 112.984 15.4606 114.03 16.0926C115.077 16.7245 116.275 17.0632 117.498 17.0732C117.69 17.0732 117.881 17.0648 118.074 17.0463C118.233 17.0316 118.379 16.9544 118.481 16.8319C118.582 16.7093 118.631 16.5513 118.617 16.3927C118.602 16.2341 118.525 16.0878 118.403 15.9859C118.28 15.8841 118.122 15.8351 117.963 15.8496C116.884 15.937 115.803 15.707 114.852 15.188C113.902 14.669 113.124 13.8836 112.614 12.9283C112.54 12.7871 112.414 12.6809 112.262 12.633C112.11 12.585 111.946 12.5992 111.804 12.6725C111.663 12.7458 111.557 12.8722 111.509 13.0238C111.46 13.1755 111.474 13.34 111.548 13.4814ZM94.5249 43.4727C96.2462 43.7912 97.2854 43.8163 97.5083 42.9917C97.5969 42.5862 97.5907 42.1658 97.4901 41.7631C97.3895 41.3605 97.1972 40.9865 96.9284 40.6704C96.0474 39.5776 94.7943 38.8481 93.4091 38.6218C93.2749 39.4745 93.1519 40.3268 93.0301 41.1795C92.8559 41.5967 92.7966 42.0531 92.8585 42.501L92.8393 42.6284C92.9589 42.8882 93.3184 43.2515 94.5249 43.4727ZM41.0964 49.9104C40.9722 49.8103 40.8135 49.7634 40.6548 49.7801C40.4962 49.7967 40.3506 49.8755 40.25 49.9993C38.8605 51.7172 37.4694 53.4536 36.095 55.1699C35.9956 55.2944 35.9496 55.4533 35.9672 55.6117C35.9848 55.7701 36.0646 55.915 36.1889 56.0146C36.2954 56.0999 36.4279 56.1461 36.5643 56.1454C36.6544 56.1454 36.7433 56.1253 36.8245 56.0864C36.9057 56.0475 36.9772 55.9909 37.0336 55.9208C38.4046 54.2045 39.7957 52.4714 41.1852 50.7568C41.2849 50.6325 41.3315 50.4739 41.3149 50.3154C41.2983 50.1569 41.2197 50.0113 41.0964 49.9104ZM44.9832 65.1105C45.1259 65.1809 45.2907 65.1919 45.4415 65.141C45.5923 65.0901 45.7168 64.9815 45.7877 64.839C46.6458 63.1077 47.5023 61.3931 48.3772 59.6584C48.4487 59.5161 48.4609 59.3513 48.4109 59.2001C48.3609 59.0489 48.2529 58.9237 48.1107 58.8522C47.9684 58.7806 47.8036 58.7685 47.6524 58.8185C47.5012 58.8684 47.3761 58.9764 47.3045 59.1187C46.4296 60.8534 45.5698 62.5713 44.7116 64.306C44.641 64.4487 44.63 64.6136 44.6809 64.7645C44.7318 64.9153 44.8405 65.0398 44.9832 65.1105ZM49.0627 44.6275C48.912 44.5768 48.7473 44.5878 48.6047 44.6582C48.4621 44.7285 48.3532 44.8525 48.3017 45.0029C47.6162 47.0259 46.929 49.0506 46.2268 51.0552C46.2006 51.1296 46.1893 51.2084 46.1936 51.2871C46.1979 51.3659 46.2176 51.443 46.2517 51.5141C46.2858 51.5853 46.3335 51.649 46.3922 51.7017C46.4509 51.7543 46.5194 51.7949 46.5938 51.8211C46.6682 51.8473 46.7471 51.8586 46.8258 51.8543C46.9046 51.85 46.9817 51.8303 47.0528 51.7962C47.124 51.7621 47.1877 51.7144 47.2403 51.6557C47.293 51.5969 47.3336 51.5284 47.3598 51.454C48.0654 49.4428 48.7526 47.4148 49.4381 45.3884C49.4636 45.3138 49.4741 45.2349 49.469 45.1562C49.4639 45.0776 49.4433 45.0007 49.4084 44.93C49.3735 44.8593 49.325 44.7962 49.2657 44.7443C49.2064 44.6923 49.1374 44.6527 49.0627 44.6275ZM54.535 48.4556C54.4804 48.6054 54.4875 48.7707 54.5548 48.9153C54.622 49.0599 54.7439 49.1718 54.8937 49.2265C54.9599 49.2501 55.0296 49.2626 55.0998 49.2634C55.2231 49.2631 55.3433 49.225 55.4443 49.1543C55.5453 49.0835 55.6222 48.9836 55.6647 48.8679L56.8413 45.6246C57.3692 44.1681 57.8977 42.7155 58.4268 41.2668C58.4819 41.1175 58.4755 40.9523 58.4088 40.8077C58.3422 40.6632 58.2208 40.551 58.0715 40.4958C57.9221 40.4407 57.757 40.4472 57.6124 40.5138C57.4678 40.5805 57.3556 40.7018 57.3005 40.8512C56.7675 42.3009 56.2379 43.7558 55.7116 45.2156L54.535 48.4556ZM64.8595 12.9417C64.8349 12.7849 64.7491 12.6442 64.6211 12.5504C64.493 12.4566 64.3329 12.4174 64.176 12.4414C64.0191 12.4653 63.878 12.5505 63.7837 12.6782C63.6894 12.8059 63.6495 12.9657 63.6728 13.1228C63.9126 14.6832 64.1337 16.2268 64.3566 17.7856C64.3776 17.9284 64.4492 18.059 64.5584 18.1535C64.6677 18.2479 64.8072 18.3 64.9516 18.3001C64.9802 18.3 65.0087 18.2983 65.0371 18.2951C65.1949 18.2724 65.3372 18.1879 65.4327 18.0603C65.5283 17.9328 65.5692 17.7725 65.5466 17.6147C65.3237 16.0525 65.0991 14.5055 64.8595 12.9417ZM66.4148 23.2964C66.4002 23.2186 66.3701 23.1446 66.3264 23.0786C66.2827 23.0127 66.2262 22.9562 66.1603 22.9124C66.0943 22.8687 66.0203 22.8386 65.9425 22.8239C65.8648 22.8093 65.7849 22.8104 65.7075 22.8271C65.6302 22.8426 65.5566 22.8731 65.4911 22.9171C65.4257 22.961 65.3695 23.0175 65.3259 23.0832C65.2823 23.1489 65.2521 23.2226 65.237 23.3001C65.222 23.3775 65.2224 23.4571 65.2382 23.5344L66.44 29.4039C66.4672 29.5398 66.5407 29.662 66.648 29.7498C66.7553 29.8375 66.8897 29.8853 67.0283 29.885C67.0682 29.8851 67.1081 29.8812 67.1473 29.8732C67.2245 29.8576 67.298 29.827 67.3634 29.783C67.4288 29.739 67.4849 29.6825 67.5285 29.6168C67.5721 29.5511 67.6023 29.4775 67.6174 29.4001C67.6325 29.3228 67.6322 29.2432 67.6165 29.1659L66.4148 23.2964ZM70.7457 11.0361C70.7339 10.9582 70.7067 10.8834 70.6659 10.8159C70.6251 10.7485 70.5715 10.6897 70.508 10.6431C70.4445 10.5964 70.3724 10.5626 70.2959 10.5438C70.2193 10.525 70.1398 10.5214 70.0619 10.5333C69.984 10.5452 69.9092 10.5723 69.8418 10.6131C69.7743 10.6539 69.7156 10.7076 69.6689 10.771C69.6222 10.8345 69.5885 10.9066 69.5696 10.9832C69.5508 11.0597 69.5472 11.1392 69.5591 11.2171L70.5882 17.9632C70.61 18.105 70.6818 18.2342 70.7906 18.3277C70.8995 18.4211 71.0381 18.4726 71.1815 18.4727C71.2118 18.473 71.2421 18.4707 71.272 18.466C71.35 18.4543 71.4249 18.4272 71.4924 18.3865C71.5599 18.3457 71.6187 18.292 71.6654 18.2285C71.7121 18.165 71.7459 18.0929 71.7646 18.0163C71.7834 17.9397 71.7869 17.8601 71.7748 17.7822L70.7457 11.0361ZM73.2883 28.1888L72.9648 24.9188C72.9613 24.8387 72.9409 24.7602 72.905 24.6885C72.8692 24.6168 72.8186 24.5534 72.7566 24.5025C72.6947 24.4516 72.6227 24.4143 72.5454 24.3931C72.468 24.3718 72.3871 24.3671 72.3078 24.3791C72.1492 24.3948 72.0032 24.4728 71.902 24.596C71.8009 24.7192 71.7527 24.8775 71.7681 25.0362L72.0933 28.3078C72.2157 29.5196 72.3358 30.7341 72.4537 31.9515C72.4679 32.1003 72.5372 32.2384 72.6478 32.3388C72.7585 32.4392 72.9026 32.4948 73.052 32.4946C73.0704 32.4946 73.0906 32.4946 73.109 32.493C73.2677 32.4778 73.4138 32.4002 73.5153 32.2773C73.6168 32.1545 73.6654 31.9963 73.6504 31.8376C73.533 30.6174 73.4123 29.4011 73.2883 28.1888ZM76.2734 6.89121C76.2638 6.81256 76.2385 6.73664 76.1989 6.66796C76.1594 6.59928 76.1065 6.53924 76.0434 6.4914C75.9802 6.44356 75.9081 6.4089 75.8313 6.38948C75.7544 6.37006 75.6745 6.36627 75.5962 6.37834C75.4384 6.40015 75.2957 6.48375 75.1996 6.61073C75.1034 6.73771 75.0616 6.89769 75.0833 7.05549C75.323 8.78852 75.5476 10.5199 75.7705 12.2513C75.7889 12.3959 75.8596 12.5289 75.9692 12.6252C76.0787 12.7215 76.2197 12.7745 76.3655 12.7742C76.3913 12.7741 76.4171 12.7724 76.4426 12.7692C76.5209 12.7593 76.5964 12.734 76.6648 12.6948C76.7332 12.6556 76.7933 12.6033 76.8414 12.5408C76.8895 12.4784 76.9248 12.407 76.9453 12.3308C76.9657 12.2547 76.9709 12.1752 76.9605 12.097C76.7376 10.3623 76.513 8.62759 76.2734 6.89121ZM77.16 17.4487C77.0819 17.4592 77.0066 17.4851 76.9384 17.5247C76.8703 17.5644 76.8106 17.6171 76.7628 17.6798C76.715 17.7425 76.6801 17.8141 76.6599 17.8903C76.6398 17.9665 76.6349 18.046 76.6454 18.1241L77.5036 24.5283C77.5236 24.6719 77.5948 24.8034 77.7042 24.8986C77.8135 24.9938 77.9536 25.0462 78.0986 25.0462C78.126 25.0461 78.1535 25.0445 78.1807 25.0412C78.3385 25.0194 78.4812 24.9358 78.5774 24.8088C78.6735 24.6818 78.7153 24.5218 78.6936 24.364L77.8354 17.9632C77.8118 17.8064 77.7281 17.6651 77.602 17.569C77.4759 17.473 77.3174 17.4298 77.16 17.4487ZM82.7479 66.9743L84.3453 69.6694C84.3856 69.7375 84.439 69.797 84.5024 69.8445C84.5657 69.8919 84.6379 69.9264 84.7146 69.9459C84.7913 69.9654 84.8712 69.9695 84.9495 69.9581C85.0278 69.9467 85.1031 69.9199 85.1711 69.8793C85.2391 69.8387 85.2984 69.7851 85.3455 69.7215C85.3927 69.6579 85.4269 69.5857 85.4461 69.5089C85.4653 69.4321 85.4691 69.3522 85.4574 69.2739C85.4457 69.1956 85.4186 69.1204 85.3777 69.0526L83.7804 66.3575C83.7399 66.2897 83.6864 66.2306 83.6231 66.1835C83.5597 66.1363 83.4877 66.1021 83.4111 66.0828C83.3345 66.0635 83.2549 66.0595 83.1768 66.071C83.0987 66.0825 83.0236 66.1092 82.9558 66.1497C82.888 66.1902 82.8288 66.2437 82.7817 66.307C82.7346 66.3704 82.7004 66.4424 82.6811 66.519C82.6618 66.5955 82.6577 66.6752 82.6692 66.7533C82.6807 66.8314 82.7074 66.9065 82.7479 66.9743ZM80.2456 59.7606C80.2734 59.7639 80.3014 59.7656 80.3294 59.7656C80.4741 59.7657 80.614 59.7135 80.7234 59.6187C80.8327 59.5238 80.9041 59.3927 80.9244 59.2494L81.8513 52.6592C81.8731 52.5015 81.8316 52.3415 81.7358 52.2143C81.64 52.0871 81.4977 52.003 81.3401 51.9805C81.2618 51.9683 81.1818 51.9719 81.105 51.9912C81.0281 52.0104 80.9559 52.0449 80.8926 52.0926C80.8293 52.1402 80.7762 52.2001 80.7365 52.2687C80.6968 52.3372 80.6712 52.413 80.6613 52.4917L79.7344 59.0818C79.7125 59.2396 79.754 59.3996 79.8498 59.5268C79.9457 59.654 80.088 59.7381 80.2456 59.7606ZM75.9683 47.3662C76.0032 47.3723 76.0385 47.3751 76.0739 47.3746C76.2149 47.3749 76.3515 47.3255 76.4597 47.235C76.5679 47.1446 76.6408 47.019 76.6656 46.8801L76.7711 46.2868C77.0779 44.5772 77.3846 42.8693 77.6779 41.1614C77.6916 41.0837 77.6898 41.0041 77.6726 40.927C77.6553 40.85 77.623 40.7772 77.5776 40.7127C77.5321 40.6482 77.4743 40.5933 77.4075 40.5513C77.3407 40.5092 77.2663 40.4807 77.1885 40.4676C77.1106 40.4524 77.0305 40.4532 76.9529 40.4698C76.8754 40.4864 76.802 40.5185 76.7372 40.5643C76.6723 40.61 76.6174 40.6683 76.5757 40.7358C76.5341 40.8033 76.5065 40.8785 76.4946 40.957C76.2014 42.6632 75.8963 44.3694 75.5895 46.0756L75.4823 46.669C75.4684 46.7467 75.4699 46.8263 75.4869 46.9034C75.5038 46.9805 75.5357 47.0535 75.5808 47.1183C75.626 47.183 75.6834 47.2383 75.7499 47.2808C75.8164 47.3233 75.8906 47.3523 75.9683 47.3662ZM70.8815 59.6835C70.9239 59.6928 70.9672 59.6973 71.0106 59.6969C71.1474 59.6972 71.2803 59.6506 71.387 59.5649C71.4937 59.4792 71.5679 59.3596 71.5972 59.2259L72.8844 53.4251C72.9015 53.3481 72.9032 53.2684 72.8894 53.1907C72.8756 53.113 72.8467 53.0388 72.8041 52.9723C72.7616 52.9058 72.7064 52.8484 72.6417 52.8033C72.577 52.7582 72.5039 52.7263 72.4268 52.7094C72.3497 52.6905 72.2695 52.6874 72.1912 52.7003C72.1128 52.7133 72.0379 52.7421 71.9709 52.7848C71.904 52.8276 71.8465 52.8836 71.8018 52.9492C71.7572 53.0149 71.7263 53.089 71.7112 53.167L70.424 58.9678C70.4069 59.0449 70.4052 59.1245 70.419 59.2022C70.4327 59.2799 70.4617 59.3541 70.5042 59.4206C70.5467 59.4871 70.6019 59.5446 70.6667 59.5897C70.7314 59.6348 70.8044 59.6667 70.8815 59.6835ZM67.3601 70.1622C67.4142 70.1768 67.47 70.1842 67.5261 70.184C67.6564 70.1839 67.7833 70.1415 67.8875 70.0632C67.9918 69.9849 68.0678 69.875 68.1043 69.7498C68.6691 67.7771 69.2356 65.8228 69.8189 63.8501C69.8414 63.7744 69.8487 63.695 69.8404 63.6165C69.8322 63.5379 69.8086 63.4618 69.7709 63.3923C69.7333 63.3229 69.6823 63.2616 69.6209 63.2119C69.5596 63.1622 69.489 63.125 69.4133 63.1026C69.3376 63.0801 69.2582 63.0728 69.1796 63.081C69.1011 63.0893 69.0249 63.1129 68.9555 63.1506C68.8861 63.1882 68.8248 63.2392 68.7751 63.3006C68.7254 63.3619 68.6882 63.4325 68.6658 63.5082C68.0826 65.4843 67.516 67.4419 66.9478 69.418C66.9044 69.5713 66.9234 69.7356 67.0006 69.875C67.0779 70.0144 67.2071 70.1176 67.3601 70.1622ZM65.9824 53.7285C66.0427 53.7496 66.1062 53.7604 66.1701 53.7603C66.2967 53.7604 66.42 53.7203 66.5224 53.646C66.6247 53.5716 66.7009 53.4667 66.74 53.3463C67.1188 52.1949 67.4942 51.0412 67.8663 49.8853C68.2401 48.7322 68.6144 47.5807 68.9893 46.431C69.039 46.2798 69.0267 46.1151 68.9551 45.973C68.8834 45.8309 68.7583 45.7232 68.6071 45.6734C68.456 45.6236 68.2913 45.6359 68.1492 45.7075C68.0071 45.7792 67.8993 45.9044 67.8495 46.0555C67.4707 47.207 67.0953 48.3606 66.7232 49.5166C66.3495 50.6697 65.9752 51.8211 65.6003 52.9709C65.5755 53.0457 65.5657 53.1247 65.5714 53.2033C65.5772 53.282 65.5985 53.3587 65.634 53.4291C65.6695 53.4995 65.7185 53.5621 65.7783 53.6135C65.8381 53.6649 65.9075 53.704 65.9824 53.7285ZM64.6231 39.4452C64.5463 39.4266 64.4665 39.4235 64.3884 39.4362C64.3104 39.4489 64.2356 39.4771 64.1686 39.5191C64.1016 39.5611 64.0437 39.6161 63.9983 39.6808C63.9529 39.7456 63.9209 39.8187 63.9041 39.896L62.7359 45.0951C62.7182 45.172 62.7159 45.2515 62.729 45.3292C62.7421 45.407 62.7704 45.4813 62.8123 45.5481C62.8541 45.6149 62.9088 45.6728 62.973 45.7184C63.0373 45.7641 63.1099 45.7966 63.1868 45.8142C63.2306 45.8249 63.2757 45.8299 63.3208 45.8292C63.4567 45.8294 63.5886 45.7834 63.6949 45.6987C63.8012 45.614 63.8756 45.4958 63.9058 45.3633L65.074 40.1642C65.0917 40.0874 65.094 40.0078 65.0809 39.9301C65.0678 39.8523 65.0395 39.778 64.9977 39.7112C64.9558 39.6444 64.9012 39.5865 64.8369 39.5409C64.7726 39.4952 64.7 39.4627 64.6231 39.4452ZM61.8727 81.6666C61.9326 81.6899 61.9962 81.7018 62.0605 81.7018C62.1912 81.6973 62.3183 81.6573 62.4281 81.5862C62.5379 81.515 62.6264 81.4154 62.6839 81.2979C62.7175 81.2251 62.736 81.1463 62.7383 81.0663C62.7406 80.9862 62.7267 80.9065 62.6973 80.8319C62.8286 79.7521 63.6607 75.5742 63.8958 74.5775C63.909 74.543 63.9428 74.5254 63.9493 74.4864C63.9654 74.3917 63.9732 74.2958 63.9727 74.1998C63.9732 74.0397 63.9104 73.886 63.798 73.772C63.6857 73.658 63.5328 73.5931 63.3727 73.5914C63.3535 73.5914 63.3412 73.6081 63.3223 73.6098C63.3398 73.6083 63.3547 73.5998 63.3727 73.5998C63.4515 73.5997 63.5296 73.6151 63.6024 73.6453C63.6753 73.6754 63.7415 73.7196 63.7972 73.7753C63.8529 73.8311 63.8971 73.8972 63.9272 73.9701C63.9574 74.0429 63.9728 74.121 63.9727 74.1998C63.9717 74.2628 63.9622 74.3254 63.9443 74.3858C63.9337 74.4202 63.9163 74.4911 63.8958 74.5775C63.859 74.6851 63.7893 74.7785 63.6967 74.8445C63.6041 74.9105 63.4932 74.9459 63.3794 74.9456C63.3407 74.9456 63.302 74.9422 63.2638 74.9356C63.1034 74.8989 62.9631 74.8023 62.8718 74.6654C62.7804 74.5286 62.745 74.362 62.7727 74.1998C62.7762 74.1523 62.7857 74.1054 62.8008 74.0603C62.797 74.0766 62.78 74.0856 62.7777 74.1026C62.5499 74.9456 60.904 81.2861 61.8727 81.6666ZM61.447 67.4118C61.5946 67.4712 61.7598 67.4698 61.9064 67.408C62.053 67.3461 62.1692 67.2288 62.2297 67.0816C62.9504 65.315 63.6694 63.5467 64.3918 61.7987C64.422 61.7258 64.4375 61.6477 64.4375 61.5689C64.4374 61.49 64.4219 61.412 64.3917 61.3391C64.3615 61.2663 64.3173 61.2001 64.2615 61.1444C64.2057 61.0886 64.1395 61.0444 64.0667 61.0143C63.9938 60.9841 63.9157 60.9686 63.8369 60.9686C63.758 60.9687 63.68 60.9842 63.6071 61.0144C63.5343 61.0446 63.4681 61.0888 63.4124 61.1446C63.3566 61.2004 63.3124 61.2666 63.2823 61.3394C62.5599 63.0909 61.8375 64.8591 61.1168 66.6291C61.087 66.7021 61.0718 66.7803 61.0723 66.8593C61.0727 66.9382 61.0887 67.0163 61.1194 67.089C61.1501 67.1617 61.1948 67.2276 61.251 67.283C61.3072 67.3384 61.3738 67.3822 61.447 67.4118ZM66.359 36.122C66.6988 36.9084 67.3068 37.5487 68.0746 37.9288C68.7788 38.1467 69.5322 38.1493 70.2379 37.9363C72.1327 37.5334 74.0367 37.0377 75.896 36.4618C77.0625 36.1859 78.1432 35.6274 79.0431 34.8356C79.9593 33.7443 80.5178 32.3976 80.6429 30.9782C82.2264 21.8606 81.9722 12.5185 79.8952 3.50055C79.7311 3.23406 79.4854 2.13372 78.972 1.92863C78.9583 1.98624 78.365 2.08932 78.3514 2.14672C78.2646 2.51 78.4575 2.5737 78.687 3.19384C80.8498 12.2368 81.1443 21.626 79.5527 30.7867C79.4547 31.9816 79.0031 33.1202 78.2555 34.0575C77.4793 34.7133 76.5584 35.1753 75.5686 35.4054C73.7403 35.9707 71.8703 36.4586 70.008 36.8523C69.5121 37.0096 68.9822 37.0257 68.4776 36.8988C67.9597 36.6015 67.5555 36.1402 67.3288 35.5877C65.0129 30.9648 63.0578 26.1698 61.4812 21.2455C61.1704 21.4758 60.6933 22.6 60.3704 22.8133C62.016 27.3991 64.0183 31.8489 66.359 36.122ZM60.0173 27.7078C59.8718 27.6435 59.7068 27.6389 59.5579 27.695C59.409 27.7511 59.2881 27.8634 59.2212 28.0078L56.8009 33.3628C56.7356 33.5082 56.7305 33.6735 56.7868 33.8227C56.843 33.9719 56.9559 34.0927 57.1009 34.1589C57.1791 34.1932 57.2636 34.2109 57.349 34.2109C57.4645 34.2109 57.5775 34.1777 57.6747 34.1153C57.7719 34.0529 57.8491 33.9639 57.8971 33.8589L60.3173 28.5039C60.3826 28.3585 60.3877 28.1931 60.3315 28.044C60.2753 27.8948 60.1624 27.7739 60.0173 27.7078ZM58.9832 54.0017C58.9113 53.969 58.8336 53.9509 58.7547 53.9485C58.6758 53.9461 58.5971 53.9594 58.5234 53.9876C58.4496 54.0158 58.3822 54.0584 58.3251 54.1129C58.2679 54.1674 58.2221 54.2327 58.1904 54.305C57.5636 55.7129 56.9407 57.1253 56.3216 58.5421L55.0663 61.3947C55.0019 61.5406 54.9981 61.7059 55.0556 61.8546C55.1131 62.0032 55.2273 62.123 55.373 62.1875C55.4495 62.2213 55.5324 62.2384 55.616 62.2377C55.7324 62.2379 55.8463 62.2043 55.9439 62.1409C56.0415 62.0775 56.1186 61.9871 56.1657 61.8807L57.4211 59.0247C58.0429 57.6101 58.6647 56.2 59.2865 54.7943C59.3189 54.7224 59.3367 54.6448 59.3389 54.5659C59.3412 54.4871 59.3278 54.4086 59.2996 54.3349C59.2715 54.2613 59.229 54.1939 59.1747 54.1367C59.1204 54.0795 59.0553 54.0336 58.9832 54.0017ZM51.8935 89.3798C51.9267 89.3858 51.9604 89.3886 51.9941 89.3882C52.1359 89.3885 52.2732 89.3384 52.3815 89.247C52.4899 89.1555 52.5622 89.0285 52.5857 88.8887L53.6148 82.8315C53.6281 82.7538 53.6258 82.6743 53.6083 82.5974C53.5908 82.5206 53.5583 82.448 53.5127 82.3837C53.4671 82.3194 53.4093 82.2647 53.3425 82.2228C53.2758 82.1809 53.2015 82.1525 53.1238 82.1393C53.0458 82.1234 52.9654 82.1236 52.8875 82.14C52.8097 82.1564 52.736 82.1886 52.6711 82.2346C52.6062 82.2807 52.5514 82.3396 52.5102 82.4077C52.469 82.4757 52.4422 82.5515 52.4315 82.6304L51.4024 88.6876C51.3892 88.7653 51.3914 88.8448 51.409 88.9217C51.4265 88.9985 51.459 89.0711 51.5046 89.1354C51.5502 89.1997 51.608 89.2544 51.6748 89.2963C51.7415 89.3382 51.8158 89.3666 51.8935 89.3798ZM45.5027 99.9322C45.5436 99.9402 45.5851 99.9441 45.6268 99.9439C45.7645 99.944 45.8981 99.8967 46.0052 99.8101C46.1123 99.7235 46.1864 99.6027 46.2151 99.468L47.5877 92.8945C47.6206 92.7385 47.5902 92.5758 47.5031 92.4422C47.4161 92.3086 47.2795 92.215 47.1235 92.1822C46.9675 92.1493 46.8048 92.1797 46.6712 92.2668C46.5376 92.3538 46.4441 92.4904 46.4112 92.6464L45.0385 99.2199C45.0058 99.3759 45.0364 99.5385 45.1234 99.672C45.2104 99.8055 45.3468 99.8991 45.5027 99.9322ZM44.9145 85.5617C44.9622 85.5731 45.0112 85.5787 45.0603 85.5785C45.1942 85.5787 45.3243 85.534 45.43 85.4517C45.5357 85.3694 45.6108 85.2542 45.6435 85.1243L47.5491 77.5217C47.5872 77.3672 47.5626 77.2039 47.4805 77.0676C47.3984 76.9312 47.2656 76.833 47.1112 76.7944C46.9568 76.7558 46.7934 76.78 46.6569 76.8617C46.5203 76.9434 46.4216 77.0758 46.3826 77.2301L44.477 84.8327C44.4384 84.9873 44.4628 85.151 44.5449 85.2877C44.6269 85.4244 44.7598 85.523 44.9145 85.5617ZM38.5705 92.8174C38.7415 90.6737 38.9141 88.5468 39.1019 86.4232C39.109 86.3446 39.1006 86.2654 39.077 86.1901C39.0535 86.1148 39.0153 86.0448 38.9647 85.9843C38.9141 85.9237 38.8521 85.8737 38.7822 85.8372C38.7122 85.8006 38.6358 85.7782 38.5572 85.7712C38.4782 85.7616 38.398 85.7683 38.3217 85.7909C38.2453 85.8135 38.1744 85.8515 38.1133 85.9025C38.0522 85.9536 38.0023 86.0166 37.9665 86.0877C37.9307 86.1588 37.9098 86.2365 37.9052 86.3159C37.7175 88.4463 37.5448 90.5765 37.3738 92.7235C37.3674 92.8021 37.3766 92.8812 37.4009 92.9563C37.4252 93.0314 37.4641 93.1009 37.5153 93.1609C37.5666 93.2208 37.6292 93.2701 37.6995 93.3058C37.7699 93.3414 37.8466 93.3629 37.9253 93.3688C37.9409 93.3702 37.9566 93.3707 37.9722 93.3704C38.1232 93.3703 38.2687 93.3134 38.3796 93.2109C38.4905 93.1084 38.5586 92.9679 38.5705 92.8174ZM37.0169 109.055C37.0374 109.058 37.0582 109.059 37.0789 109.058C37.2273 109.058 37.3705 109.003 37.4807 108.904C37.5909 108.805 37.6603 108.668 37.6756 108.52C37.7677 107.639 37.8968 106.335 38.0242 105.056L38.3293 102.016C38.3453 101.857 38.2979 101.698 38.1974 101.575C38.0969 101.451 37.9515 101.372 37.7929 101.355C37.7142 101.346 37.6346 101.353 37.5586 101.376C37.4826 101.398 37.4118 101.435 37.3503 101.485C37.2888 101.535 37.2379 101.596 37.2005 101.666C37.1631 101.736 37.14 101.813 37.1326 101.892L36.8291 104.937C36.7018 106.214 36.5727 107.516 36.4822 108.396C36.4738 108.475 36.481 108.554 36.5033 108.63C36.5257 108.705 36.5628 108.776 36.6125 108.837C36.6622 108.898 36.7235 108.949 36.7929 108.986C36.8623 109.024 36.9384 109.047 37.0169 109.055ZM35.8084 79.8304C35.8777 79.8684 35.9537 79.8922 36.0322 79.9005C36.1107 79.9089 36.1901 79.9015 36.2657 79.8789C36.3413 79.8563 36.4117 79.8189 36.4728 79.7688C36.5338 79.7188 36.5843 79.6571 36.6213 79.5874C37.8594 76.9971 39.4949 74.6163 41.4685 72.5312C42.4391 71.5168 43.624 70.7318 44.9367 70.2337C46.2493 69.7355 47.6567 69.5367 49.056 69.6518C50.613 69.9692 52.061 70.6851 53.2587 71.7294C54.4564 72.7738 55.3627 74.1109 55.8892 75.6101C56.9119 78.6889 57.2611 81.9515 56.9133 85.1771C56.8446 86.5112 56.8764 86.5397 56.7406 87.8587C56.7065 88.2168 56.6944 88.5767 56.7042 88.9362L57.8871 87.3618C58.0023 86.6585 58.0778 85.9492 58.1133 85.2374C58.475 81.8403 58.0976 78.4053 57.0072 75.1677C56.4012 73.4716 55.3651 71.9618 54.0004 70.7863C52.6357 69.6108 50.9891 68.8099 49.2219 68.4618C47.6432 68.3237 46.0536 68.5393 44.5688 69.0931C43.084 69.6469 41.7414 70.5249 40.6388 71.6631C38.57 73.8314 36.8577 76.3137 35.5654 79.0176C35.5278 79.0869 35.5042 79.163 35.4961 79.2414C35.4879 79.3198 35.4954 79.399 35.518 79.4746C35.5405 79.5501 35.5778 79.6205 35.6277 79.6815C35.6775 79.7426 35.739 79.7932 35.8084 79.8304ZM34.6989 66.1144C34.8306 66.2038 34.9923 66.2374 35.1487 66.2079C35.3052 66.1784 35.4435 66.0881 35.5336 65.9569C36.6331 64.3429 37.7326 62.7104 38.8153 61.098C38.8594 61.0324 38.8902 60.9588 38.9058 60.8813C38.9215 60.8038 38.9217 60.724 38.9065 60.6464C38.8912 60.5689 38.8609 60.4951 38.8171 60.4292C38.7734 60.3634 38.717 60.3068 38.6514 60.2628C38.5858 60.2187 38.5121 60.1881 38.4346 60.1725C38.3571 60.1569 38.2773 60.1568 38.1997 60.1721C38.1222 60.1874 38.0484 60.2179 37.9826 60.2617C37.9168 60.3055 37.8603 60.3619 37.8164 60.4276C36.737 62.04 35.6375 63.6691 34.5414 65.2798C34.4968 65.3449 34.4656 65.4182 34.4494 65.4954C34.4333 65.5726 34.4325 65.6523 34.4471 65.7298C34.4617 65.8073 34.4915 65.8812 34.5347 65.9472C34.5779 66.0132 34.6337 66.07 34.6989 66.1144ZM31.3317 101.139H31.3485C31.5039 101.14 31.6536 101.081 31.7655 100.973C31.8773 100.865 31.9425 100.718 31.9468 100.562C31.9988 98.5963 32.0507 96.6454 32.1194 94.6978C32.1251 94.5387 32.0673 94.3839 31.9589 94.2673C31.8505 94.1507 31.7003 94.0819 31.5412 94.076H31.5194C31.364 94.076 31.2147 94.1363 31.1028 94.2441C30.9909 94.3519 30.9252 94.4989 30.9194 94.6542C30.8507 96.6068 30.7987 98.5611 30.7467 100.514C30.7425 100.674 30.8015 100.829 30.911 100.946C31.0204 101.063 31.1716 101.132 31.3317 101.139ZM29.0607 88.1763C29.1015 88.1843 29.1431 88.1882 29.1847 88.1881C29.3224 88.1878 29.4558 88.1404 29.5628 88.0538C29.6698 87.9673 29.744 87.8466 29.773 87.7121C30.3411 85.0002 30.8993 82.2995 31.4474 79.61L31.4893 79.4022C31.5207 79.2464 31.4891 79.0845 31.4014 78.9519C31.3137 78.8194 31.177 78.727 31.0213 78.6951C30.8656 78.6631 30.7035 78.6942 30.5707 78.7815C30.4379 78.8688 30.3451 79.0052 30.3127 79.1608L30.2691 79.3687C29.7177 82.0604 29.1601 84.7588 28.5964 87.464C28.5641 87.62 28.5948 87.7824 28.6817 87.9158C28.7687 88.0493 28.9049 88.1429 29.0607 88.1763ZM26.555 76.0451C26.6122 76.0616 26.6714 76.0701 26.7309 76.0702C26.8596 76.0704 26.9848 76.0294 27.0883 75.953C27.1918 75.8767 27.2681 75.7691 27.3058 75.6462C27.8673 73.8025 28.4204 71.9505 28.9718 70.1035L29.3825 68.7274C29.4052 68.6519 29.4129 68.5727 29.405 68.4942C29.397 68.4158 29.3737 68.3397 29.3364 68.2702C29.299 68.2008 29.2483 68.1394 29.1872 68.0896C29.1261 68.0398 29.0558 68.0025 28.9802 67.9799C28.9048 67.9558 28.8252 67.9472 28.7463 67.9545C28.6675 67.9619 28.5909 67.985 28.5211 68.0225C28.4514 68.06 28.3899 68.1112 28.3403 68.173C28.2908 68.2348 28.2542 68.3059 28.2327 68.3822L27.8204 69.7599C27.2706 71.6035 26.7176 73.4556 26.1561 75.2942C26.1094 75.4467 26.1252 75.6114 26.2 75.7522C26.2748 75.8931 26.4025 75.9984 26.555 76.0451ZM25.6046 100.115H25.6147C25.7721 100.115 25.9233 100.053 26.0356 99.9428C26.1479 99.8324 26.2122 99.6823 26.2147 99.5249L26.3354 93.124C26.3369 93.0452 26.3229 92.9668 26.294 92.8934C26.2652 92.82 26.2221 92.753 26.1673 92.6963C26.1124 92.6396 26.047 92.5943 25.9746 92.563C25.9022 92.5317 25.8243 92.5151 25.7454 92.514C25.6659 92.5096 25.5863 92.5217 25.5116 92.5496C25.437 92.5774 25.3689 92.6204 25.3116 92.6758C25.2543 92.7311 25.2091 92.7978 25.1788 92.8714C25.1484 92.9451 25.1337 93.0243 25.1353 93.1039L25.0147 99.5048C25.0131 99.5836 25.0272 99.662 25.056 99.7354C25.0849 99.8088 25.1279 99.8758 25.1828 99.9325C25.2376 99.9892 25.3031 100.035 25.3755 100.066C25.4479 100.097 25.5258 100.114 25.6046 100.115ZM13.1047 93.3051C14.0986 94.6224 15.0741 95.9432 16.0512 97.2789C16.0979 97.3425 16.1566 97.3963 16.2241 97.4372C16.2915 97.4781 16.3664 97.5054 16.4443 97.5173C16.5223 97.5293 16.6019 97.5258 16.6785 97.5071C16.7551 97.4883 16.8273 97.4546 16.8909 97.408C16.9545 97.3613 17.0083 97.3026 17.0492 97.2351C17.0901 97.1677 17.1174 97.0928 17.1294 97.0148C17.1413 96.9369 17.1379 96.8573 17.1191 96.7807C17.1003 96.7041 17.0666 96.6319 17.02 96.5683C16.0395 95.2291 15.0607 93.905 14.0635 92.5809C14.0159 92.518 13.9565 92.465 13.8885 92.4251C13.8204 92.3851 13.7452 92.3589 13.6671 92.348C13.589 92.3371 13.5095 92.3417 13.4331 92.3616C13.3568 92.3814 13.2851 92.4161 13.2221 92.4636C13.1592 92.5111 13.1062 92.5706 13.0662 92.6386C13.0263 92.7066 13.0001 92.7819 12.9892 92.86C12.9783 92.9381 12.9829 93.0176 13.0027 93.094C13.0226 93.1703 13.0572 93.2421 13.1047 93.3051ZM5.75357 82.4694L7.83011 87.3082C7.87654 87.4163 7.95372 87.5084 8.05205 87.5731C8.15038 87.6378 8.26553 87.6721 8.38322 87.6719C8.4643 87.6719 8.5446 87.6559 8.61953 87.6249C8.76601 87.562 8.88158 87.4436 8.94096 87.2956C9.00033 87.1477 8.99865 86.9822 8.93629 86.8355L6.85966 81.9967C6.79699 81.85 6.67861 81.7343 6.53057 81.6749C6.38253 81.6154 6.21695 81.6173 6.07026 81.68C5.92357 81.7426 5.80779 81.861 5.74837 82.0091C5.68896 82.1571 5.6909 82.3227 5.75357 82.4694Z" fill="#81918A"/>
</svg>
