<svg width="190" height="120" viewBox="0 0 190 120" fill="none" xmlns="http://www.w3.org/2000/svg">
<path d="M137.681 57.7155C137.774 57.908 137.959 58.0043 138.051 58.1968C138.236 58.3894 138.514 58.3894 138.699 58.2931C139.255 58.1006 139.81 58.1006 140.273 57.5229C141.384 56.4639 140.458 56.0789 139.347 55.79C139.162 55.79 139.07 55.6938 138.885 55.5975C138.236 55.405 137.496 55.2124 137.218 55.79C137.311 56.4639 137.403 57.1378 137.681 57.7155Z" fill="#63736C"/>
<path d="M169.992 62.1439C170.27 62.0477 170.64 62.2402 170.733 62.529C170.733 62.6253 170.825 62.7216 170.825 62.8178C173.788 65.8023 180.361 64.0694 183.879 61.7589C186.101 60.3148 187.86 58.1006 188.971 55.6938C189.897 53.6721 190.175 52.1317 189.897 51.2653C189.805 50.8802 189.527 50.6877 189.157 50.5914C187.398 49.9175 185.361 51.9392 183.787 53.4795C183.417 53.8646 182.954 54.2497 182.676 54.5385C179.991 56.849 177.214 58.2931 174.621 58.8707C171.936 59.4484 169.9 58.6782 167.678 57.908C166.937 57.6192 166.289 57.4267 165.456 57.1378C162.4 56.1751 159.808 56.6565 156.568 57.8117C151.661 59.4484 146.199 58.4856 141.755 57.2341C141.292 58.2931 140.273 59.1595 139.162 59.3521C140.458 60.8924 142.403 61.8551 143.977 62.3365C147.032 63.3955 150.457 64.2619 154.623 65.2246C154.716 65.2246 154.809 65.2246 154.901 65.3209L155.642 65.5134C155.92 65.6097 156.105 65.8023 156.105 65.9948C156.29 65.9948 156.383 65.9948 156.475 65.9948C156.66 65.9948 156.845 66.0911 156.938 66.0911C157.031 65.9948 157.308 65.8985 157.494 65.8985L158.234 66.0911C158.419 66.1873 158.605 66.2836 158.697 66.5724C158.79 66.765 158.697 67.0538 158.512 67.2463C155.364 69.9419 152.402 71.7711 149.346 72.9263C149.254 72.9263 149.161 73.0226 148.976 73.0226C148.143 73.4077 146.384 73.9853 145.088 74.1779C147.032 75.4294 150.087 74.6592 152.402 73.9853C154.253 73.504 156.012 72.8301 157.771 72.2524L158.512 71.9636C159.623 71.5785 161.382 71.0009 162.586 71.9636C162.586 69.6531 162.4 67.7277 161.937 65.9948C161.845 65.706 162.03 65.3209 162.308 65.2246C162.586 65.1284 162.956 65.3209 163.048 65.6097C163.697 67.7277 163.882 70.1345 163.697 73.0226C163.604 74.6592 163.419 76.3921 163.234 78.0287C163.141 78.7989 163.048 79.6653 162.956 80.4355C162.771 81.8796 162.771 83.2274 162.771 84.3826C162.771 85.0565 162.771 86.2118 163.048 87.5596C163.234 88.7148 163.511 89.6775 163.974 90.4477C164.715 91.988 165.826 92.5657 167.307 92.2769C169.251 91.8918 169.529 89.0036 169.529 86.7894C169.622 82.9386 168.881 79.0877 168.14 75.4294V75.2368C167.492 72.2524 166.844 69.1718 165.733 66.3799C165.641 66.0911 165.733 65.706 166.104 65.5134C166.381 65.4172 166.752 65.5134 166.937 65.8985C168.048 68.7867 168.696 71.8673 169.344 74.948V75.1406C170.27 78.7989 171.011 82.746 171.011 86.7894C171.011 88.426 170.918 92.9508 167.77 93.5284C167.492 93.6247 167.215 93.6247 166.937 93.6247C165.641 93.6247 164.622 93.047 163.789 91.9881C163.234 95.0687 159.808 97.1867 157.771 97.9569C156.197 98.5345 154.623 98.8233 153.05 98.8233C151.383 98.8233 149.809 98.4382 148.235 97.7643C143.884 95.7426 139.903 93.6247 136.385 91.3142C134.996 90.4477 133.885 89.1962 132.774 88.0409C131.941 87.1745 131.2 86.4043 130.274 85.6341C128.052 83.805 125.275 83.4199 122.405 83.0348C121.294 82.9385 120.831 82.746 120.831 81.5908C120.831 81.4945 120.831 81.3019 120.831 81.2057C120.738 80.628 120.738 79.9541 120.553 79.2802C120.276 78.2213 119.72 77.2585 118.702 76.1996C116.757 74.1779 113.887 72.8301 110.832 72.5413C107.87 72.2524 103.703 73.0226 101.574 75.1406C100.648 75.9107 100.185 76.8735 100 77.9324C100.37 77.6436 100.926 77.2585 101.111 77.1623C101.296 76.9697 101.481 76.8735 101.574 76.7772L102.129 76.3921C103.055 75.8145 103.981 75.1406 105.185 74.7555C108.055 73.7928 110.925 74.8518 112.962 77.4511C114.628 79.6653 116.109 82.9386 115.184 85.5379C114.906 86.2118 114.628 86.8857 114.443 87.4633C113.61 89.3887 112.962 90.8328 113.98 93.047C114.073 93.3358 114.073 93.6247 113.795 93.8172V93.9135C112.499 96.4165 112.036 99.1121 112.499 101.615C112.591 102.193 112.776 102.77 112.962 103.444C113.517 105.273 114.073 107.295 113.332 109.221C113.054 109.895 112.591 110.472 112.221 111.05C111.573 111.916 111.017 112.686 111.11 113.745C111.202 114.516 111.943 115.863 112.776 116.248C113.147 116.441 113.424 116.345 113.702 116.152C114.073 115.863 114.073 115.093 114.165 114.323C114.165 113.649 114.258 112.879 114.535 112.301C115.276 110.857 116.757 110.472 118.054 110.28C118.609 110.183 119.072 110.087 119.535 109.895C120.553 109.413 121.479 108.643 122.035 107.584C123.238 105.466 123.146 102.578 121.849 100.364C121.664 100.075 121.757 99.6898 122.035 99.4972C122.312 99.3047 122.683 99.4009 122.868 99.6898C124.257 102.097 124.442 105.177 123.331 107.68C123.331 107.68 123.423 107.68 123.423 107.777C135.181 118.27 152.124 122.506 165.641 118.366C171.751 116.537 179.806 112.012 182.954 101.423C183.324 100.267 183.602 99.0159 183.787 97.8606C183.879 97.4755 184.157 97.283 184.528 97.3792C184.898 97.4755 185.083 97.7643 184.99 98.1494C184.805 99.3047 184.528 100.364 184.25 101.519C184.342 101.615 184.342 101.711 184.342 101.904C184.157 102.867 184.25 104.407 184.898 105.273C185.176 105.755 185.546 105.947 186.009 106.044C186.657 106.14 187.212 105.947 187.675 105.466C188.323 104.696 188.601 103.348 188.323 102.385C188.231 101.904 187.86 101.519 187.583 101.038C187.212 100.556 186.842 100.075 186.657 99.3047C186.379 98.342 186.472 97.3792 186.657 96.5128C186.749 96.0314 186.749 95.6464 186.749 95.2613C186.842 91.9881 185.731 88.6186 184.528 85.5379C184.435 85.4416 184.342 85.3453 184.25 85.1528C183.324 80.9169 181.195 76.7772 177.954 73.3114C177.306 72.6375 176.565 71.8673 175.917 71.1935C173.603 68.8829 171.288 66.5724 169.992 63.4917C169.9 63.3955 169.807 63.2029 169.622 63.1067C169.437 62.8178 169.437 62.4328 169.714 62.2402C169.714 62.1439 169.9 62.1439 169.992 62.1439ZM159.53 61.4701C158.605 61.3738 158.419 60.3148 159.067 59.6409C160.641 58.1006 161.475 61.7589 159.53 61.4701Z" fill="#63736C"/>
<path d="M95.7031 57.2131C93.8731 53.8594 91.7545 50.4479 88.8476 48.2161C89.165 49.2442 89.4704 50.1766 89.6957 51.2173C89.8604 51.7793 90.0373 52.437 90.2021 52.9989C91.1544 56.0833 92.2789 59.0466 93.6677 61.8762C94.2979 63.1537 95.1124 64.4059 95.8347 65.6708C96.6641 65.5571 97.1927 65.2897 97.5008 64.7604C98.2286 63.1018 97.1599 59.8386 95.7031 57.2131Z" fill="#63736C"/>
<path d="M97.3056 70.6325C97.2013 70.5493 97.2013 70.5493 97.1092 70.562C96.2557 70.4842 95.3584 70.802 94.706 71.5734C94.6259 71.6818 94.6259 71.6819 94.5338 71.6945C94.3737 71.9113 94.2257 72.2238 94.0657 72.4406L94.0778 72.5364C94.0098 72.7406 93.9419 72.9447 93.954 73.0405C94.1504 73.111 94.2425 73.0983 94.4389 73.1688C95.6973 73.4834 96.8952 73.3191 97.3755 72.6687C97.8557 72.0184 97.6667 71.2649 97.3056 70.6325Z" fill="#63736C"/>
<path d="M86.84 70.8985C86.762 73.2473 87.2442 74.8374 88.4709 75.6434C88.8758 75.8801 89.6735 76.2578 90.1659 75.7032C90.4981 75.3654 90.4255 74.7908 90.2365 74.0373C90.1881 73.6543 90.1276 73.1755 90.0792 72.7924C89.073 72.2484 87.9626 71.6213 86.84 70.8985Z" fill="#63736C"/>
<path d="M81.3691 73.5971C79.8686 71.3673 78.4602 69.1249 77.8449 66.4814C77.6485 66.411 77.4521 66.3405 77.1635 66.2826C76.875 66.2247 76.6423 65.867 76.7903 65.5544C76.8461 65.2545 77.1905 65.0124 77.4911 65.166C77.8839 65.307 78.2646 65.3522 78.5531 65.4101C79.1302 65.5258 79.6952 65.5458 80.0638 65.4952C77.8941 63.1623 76.0687 60.5874 74.5998 57.8662C74.3086 59.27 74.4343 61.0064 74.4995 62.2639C74.6616 64.2876 74.8357 66.407 75.0899 68.418C75.223 69.4714 75.3562 70.5247 75.3972 71.5908C75.4456 71.9738 75.494 72.3569 75.5424 72.7399C75.5667 72.9314 75.603 73.2187 75.6272 73.4102C75.952 73.7554 76.4491 73.9795 76.9461 74.2036C77.351 74.4403 77.8359 74.5687 78.2529 74.9012C79.0869 75.5662 79.3802 76.4028 79.6734 77.2394C79.6976 77.4309 79.814 77.6098 79.8503 77.8971C80.272 79.0083 81.038 79.8775 81.7072 79.9806C82.0879 80.0258 82.5365 79.8669 82.9489 79.4206C84.1058 78.1904 83.2308 76.4593 81.9509 74.4916L81.3691 73.5971Z" fill="#63736C"/>
<path d="M28.008 29.6702C26.6016 29.6682 25.2194 29.8577 23.9536 30.2262C25.5415 31.6646 26.3728 33.7913 26.8234 35.8728C27.3661 37.9417 28.001 39.9979 29.7881 40.0451C30.4452 40.0524 30.8938 39.8935 31.2261 39.5557C31.7185 39.001 31.9418 37.8014 31.7723 36.4607C31.4455 33.8751 30.1172 31.5243 28.1486 30.0406C28.1243 29.8491 28.1122 29.7533 28.008 29.6702Z" fill="#63736C"/>
<path d="M93.9278 70.6085C94.6724 69.8245 95.6376 69.3024 96.6633 69.2592C96.1737 68.3521 95.5919 67.4577 95.1144 66.6464C94.2878 65.2984 93.357 63.8673 92.6104 62.4109C91.2216 59.5812 89.9807 56.439 89.0284 53.3547C88.8636 52.7928 88.6868 52.1351 88.522 51.5731C88.144 50.0662 87.6739 48.5719 87.0316 47.1987C86.6584 46.4705 86.2972 45.838 85.856 45.314C84.6366 43.825 82.9249 42.8907 81.4263 42.9013C80.8614 42.8814 80.2285 43.0656 79.7919 43.3203C79.5276 43.454 79.1469 43.4087 79.0064 43.0383C78.8779 42.7637 78.9216 42.368 79.2781 42.2217C79.6346 42.0754 79.9911 41.9291 80.3475 41.7828C78.687 39.7698 77.4629 37.5021 76.2509 35.3301C75.9019 34.7935 75.6329 34.1484 75.2838 33.6117C73.3616 30.2707 71.3277 27.5295 69.0659 25.2093C58.0935 14.049 48.308 8.57126 37.4645 7.33034C29.5744 6.46383 14.6058 7.44474 8.10292 16.8121C7.62267 17.4625 7.24667 18.196 6.87068 18.9296C6.88278 19.0253 6.89488 19.1211 6.91909 19.3126C6.91909 19.3126 6.91909 19.3126 6.9312 19.4084L6.9433 19.5041C5.80517 23.8493 7.09171 28.8363 9.95957 32.2425C10.6093 32.9328 11.259 33.6231 12.0008 34.3007C12.7427 34.9784 13.5888 35.7391 14.2506 36.5252C15.3657 37.931 15.6394 39.3548 15.821 40.7913C15.8936 41.3658 16.0705 42.0235 16.2474 42.6812C16.6132 44.0924 17.4593 44.8532 18.3808 44.7268C19.4865 44.5752 20.7235 43.2365 20.7699 41.3791C20.8238 38.8388 19.6072 35.8881 17.2121 32.5145C17.0958 32.3356 17.0837 32.2398 17.1516 32.0357C17.2195 31.8315 17.2996 31.7231 17.3796 31.6147C18.8493 30.6338 20.4474 29.9276 22.0697 29.4129C22.1618 29.4002 22.2419 29.2918 22.3461 29.3749C24.337 28.8097 26.3642 28.5317 28.5199 28.5284C33.9611 28.5616 39.8409 30.5806 45.0729 34.1497C50.9304 38.2176 55.7595 43.7905 60.2758 49.1139C62.2613 51.4721 64.351 53.9133 66.5086 56.1504C67.3722 54.0836 68.5244 52.0746 69.8051 50.3402C70.0573 50.1108 70.4259 50.0602 70.6344 50.2265C70.855 50.4885 70.9034 50.8715 70.7434 51.0883C69.4627 52.8227 68.3226 54.9275 67.3668 57.007C64.2881 64.5409 64.9074 71.6653 69.0142 75.9732C69.8724 76.8298 71.9937 78.7796 73.6476 77.7734C74.6928 77.143 74.6714 75.4897 74.4656 73.8618C74.4535 73.766 74.3492 73.6829 74.3492 73.6829C74.2329 73.504 74.3008 73.2999 74.3809 73.1915C74.3687 73.0957 74.3566 72.9999 74.3566 72.9999C74.2961 72.5211 74.2477 72.1381 74.1993 71.755C74.0661 70.7016 74.0252 69.6356 73.892 68.5822C73.6378 66.5712 73.4637 64.4518 73.3016 62.4282C73.1759 60.6918 73.0697 58.3683 73.8533 56.4098C74.1371 55.6889 74.5373 55.1469 75.0418 54.6881C75.294 54.4586 75.6747 54.5038 75.8832 54.6701C76.1038 54.9321 76.0601 55.3278 75.9 55.5446C75.6478 55.774 75.4077 56.0992 75.2597 56.4118C75.2597 56.4118 75.2718 56.5075 75.3639 56.4949C76.9976 59.7781 79.1478 62.6982 81.7224 65.2678C83.2182 66.7189 84.8983 68.1446 86.6343 69.2705C86.7385 69.3536 86.7385 69.3536 86.8428 69.4368C88.278 70.409 89.7012 71.2855 91.0881 71.8747C91.6894 72.182 92.2786 72.3934 92.8678 72.6049C92.8436 72.4134 92.9115 72.2092 92.9794 72.0051C92.9673 71.9093 93.0474 71.8009 93.1395 71.7883L93.1274 71.6925C93.2754 71.3799 93.4234 71.0674 93.7677 70.8253C93.8478 70.7169 93.8478 70.7169 93.9278 70.6085ZM82.1679 56.9258C81.4986 56.8228 80.7568 56.1451 80.9364 55.3411C81.2081 54.5245 82.474 54.156 83.0194 54.7632C83.6812 55.5493 83.2178 57.0741 82.1679 56.9258Z" fill="#63736C"/>
<path d="M2.5105 8.90845C2.38008 6.39336 3.32378 4.21809 4.2917 2.23435C4.58765 1.60923 4.8715 0.888357 5.15536 0.16748C2.4273 0.833828 0.70467 5.7463 0.362258 8.2288C-0.0722989 10.7239 0.450913 13.38 1.84716 15.5267C3.12706 17.4945 4.39016 18.5877 5.53222 18.7234C5.80397 17.9068 6.19207 17.269 6.58017 16.6313C3.9423 15.0445 2.57299 11.6277 2.5105 8.90845Z" fill="#63736C"/>
</svg>
