<svg width="213" height="133" viewBox="0 0 213 133" fill="none" xmlns="http://www.w3.org/2000/svg">
<path d="M202.564 91.6655C207.097 86.2591 212.314 78.9722 212.481 70.5772C212.571 65.932 211.037 60.9062 208.049 56.0258C205.362 51.6381 202.239 48.7054 198.792 47.3063C195.053 45.7952 190.8 46.019 187.106 46.3548C185.349 46.5115 183.603 46.6906 181.845 46.8809C177.144 47.3958 172.264 47.9106 167.451 47.7652C159.727 47.5301 153.437 45.5377 148.78 41.8439C144.594 38.553 142.803 33.3146 141.057 28.2551C140.385 26.274 139.691 24.2703 138.852 22.3563C138.012 20.4422 137.027 18.6177 135.773 17.0058C133.882 14.4873 133.031 11.3979 132.214 8.42055C131.565 6.05876 130.893 3.60743 129.696 1.48066C129.281 0.753075 128.878 0.383742 128.464 0.36133C127.737 0.282966 127.266 1.26798 126.987 2.06274C125.487 6.34975 123.942 10.7488 122.856 15.9201C122.823 16.0544 122.733 16.1663 122.599 16.2111C118.099 17.8229 114.271 21.4048 112.346 25.7926C111.685 27.3037 111.227 28.9491 110.767 30.5497C109.995 33.2809 109.2 36.1017 107.398 38.374C107.04 38.8216 106.648 39.247 106.268 39.65C106.234 39.6836 106.212 39.7171 106.178 39.7507C106.458 40.691 107.096 42.9185 107.007 43.8139C106.962 44.3512 106.369 45.5489 106.044 46.1645C106.604 46.2317 107.197 46.1757 107.79 46.0861C110.521 45.672 113.208 44.9557 115.782 43.9482C118.905 42.7281 122.7 41.2395 125.308 43.4781C126.405 44.4184 126.931 45.8287 127.266 46.9593C128.453 50.9105 128.531 55.1528 128.61 59.2607C128.71 64.5664 128.8 69.581 131.061 74.1143C131.968 75.9052 133.188 77.5395 134.509 79.0842H134.52V79.0954C135.214 79.9125 135.941 80.7184 136.658 81.5019C137.71 82.6661 138.773 83.8526 139.758 85.1062H139.77V85.1174C140.631 86.2143 141.449 87.356 142.109 88.5873C145.131 94.1504 145.12 100.755 145.12 106.575C145.12 109.855 145.12 113.235 144.258 116.492C143.284 120.175 141.281 123.074 138.628 124.663C138.281 124.876 137.923 125.055 137.564 125.246C136.826 125.626 136.121 125.984 135.561 126.522C134.788 127.249 134.33 128.492 134.889 129.32C135.449 130.148 136.725 130.294 138.684 129.745L145.836 127.753C146.743 127.495 147.773 127.216 148.534 126.6C149.832 125.548 150.224 123.723 150.448 121.91C151.243 115.742 151.12 109.362 151.008 103.206C150.851 94.8332 150.683 86.1919 152.799 77.9537C152.843 77.741 153.067 77.6179 153.269 77.6738C153.481 77.7186 153.604 77.9312 153.56 78.1439C152.989 80.3714 152.321 84.5535 152.041 86.8258C152.086 86.8369 159.38 85.6994 162.055 83.7294C163.891 82.3974 165.425 80.64 166.913 78.9499C167.753 77.9872 168.626 76.9911 169.544 76.0732C173.036 72.6032 177.379 70.0624 182.114 68.7304C182.316 68.6744 182.539 68.7975 182.595 68.999C182.651 69.2117 182.528 69.4244 182.327 69.4803C180.972 69.8609 179.64 70.3422 178.364 70.9242L178.498 71.2265C178.543 71.204 178.599 71.1929 178.655 71.1929C178.868 71.1929 179.047 71.372 179.036 71.5959C178.958 75.9277 179.215 81.4907 181.834 86.0801C183.547 89.0799 186.188 91.52 188.741 93.8706C191.606 96.5234 194.561 99.2546 196.285 102.825C198.702 107.885 198.244 113.963 197.874 118.832C197.717 120.847 197.415 123.096 195.725 124.305C195.02 124.809 194.203 125.033 193.408 125.246C192.848 125.391 192.334 125.525 191.852 125.749C191.181 126.063 190.599 126.801 190.498 127.462C190.442 127.842 190.531 128.145 190.778 128.368C191.091 128.671 191.606 128.749 192.099 128.805C194.494 129.074 196.9 129.018 199.273 128.66C200.348 128.492 201.534 128.223 202.273 127.428C202.844 126.813 203.101 125.951 203.359 124.977C205.911 115.082 208.116 102.411 202.52 92.1021C202.441 91.9566 202.463 91.7886 202.564 91.6655ZM209.694 67.0065C209.907 66.973 210.108 67.1185 210.142 67.32L210.679 70.3086C210.713 70.5212 210.579 70.7227 210.366 70.7675H210.288C210.108 70.7675 209.941 70.6332 209.907 70.4429L209.37 67.4655C209.336 67.2528 209.482 67.0513 209.694 67.0065ZM123.013 31.6244C122.644 31.9938 122.14 32.184 121.592 32.184C121.412 32.184 121.233 32.1616 121.043 32.1169C120.304 31.9378 119.733 31.4453 119.521 30.7849C119.308 30.1245 119.476 29.3857 119.98 28.8036C120.472 28.2216 121.189 27.9418 121.871 28.0649C122.621 28.188 123.215 28.7141 123.461 29.4752C123.707 30.2476 123.539 31.0983 123.013 31.6244ZM164.417 56.205L163.757 59.16C163.712 59.3391 163.555 59.4622 163.376 59.4622C163.343 59.4622 163.309 59.4622 163.287 59.451C163.074 59.4062 162.94 59.1936 162.985 58.9921L163.656 56.0258C163.701 55.8131 163.913 55.69 164.126 55.7348C164.328 55.7796 164.462 55.9923 164.417 56.205ZM165.436 52.7798H165.38C165.19 52.7798 165.022 52.6343 164.988 52.4328C164.887 51.5597 164.63 50.709 164.249 49.9031C164.16 49.7128 164.238 49.4777 164.428 49.377C164.63 49.2875 164.865 49.3659 164.955 49.5673C165.38 50.4404 165.648 51.3807 165.772 52.3433C165.794 52.5559 165.648 52.7462 165.436 52.7798ZM170.786 57.0556C170.775 57.2571 170.596 57.4138 170.394 57.4138H170.361C170.148 57.3914 169.992 57.2012 170.003 56.9885L170.462 51.75C170.484 51.5373 170.652 51.3694 170.887 51.3918C171.111 51.4142 171.267 51.6045 171.245 51.8171L170.786 57.0556ZM172.812 62.5404H172.745C172.555 62.5404 172.398 62.406 172.364 62.2158L171.827 59.2383C171.794 59.0256 171.928 58.8242 172.152 58.7794C172.364 58.7458 172.566 58.8913 172.599 59.104L173.137 62.0815C173.17 62.2941 173.025 62.4956 172.812 62.5404ZM176.137 58.2197H176.058C175.879 58.2197 175.711 58.0854 175.678 57.8952L175.152 54.9177C175.107 54.705 175.252 54.5036 175.465 54.4588C175.689 54.4252 175.879 54.5707 175.924 54.7722L176.45 57.7609C176.484 57.9735 176.349 58.175 176.137 58.2197ZM177.715 52.9364C177.692 52.9477 177.67 52.9477 177.648 52.9477C177.457 52.9477 177.29 52.8133 177.256 52.6231L176.73 49.6345C176.685 49.4218 176.831 49.2203 177.043 49.1867C177.267 49.1532 177.469 49.2875 177.502 49.5002L178.028 52.4888C178.073 52.7014 177.927 52.9029 177.715 52.9364ZM182.069 56.0035C182.047 56.2162 181.879 56.3617 181.677 56.3617H181.644C181.431 56.3505 181.263 56.1601 181.285 55.9363L181.745 50.6978C181.756 50.4852 181.935 50.3173 182.17 50.3397C182.383 50.362 182.539 50.5524 182.528 50.765L182.069 56.0035ZM186.457 56.731C186.267 56.731 186.099 56.5967 186.065 56.4064L185.539 53.4178C185.494 53.2052 185.64 53.0037 185.852 52.9701C186.076 52.9365 186.267 53.0708 186.311 53.2835L186.837 56.2721C186.882 56.4848 186.737 56.6863 186.524 56.7198C186.502 56.731 186.479 56.731 186.457 56.731ZM187.632 63.4582H187.565C187.386 63.4582 187.218 63.3239 187.184 63.1336L186.647 60.1562C186.613 59.9435 186.759 59.742 186.972 59.6973C187.196 59.6637 187.386 59.8092 187.42 60.0219L187.957 62.9993C187.99 63.212 187.856 63.4135 187.632 63.4582ZM190.531 61.0405C190.509 61.0516 190.487 61.0516 190.464 61.0516C190.274 61.0516 190.106 60.9173 190.072 60.727L189.546 57.7384C189.513 57.5258 189.647 57.3243 189.86 57.2907C190.084 57.2571 190.285 57.3914 190.319 57.6041L190.845 60.5927C190.889 60.8054 190.744 61.0069 190.531 61.0405ZM192.983 53.2611C192.927 53.2835 192.871 53.2947 192.826 53.2947C192.669 53.2947 192.535 53.2052 192.468 53.0596L190.867 49.5561C190.778 49.3546 190.867 49.1195 191.068 49.03C191.259 48.9405 191.494 49.03 191.583 49.2315L193.173 52.735C193.262 52.9365 193.184 53.1716 192.983 53.2611ZM195.658 59.4174C195.635 59.4286 195.613 59.4287 195.591 59.4287C195.4 59.4287 195.244 59.2943 195.21 59.104L194.673 56.1154C194.639 55.9027 194.773 55.7012 194.997 55.6676C195.21 55.6341 195.412 55.7684 195.445 55.9811L195.982 58.9697C196.016 59.1823 195.87 59.3838 195.658 59.4174ZM198.411 67.8684C198.4 68.0699 198.232 68.2266 198.031 68.2266H197.997C197.773 68.2042 197.617 68.0139 197.639 67.8012L198.098 62.5628C198.109 62.3501 198.311 62.1821 198.523 62.2046C198.736 62.227 198.893 62.4172 198.882 62.6299L198.411 67.8684ZM200.527 74.9426C200.505 74.9538 200.482 74.9538 200.46 74.9538C200.269 74.9538 200.102 74.8195 200.068 74.6292L199.542 71.6406C199.497 71.4279 199.643 71.2264 199.855 71.1929C200.079 71.1593 200.269 71.2936 200.314 71.5062L200.84 74.4948C200.885 74.7075 200.74 74.909 200.527 74.9426ZM200.784 59.4174C200.762 59.4286 200.74 59.4287 200.717 59.4287C200.538 59.4287 200.37 59.2943 200.337 59.104L199.799 56.1154C199.766 55.9027 199.911 55.7012 200.124 55.6676C200.348 55.6341 200.538 55.7684 200.572 55.9811L201.109 58.9697C201.142 59.1823 201.008 59.3838 200.784 59.4174ZM207.041 75.0881H206.974C206.784 75.0881 206.627 74.9538 206.594 74.7635L206.056 71.7861C206.023 71.5734 206.157 71.3719 206.381 71.3272C206.594 71.2935 206.795 71.4391 206.829 71.6405L207.366 74.6291C207.4 74.8418 207.254 75.0433 207.041 75.0881ZM206.112 59.6973C206.336 59.6636 206.527 59.8092 206.56 60.0218L207.097 62.9993C207.131 63.212 206.997 63.4247 206.784 63.4582C206.762 63.4582 206.728 63.4694 206.706 63.4694C206.527 63.4694 206.359 63.3351 206.325 63.1448L205.788 60.1562C205.754 59.9435 205.9 59.742 206.112 59.6973ZM203.997 81.7258H203.919C203.739 81.7258 203.572 81.5914 203.538 81.4012L203.012 78.4237C202.967 78.211 203.112 77.9983 203.325 77.9648C203.549 77.9312 203.739 78.0655 203.773 78.2782L204.31 81.2669C204.344 81.4795 204.21 81.681 203.997 81.7258ZM202.799 64.0291C203.023 63.9843 203.213 64.1298 203.247 64.3425L203.773 67.3199C203.818 67.5438 203.672 67.7453 203.46 67.7788C203.437 67.7788 203.415 67.79 203.392 67.79C203.202 67.79 203.045 67.6557 203.012 67.4655L202.474 64.4769C202.441 64.2642 202.575 64.0627 202.799 64.0291Z" fill="#63736C"/>
<path d="M83.3661 81.0542C83.2878 80.931 83.1871 80.8191 83.0863 80.7184L81.9782 82.8787C81.9782 82.8787 79.8963 83.4496 79.4038 83.0354C78.8552 82.5653 78.9784 80.3938 79.0232 79.8566C78.3964 79.9349 77.8143 79.9909 77.2322 80.0356C76.5606 80.1028 75.8891 80.1587 75.1502 80.2595C73.2362 80.5057 71.2438 80.3267 69.3186 80.1587C68.0649 80.0468 66.7777 79.9237 65.524 79.946C62.1548 79.9685 58.7856 81.8266 56.961 84.6697C56.3455 85.6211 55.8529 86.7181 55.3827 87.7814C54.3754 90.0313 53.3344 92.3595 51.0957 93.5012C49.1257 94.4974 46.8199 94.2288 44.6149 93.8706C42.7007 93.5572 40.3389 92.7177 37.6078 91.7551C32.9848 90.1208 27.7464 88.2739 22.6982 88.2067C16.3293 89.2029 11.4936 91.7102 6.57988 96.5794C1.29653 101.818 0.904785 106.855 0.904785 114.533C0.904785 119.772 5.19179 124.663 8.6617 126.365C8.20288 125.559 7.7439 124.798 7.29616 124.07C5.33732 120.824 3.6359 118.015 3.68073 113.492C3.73676 107.885 7.29615 105.333 11.2586 103.004C11.3817 102.937 11.5273 102.937 11.6504 103.004C11.7623 103.071 11.8407 103.195 11.8519 103.329L12.3332 117.724C12.434 120.869 12.557 124.417 13.9115 127.462C15.1203 130.17 17.8291 132.902 21.1535 132.902H21.1984C22.4184 132.891 23.7839 132.073 24.3212 131.032C24.5228 130.618 24.6795 130.014 24.2541 129.409C23.8624 128.85 23.146 128.592 22.396 128.312C21.5229 127.999 20.6163 127.674 20.1013 126.835C19.5194 125.872 18.568 118.832 18.7582 117.712C19.3179 114.332 19.8551 112.72 20.3253 111.31C20.4708 110.862 20.6163 110.437 20.7506 109.967C21.0081 109.082 22.9669 109.373 30.5784 111.008C33.6118 111.657 36.7348 112.328 38.257 112.429C38.839 112.463 39.4435 112.519 40.0479 112.563C44.5477 112.922 49.204 113.302 52.0696 110.761C52.2151 110.638 52.4166 110.627 52.562 110.739C52.7077 110.851 52.7636 111.041 52.6853 111.209C50.2228 116.683 49.7078 122.872 51.2637 128.671C51.4204 129.275 51.6442 129.958 52.1144 130.361C52.5956 130.753 53.2785 130.842 54.062 130.909L59.3452 131.368C61.1363 131.525 62.1548 131.245 62.5801 130.484C62.7817 130.115 62.8041 129.734 62.6472 129.309C62.3562 128.48 61.3489 127.596 60.2071 127.148L59.8489 127.003C58.2595 126.387 56.2783 125.626 55.9312 123.802C55.685 122.492 56.1998 117.287 56.6589 115.06V115.026C56.7372 114.701 56.8043 114.433 56.8603 114.265C57.2521 113.201 58.8304 111.556 61.0803 109.429C60.5989 108.299 60.3527 107.023 60.1847 105.803C59.6475 101.818 59.4573 97.7546 59.5915 93.725C59.6027 93.5123 59.7818 93.3445 59.9833 93.3445H60.0057C60.2183 93.3557 60.3862 93.5347 60.3751 93.7474C60.2408 97.7323 60.431 101.751 60.957 105.702C61.2481 107.817 61.763 110.146 63.4755 111.299C65.58 112.698 68.4902 111.724 71.0534 110.593C71.8146 110.258 72.5086 109.911 72.8109 109.295C73.0347 108.825 72.9898 108.22 72.9116 107.605L72.8669 107.235C72.5907 104.84 71.0646 101.348 68.2887 96.7584C67.147 94.8555 65.6807 92.4378 63.8114 89.2813C63.6995 89.091 63.7665 88.8559 63.9458 88.744C64.136 88.632 64.371 88.6992 64.4831 88.8783C66.3523 92.0348 67.8187 94.4526 68.9604 96.3555C69.7215 97.6091 70.3372 98.6277 70.852 99.4896C76.124 93.7026 77.8479 91.4416 79.0008 89.9528C79.7058 89.0126 80.2208 88.341 81.2283 87.2888C82.6162 85.8225 84.7429 83.0578 83.3661 81.0542ZM16.6091 102.322L15.9374 105.277C15.8926 105.467 15.736 105.59 15.5569 105.59C15.5234 105.59 15.501 105.579 15.4674 105.579C15.2548 105.534 15.1316 105.321 15.1764 105.109L15.8367 102.154C15.8816 101.941 16.0943 101.807 16.3069 101.851C16.5195 101.907 16.6539 102.109 16.6091 102.322ZM17.6164 98.8964C17.594 98.9075 17.5828 98.9075 17.5716 98.9075C17.3702 98.9075 17.2024 98.762 17.18 98.5605C17.068 97.6763 16.8218 96.8256 16.43 96.0308C16.3405 95.8294 16.4188 95.5943 16.6204 95.5048C16.8105 95.4152 17.0456 95.4936 17.1464 95.6838C17.5606 96.5682 17.8404 97.4972 17.9523 98.4598C17.9859 98.6837 17.8292 98.874 17.6164 98.8964ZM22.631 98.5158C22.6198 98.7173 22.4408 98.874 22.2394 98.874C22.2282 98.874 22.217 98.874 22.2058 98.8628C21.9931 98.8516 21.8363 98.6613 21.8475 98.4486L22.3065 93.1989C22.3288 92.9863 22.5305 92.8295 22.7319 92.852C22.9557 92.8632 23.1124 93.0534 23.0901 93.2773L22.631 98.5158ZM24.6571 103.989C24.6347 104.001 24.6123 104.001 24.5898 104.001C24.3997 104.001 24.2429 103.866 24.2094 103.676L23.672 100.687C23.6386 100.475 23.784 100.273 23.9967 100.24C24.2205 100.206 24.4109 100.34 24.4445 100.553L24.9817 103.542C25.0154 103.754 24.8697 103.956 24.6571 103.989ZM27.9815 99.6687C27.9591 99.6799 27.9254 99.6799 27.9032 99.6799C27.724 99.6799 27.5563 99.5456 27.5226 99.3553L26.9966 96.3667C26.9518 96.154 27.0972 95.9525 27.3099 95.9189C27.5338 95.8854 27.724 96.0197 27.7577 96.2324L28.2949 99.221C28.3285 99.4337 28.1942 99.6351 27.9815 99.6687ZM30.8694 97.2621H30.8022C30.612 97.2621 30.4552 97.139 30.4217 96.9487L29.8843 93.9601C29.8508 93.7474 29.9851 93.5459 30.1977 93.5012C30.4217 93.4788 30.6232 93.6131 30.6567 93.8258L31.1829 96.8032C31.2276 97.0158 31.0821 97.2174 30.8694 97.2621ZM34.1378 103.754C34.1266 103.956 33.9476 104.112 33.7461 104.112H33.7126C33.4998 104.09 33.3431 103.9 33.3543 103.687L33.8131 98.4486C33.8355 98.2247 34.0259 98.068 34.2386 98.0904C34.4624 98.1016 34.6192 98.2919 34.5968 98.5158L34.1378 103.754ZM38.3017 98.18C38.1115 98.18 37.9436 98.0569 37.9101 97.8665L37.3839 94.8779C37.3392 94.6653 37.4846 94.4638 37.6974 94.419C37.9213 94.3854 38.1115 94.5309 38.1563 94.7436L38.6824 97.721C38.716 97.9337 38.5816 98.1464 38.3689 98.18H38.3017ZM39.4883 104.907C39.4659 104.918 39.4322 104.918 39.4098 104.918C39.2308 104.918 39.0629 104.784 39.0294 104.594L38.492 101.605C38.4585 101.392 38.6039 101.191 38.8167 101.157C39.0406 101.124 39.2308 101.258 39.2645 101.471L39.8017 104.459C39.8353 104.672 39.7009 104.874 39.4883 104.907ZM42.3762 102.501H42.309C42.1188 102.501 41.9507 102.378 41.9171 102.187L41.3911 99.1986C41.3575 98.9859 41.4919 98.7844 41.7045 98.7397C41.9283 98.7061 42.1299 98.8516 42.1635 99.0642L42.6896 102.042C42.7344 102.254 42.5888 102.467 42.3762 102.501ZM47.5027 100.878H47.4357C47.2452 100.878 47.0886 100.754 47.055 100.564L46.5177 97.5755C46.4841 97.3628 46.6184 97.1614 46.8312 97.1166C47.055 97.083 47.2564 97.2285 47.29 97.4412L47.8273 100.419C47.8609 100.631 47.7155 100.844 47.5027 100.878ZM52.6292 100.878H52.562C52.383 100.878 52.2151 100.754 52.1816 100.564L51.6442 97.5755C51.6107 97.3628 51.7561 97.1614 51.9689 97.1166C52.1928 97.083 52.383 97.2285 52.4166 97.4412L52.9539 100.419C52.9875 100.631 52.8531 100.844 52.6292 100.878ZM55.5284 98.471H55.4612C55.271 98.471 55.1029 98.3367 55.0693 98.1464L54.5433 95.169C54.5096 94.9563 54.6441 94.7436 54.8567 94.71C55.0805 94.6765 55.2821 94.8108 55.3157 95.0235L55.8417 98.0121C55.8866 98.2247 55.741 98.4262 55.5284 98.471ZM72.9787 87.1657C72.2288 87.9157 70.7289 87.5575 70.4043 86.5501C70.0798 85.5427 71.0871 84.3786 72.1281 84.5465C73.3817 84.7592 73.7176 86.4158 72.9787 87.1657Z" fill="#63736C"/>
</svg>
