<svg width="58" height="48" viewBox="0 0 58 48" fill="none" xmlns="http://www.w3.org/2000/svg">
<path d="M5.40085 31.428C6.40085 32.204 7.60085 32.786 8.90085 33.174C9.30085 33.271 9.50085 33.368 9.50085 33.368C9.50085 33.368 9.50085 33.271 9.60085 33.174C9.70085 32.883 9.80085 32.689 9.90085 32.495C10.1008 32.204 10.5008 32.107 10.8008 32.301C11.1008 32.495 11.3008 32.883 11.1008 33.174C11.0008 33.368 10.9008 33.562 10.9008 33.659V33.756C10.3008 35.114 10.1008 36.957 10.4008 38.412C10.4008 38.606 10.4008 38.8 10.3008 38.994C10.5008 39.188 11.4009 39.576 14.5008 40.255C14.7008 40.255 14.8008 40.352 14.9008 40.352C16.7008 40.837 18.7008 41.322 20.6008 41.516C23.9008 41.807 27.2008 41.71 30.6008 41.419C34.4008 41.128 37.4009 40.837 40.2009 40.255C40.4009 40.255 40.7008 40.158 40.9008 40.158C42.2008 39.964 44.5009 39.576 45.1008 38.606C45.3008 38.218 45.3008 37.248 45.2009 36.666C45.2009 36.569 45.2009 36.375 45.2009 36.278C45.2009 36.084 45.0008 35.502 44.9008 34.92C44.5008 33.271 44.4008 32.592 44.6008 32.204C45.0009 31.525 46.2008 31.331 47.6008 31.137C47.8008 31.137 47.9009 31.137 48.0009 31.04C48.4009 30.943 48.7008 30.943 49.1008 30.846C51.4008 30.458 53.8008 29.973 55.6008 28.518C58.0009 26.578 58.7009 22.698 57.2009 19.982C56.5009 18.721 55.3008 18.042 53.9008 18.139C52.6008 18.236 51.4008 19.012 50.9008 20.37C50.6008 21.049 50.4008 21.728 50.1008 22.31C49.4008 24.444 48.6008 26.384 46.4008 28.033L46.2009 28.13C45.6009 28.518 44.9009 29.1 44.2009 29.294C44.0009 29.294 43.9008 29.391 43.9008 29.391C43.7008 29.488 43.6008 29.585 43.4008 29.488C43.2008 29.488 43.0008 29.391 42.9008 29.197C42.9008 29.197 42.8008 29.1 42.6008 28.906C42.1008 28.518 41.6009 27.936 41.2009 27.451C40.9009 27.063 40.6008 26.675 40.3008 26.384C39.0009 25.22 37.5009 24.25 35.8008 23.474C35.7009 24.347 35.8008 25.22 35.9008 26.093C35.9008 26.481 35.7009 26.772 35.3008 26.869H35.2009C34.9009 26.869 34.6008 26.675 34.5009 26.287C34.3008 25.026 34.3008 23.862 34.5009 22.698C34.4009 22.504 34.5009 22.31 34.5009 22.213C35.1008 17.751 37.8008 13.677 43.0009 9.603C43.4009 9.215 43.9008 8.924 44.3008 8.536C46.3008 6.984 48.2009 5.529 49.7009 3.589C50.2009 2.91 51.3008 1.455 52.0009 0C51.7009 0.485 51.2009 0.97 50.7009 1.455C49.7009 2.231 48.7008 2.813 47.6008 3.395C47.3008 3.589 46.9008 3.783 46.6008 3.977L46.4008 4.074C43.5008 5.82 40.5009 7.663 37.8008 9.7C35.3008 11.543 32.5008 13.871 30.8008 16.781C30.2008 17.848 29.6008 19.788 29.6008 21.534C29.6008 22.601 29.8008 23.959 30.8008 24.735C31.1008 24.929 31.1008 25.414 30.9008 25.705C30.7008 25.996 30.2008 25.996 29.9008 25.802C28.9008 25.026 28.3008 23.765 28.2008 22.213C24.3008 21.922 20.5008 22.989 17.5008 25.123C17.2008 25.317 16.9008 25.608 16.7008 25.802C15.8008 26.578 14.9008 27.354 13.2008 26.772C11.7008 26.287 10.4008 25.123 9.60085 24.25C8.30085 22.795 6.80085 20.564 8.70085 17.654C10.3008 15.132 11.0008 13.192 9.90085 10.767C9.30085 9.506 8.40085 8.827 7.20085 8.633C5.50085 8.439 3.30085 9.409 1.90085 11.058C-0.899151 14.841 -0.199152 20.952 1.40085 25.511C2.20085 28.13 3.60085 30.07 5.40085 31.428Z" fill="#46554F"/>
<path d="M35.2005 46.56C35.6005 46.463 35.9004 46.172 35.8004 45.784C35.7005 45.396 35.4005 45.105 35.0005 45.202C29.0005 45.978 22.2004 45.881 15.2004 44.814C12.2004 44.426 8.70045 43.747 5.60045 42.292L5.30045 42.195C4.50045 41.807 3.00045 41.128 2.60045 40.449C2.10045 39.576 3.00045 38.121 3.90045 37.636C4.20045 37.442 4.30045 37.054 4.10045 36.666C3.90045 36.375 3.50045 36.278 3.10045 36.472C1.70045 37.248 0.300449 39.479 1.30045 41.128C1.90045 42.195 3.60045 42.971 4.60045 43.456L4.80045 43.553C8.10045 45.105 11.7004 45.784 14.8004 46.172C18.9004 46.754 22.8004 47.045 26.6004 47.045C29.7004 47.045 32.5005 46.851 35.2005 46.56Z" fill="#46554F"/>
<path d="M52.9004 42.486C50.7004 43.553 47.9004 44.329 44.2004 44.62C43.8004 44.62 43.5004 45.008 43.6004 45.396C43.6004 45.784 43.9004 45.978 44.3004 45.978H44.4004C48.2004 45.59 51.2004 44.814 53.6004 43.65C54.8004 43.068 56.2004 42.195 56.8004 40.837C57.3004 39.77 57.2004 38.509 56.6004 37.539C56.1004 36.666 55.2004 36.181 54.1004 36.084C53.7004 36.084 53.4004 36.375 53.4004 36.763C53.4004 37.151 53.7004 37.442 54.1004 37.442C54.8004 37.442 55.2004 37.927 55.5004 38.218C55.9004 38.8 55.9004 39.673 55.6004 40.255C55.0004 41.322 53.9004 42.001 52.9004 42.486Z" fill="#46554F"/>
</svg>
