<svg width="75" height="67" viewBox="0 0 75 67" fill="none" xmlns="http://www.w3.org/2000/svg">
<path d="M13.4064 37.63C16.6064 37.5311 20.0064 37.0365 23.5064 35.8494L24.0064 35.6516C27.0064 34.6624 30.7064 33.4753 33.0064 31.4969C33.4064 31.1012 33.8064 30.8045 34.0064 30.4088C34.2064 30.112 34.7064 30.0131 35.1064 30.2109C35.4064 30.4088 35.5064 30.9034 35.3064 31.2991C35.1064 31.5958 34.8064 31.8926 34.5064 32.1894C34.5064 32.2883 34.5064 32.3872 34.5064 32.4861V32.585C31.8064 39.6084 28.7064 47.5221 21.6064 52.3692C23.1064 53.853 25.1064 54.9411 27.2064 55.3368C27.6064 55.4357 28.1064 55.4357 28.5064 55.4357C28.5064 55.3368 28.6064 55.2379 28.6064 55.2379C29.0064 54.7433 29.3064 54.2487 29.7064 53.853C31.7064 51.2811 33.8064 48.5113 37.1064 47.0275C39.4064 45.9393 43.7064 44.4555 46.5064 46.2361C47.9064 47.1264 48.7064 48.5113 48.7064 50.094C48.7064 51.9735 47.8064 53.7541 46.2064 54.9411C44.8064 55.9303 43.1064 56.0293 41.5064 56.1282C40.0064 56.2271 38.7064 56.2271 37.7064 57.0185C44.2064 57.612 52.1064 57.612 54.8064 56.6228C55.1064 56.2271 55.3064 55.6336 55.5064 54.8422C55.6064 54.2487 55.7064 53.5562 55.8064 52.9627C55.8064 52.666 55.9064 52.4681 55.9064 52.2703C56.0064 51.6767 56.0064 51.0832 56.1064 50.3908C56.2064 49.6983 56.2064 49.0059 56.3064 48.3134C56.4064 47.1264 56.5064 46.0383 56.7064 44.8512L56.8064 44.1588C57.0064 42.2793 57.3064 40.2019 58.3064 38.6192C59.0064 37.4322 60.4064 36.7397 61.5064 36.0473C61.9064 35.7505 62.4064 35.5527 62.7064 35.2559C64.8064 33.871 66.9064 32.2883 68.5064 30.4088C69.3064 29.4196 69.9064 28.1336 69.7064 27.7379C69.7064 27.7379 69.6064 27.639 69.4064 27.639C68.3064 27.5401 66.4064 28.925 65.1064 29.7163C64.5064 30.112 63.9064 30.5077 63.5064 30.7055C61.3064 31.8926 58.1064 33.6732 55.1064 32.585C54.8064 32.4861 54.6064 32.1894 54.6064 31.8926C54.6064 31.5958 54.7064 31.2991 55.0064 31.2001C60.6064 27.9358 66.3064 24.1768 69.4064 18.7361C70.8064 16.2631 72.0064 14.0868 72.1064 11.3171C72.1064 11.0203 72.1064 10.6246 72.1064 10.13C71.7064 11.0203 70.8064 11.5149 69.4064 11.0203C68.9064 10.8225 68.3064 10.5257 67.8064 10.13C67.7064 10.3279 67.6064 10.4268 67.5064 10.5257C65.8064 13.1966 64.1064 15.0761 62.4064 16.6588C60.1064 18.7361 58.0064 19.9232 55.8064 20.3189C54.2064 20.5167 53.6064 20.121 52.9064 19.3296C52.7064 19.1318 52.5064 18.934 52.3064 18.7361C51.7064 18.1426 50.9064 17.7469 50.0064 17.4502L49.7064 17.3512C44.4064 15.9663 40.7064 20.0221 38.4064 24.0778C38.4064 24.1768 38.4064 24.2757 38.3064 24.3746C38.2064 24.6714 38.0064 24.8692 37.8064 25.0671C37.8064 25.166 37.7064 25.2649 37.7064 25.2649V25.3638C37.6064 25.5617 37.4064 25.7595 37.1064 25.7595C35.5064 27.1444 33.0064 27.639 31.3064 28.0347H31.1064C27.7064 28.826 24.5064 29.2217 21.6064 29.0239C18.7064 28.826 15.8064 27.7379 13.1064 26.7487C11.3064 26.0563 9.4064 25.3638 7.6064 24.8692H7.5064C5.6064 24.4735 2.9064 23.88 1.3064 24.7703C-0.493597 25.7595 -0.0935978 29.2217 0.506402 31.2001C2.0064 37.1354 10.0064 37.63 13.4064 37.63ZM44.2064 25.7595C46.8064 25.9573 46.5064 30.0131 43.9064 29.8153C41.3064 29.6174 41.5064 25.5617 44.2064 25.7595Z" fill="#ED9451"/>
<path d="M71.8064 9.43597C71.7064 7.95216 71.3064 5.87482 70.6064 5.2813C70.5064 5.18238 70.3064 5.18238 70.3064 5.18238C70.3064 5.18238 70.1064 5.2813 69.9064 5.57806C69.6064 5.87483 69.4064 6.17159 68.7064 7.35864C68.3064 8.05108 68.2064 8.34785 67.8064 9.13921C67.7064 9.23813 67.7064 9.33705 67.6064 9.43597C68.0064 9.83166 68.7064 10.1284 69.2064 10.3263C70.5064 10.9198 71.4064 10.3263 71.8064 9.43597Z" fill="#ED9451"/>
<path d="M64.2062 47.6195C62.8062 47.3227 60.3062 47.7184 58.8062 48.8065C58.1062 49.3011 57.7062 49.8946 57.6062 50.4882C57.6062 50.686 57.5062 50.8839 57.3062 50.9828C57.3062 51.4774 57.2062 51.8731 57.2062 52.3677C57.2062 52.5655 57.1062 52.8623 57.1062 53.0601C57.0062 53.4558 57.0062 53.9504 56.9062 54.445C58.6063 52.8623 61.0062 53.258 63.1062 53.6536C65.6062 54.0493 67.1062 54.2472 68.0062 52.7633C68.4062 52.0709 68.5062 51.2795 68.2062 50.5871C67.5062 49.1033 65.6062 48.0152 64.2062 47.6195Z" fill="#ED9451"/>
<path d="M50.9063 7.26077C51.2063 8.15106 51.4062 9.04135 51.6063 10.0306C52.0063 12.3057 51.5063 14.1852 50.9063 16.2626C51.6063 16.5593 52.3063 16.955 52.9063 17.4496C55.1063 15.9658 55.3062 11.4154 55.3062 9.43703C55.4062 6.56832 55.3063 2.41365 53.6063 0.633076C53.2062 0.237393 52.7062 0.0395508 52.1063 0.0395508C51.5063 0.0395508 50.9063 0.435235 50.5063 0.929839C49.8063 1.91905 50.0062 3.50178 50.3062 4.98559C50.4062 5.77696 50.7063 6.4694 50.9063 7.26077Z" fill="#ED9451"/>
<path d="M46.9063 50.1931C46.9063 49.4018 46.6063 48.3136 45.4063 47.5223C43.1063 46.0385 39.1063 47.6212 37.5063 48.4125C34.6063 49.7974 32.7062 52.1715 30.7062 54.7435C30.4062 55.1392 30.2062 55.4359 29.9062 55.8316C31.2062 56.2273 33.1063 56.5241 35.6063 56.8208C37.0063 54.8424 39.2062 54.7435 41.2062 54.6446C42.7062 54.5456 44.0063 54.5456 45.1063 53.7543C46.2062 52.864 47.0063 51.4791 46.9063 50.1931Z" fill="#ED9451"/>
<path d="M42.3068 61.6664C42.7068 61.6664 43.0068 61.3696 43.1068 60.9739C43.1068 60.5782 42.8068 60.1825 42.4068 60.1825C34.8068 59.7869 26.1068 59.3912 18.1068 57.2149C11.7068 55.5333 10.4068 54.0495 10.1068 53.357C10.0068 53.1592 10.0068 52.9613 10.3068 52.5657C12.0068 50.1916 15.7068 49.8948 19.0068 49.598C19.2068 49.598 19.5068 49.598 19.7068 49.4991C20.5068 49.4002 21.4068 49.3013 22.1068 49.2023C22.5068 49.1034 22.8068 48.7077 22.7068 48.3121C22.6068 47.9164 22.3068 47.6196 21.9068 47.7185C21.9068 47.7185 21.9068 47.7185 21.8068 47.7185C20.9068 47.8175 19.9068 47.9164 18.8068 48.0153C15.2068 48.3121 11.1068 48.6088 9.00684 51.5764C8.40684 52.4667 8.50684 53.2581 8.60684 53.8516C9.50684 56.2257 14.2068 57.7095 17.7068 58.5998C25.8068 60.7761 34.6068 61.2707 42.3068 61.6664Z" fill="#ED9451"/>
<path d="M73.2062 58.1065C72.8062 58.1065 72.4062 58.4033 72.4062 58.799C72.3062 59.6892 71.3062 60.4806 70.5062 60.8763C63.0062 65.2288 37.8062 66.5148 33.0062 64.3385C32.6062 64.1407 32.2062 64.3385 32.0062 64.7342C31.8062 65.1299 32.0062 65.5256 32.4062 65.7234C34.1062 66.5148 38.0062 66.9105 42.8062 66.9105C52.6062 66.9105 66.0062 65.3277 71.3062 62.2612C73.0062 61.272 73.9062 60.1839 74.0062 58.9968C73.9062 58.5022 73.6062 58.1065 73.2062 58.1065Z" fill="#ED9451"/>
</svg>
