<svg width="69" height="69" viewBox="0 0 69 69" fill="none" xmlns="http://www.w3.org/2000/svg">
<path d="M67.8579 53.9371C67.5032 53.208 67.0776 52.4789 67.0067 51.7498C66.8648 50.8749 66.7938 49.9271 66.7229 49.0523C66.581 47.667 66.5101 46.2818 66.1554 44.9694C65.8007 43.5113 65.2332 42.3448 64.5947 41.4699C64.3819 41.1782 64.24 40.9595 64.0272 40.7408C63.5306 40.1575 63.034 39.5743 62.7503 38.7723C62.4665 37.8974 62.4665 36.9496 62.5375 36.0747C62.5375 35.6373 62.5375 35.2727 62.5375 34.9082C62.4665 33.523 62.2537 32.1377 61.9699 30.6796C60.8349 25.4302 58.2101 21.1287 54.7341 18.6498C52.535 17.0459 51.258 15.6606 50.7615 12.4527L50.6196 12.234C50.3358 10.1926 49.9811 8.29696 49.2008 6.47427C48.4914 4.8703 45.9376 -0.233225 40.8299 0.204221C39.0564 0.350036 36.6444 1.22493 35.5803 2.68308C35.2966 3.04761 35.1547 3.48506 35.0838 3.99541C37.0701 2.9018 39.1983 2.9018 41.2555 3.99541C44.9444 5.89101 47.8529 10.9945 47.8529 15.6606C47.9239 18.7227 46.6469 21.2016 44.3769 22.5868C44.3059 22.7326 44.235 22.8056 44.0931 22.8785C29.4795 31.117 17.8454 47.8128 14.5112 65.3835C14.3693 66.1855 14.2275 67.0604 14.0856 68.0082C14.0856 68.0811 14.0146 68.154 14.0146 68.2269C16.7813 68.8102 19.7608 69.2476 23.024 69.6122C27.9188 70.1225 32.7428 70.2683 37.3538 69.9038L38.0632 69.8309C38.4179 69.8309 38.8436 69.758 39.2692 69.758C39.2692 69.6851 39.2692 69.6851 39.2692 69.6122C39.2692 69.3935 39.2692 69.1747 39.2692 68.956C39.2692 68.3727 39.1983 67.8624 39.1983 67.352C39.1983 66.4772 39.1983 65.7481 39.1983 64.9461C39.2692 63.415 39.4111 61.9569 39.6948 60.5716C40.1914 57.947 40.9008 55.541 41.9649 53.3538C45.0153 47.0108 48.2786 43.4384 51.5418 42.5635C56.2948 41.397 59.6999 45.4798 61.2605 49.7084C61.4734 50.2188 61.6152 50.7291 61.7571 51.2395C62.2537 52.8434 62.7503 54.3016 63.8144 55.3952C64.8785 56.4159 66.9357 57.5824 68.1417 56.6346C68.8511 56.1243 68.6383 55.4681 67.8579 53.9371Z" fill="#ED9451"/>
<path d="M53.1034 61.5192C52.8906 61.3005 52.6068 61.1547 52.3231 60.936C52.2521 60.8631 52.1103 60.7902 52.0393 60.7172C49.6983 59.4049 46.5769 59.2591 43.6684 59.1862C42.8881 59.1862 42.1787 59.1133 41.4693 59.1133H41.3983C41.2565 59.6236 41.1855 60.134 41.0436 60.6443C40.9018 62.0296 40.7599 63.4877 40.6889 64.873C40.618 65.6021 40.618 66.404 40.6889 67.206C40.6889 67.7164 40.6889 68.2267 40.7599 68.7371C40.7599 68.9558 40.7599 69.1745 40.7599 69.3203C40.7599 69.3932 40.7599 69.3932 40.7599 69.4661C41.1146 69.4661 41.4693 69.3932 41.824 69.3932C42.8881 69.3203 43.9522 69.1745 44.8744 69.0287C45.3 68.9558 45.7257 68.8829 46.0804 68.81C47.641 68.5184 48.918 68.1538 50.1239 67.7164C51.8974 67.0602 53.9547 65.3833 54.2384 63.7794C54.3094 63.0503 53.9547 62.2483 53.1034 61.5192Z" fill="#46554F"/>
<path d="M15.5047 56.4898C11.3192 56.1981 7.5594 56.1252 4.01242 57.6563C3.01926 58.0937 1.60046 58.8957 0.749185 59.9893C-0.456791 61.4475 0.0397876 62.3953 0.536366 63.0514C2.0261 64.947 5.78591 66.0406 8.2688 66.6968L9.12008 66.9155C10.0423 67.2072 10.9645 67.4259 11.8867 67.6446C12.1705 67.7175 12.4542 67.7904 12.738 67.8633C12.738 67.7904 12.738 67.7904 12.738 67.7175C12.8799 66.6968 13.0218 65.8219 13.1636 65.0199C13.7312 62.1036 14.5115 59.2602 15.5047 56.4898Z" fill="#46554F"/>
</svg>
