<svg width="100" height="47" viewBox="0 0 100 47" fill="none" xmlns="http://www.w3.org/2000/svg">
<path d="M4.92997 16.3642L5.0549 16.0835C8.30837 11.0227 11.518 7.6102 15.2241 5.40747C15.4318 5.32845 15.4486 5.13554 15.4655 4.94264C16.1071 3.34651 17.4375 1.90785 19.2154 1.09148C20.7857 0.354141 22.5045 0.212947 23.9566 0.825946C27.0685 1.97292 28.1341 5.85661 28.5292 8.22378C28.4128 8.40797 28.4871 8.70604 28.6779 8.81992C29.9881 9.90647 31.1735 11.2737 32.1427 12.8163C33.3771 14.771 34.2788 17.0852 34.9475 19.7679C35.542 22.1525 35.7295 24.5987 35.9254 26.9484C35.9997 27.2465 35.966 27.6323 36.0403 27.9304C36.1788 29.7892 36.4085 31.7531 35.7585 33.4457C35.6336 33.7263 35.5002 34.1034 35.2841 34.2789C34.835 34.8227 34.087 35.3404 32.9338 34.7536C31.5897 34.0529 30.5124 32.5979 29.6192 30.1872C28.3949 26.9699 28.0014 23.4366 27.4997 19.991C27.3106 18.711 27.1299 17.3345 26.9407 16.0545C26.8664 15.7564 26.5844 15.5374 26.2771 15.6077C25.9698 15.678 25.7453 15.9499 25.8196 16.248C26.0087 17.528 26.1895 18.9045 26.3786 20.1845C26.8802 23.6301 27.3734 27.1721 28.5808 30.5823C29.4741 32.993 30.5429 34.5444 31.8701 35.4381C31.8616 35.5345 31.762 35.5258 31.7536 35.6222C31.2353 38.1039 29.6956 40.7877 27.5918 43.0334C26.594 44.1124 25.6552 44.5163 24.7671 44.3414C24.269 44.2978 23.8874 44.07 23.705 43.8597C23.5227 43.6493 23.5395 43.4564 23.5649 43.1671C23.7235 42.5006 24.2807 41.869 24.8294 41.3339L24.9375 41.2462C26.1514 39.9917 26.6512 38.8691 26.7946 37.2294C26.9297 35.6862 27.0731 34.0465 26.3859 32.7228C25.6986 31.3992 24.9033 30.1634 24.108 28.9275C24.5925 26.8317 24.8609 24.9113 24.9284 24.1397C24.9537 23.8503 24.7713 23.64 24.4725 23.6138C24.1736 23.5877 23.9575 23.7632 23.9322 24.0525C23.8647 24.8242 23.5794 26.9374 22.9953 29.0245C22.6863 30.261 22.3859 31.401 22.0026 32.3394C21.7206 32.1203 21.4302 31.9977 21.1482 31.7787C20.8578 31.6561 20.4678 31.5247 20.1773 31.4021C19.3888 31.236 18.5834 31.2627 17.8692 31.3946C17.4623 31.4562 17.0385 31.7107 16.6147 31.9652C16.6147 31.9652 16.6147 31.9652 16.6232 31.8687L16.5404 31.6671C15.9865 29.9664 15.5491 28.0815 15.154 25.7143C14.5206 21.4797 14.3938 17.1922 14.8647 12.957C14.8985 12.5711 14.9238 12.2818 14.9576 11.896C14.9829 11.6066 14.8089 11.2998 14.5101 11.2737C14.2112 11.2475 13.8955 11.4143 13.8702 11.7036C13.8449 11.993 13.8195 12.2824 13.7942 12.5717C12.371 15.0714 11.4289 17.8075 10.8769 20.6749C10.7182 21.3414 10.6591 22.0166 10.6001 22.6917C10.3317 24.6121 10.0548 26.6289 9.09755 28.3918C8.01533 30.4353 6.39446 31.7514 4.65873 32.0855C2.82339 32.4108 1.20581 31.3946 0.759986 29.6062C-0.528495 24.8282 2.49198 20.1357 4.92997 16.3642ZM24.2847 15.4334C24.3117 13.9778 22.2113 13.8913 22.0847 15.3381C21.9581 16.7849 24.2578 16.8889 24.2847 15.4334ZM18.2333 14.6123C18.2602 13.1568 16.0517 13.158 16.0248 14.6135C15.8898 16.1568 18.3059 16.0766 18.2333 14.6123Z" fill="#E97926"/>
<path d="M18.1003 32.1915C18.7149 32.0509 19.3211 32.0067 19.9104 32.1555C20.2092 32.1816 20.4996 32.3042 20.6904 32.4181C20.9809 32.5407 21.2628 32.7598 21.5448 32.9788C21.295 33.5401 20.9455 34.0927 20.6129 34.4523C20.1891 34.7068 19.6572 35.0491 19.1422 35.1984C18.8434 35.1723 18.553 35.0497 18.271 34.8306L18.1714 34.8219C17.9806 34.708 17.8894 34.6028 17.7982 34.4977C17.7982 34.4977 17.7982 34.4977 17.8066 34.4012C17.4419 33.9805 17.0941 33.367 16.8543 32.6656C17.2781 32.4111 17.6934 32.2531 18.1003 32.1915Z" fill="#E97926"/>
<path d="M37.0466 26.7555C36.8507 24.4058 36.6631 21.9596 36.0771 19.4785C35.557 17.392 34.9204 15.4897 33.968 13.7541C38.3733 16.1805 43.1956 17.2827 48.2762 17.7272C52.261 18.0759 56.3791 18.0474 60.6053 17.9312C64.5327 17.7888 68.5765 17.4623 72.4212 17.1183C73.8411 16.951 75.3523 16.8888 76.7723 16.7214C81.5219 16.3594 87.0516 16.2601 91.8723 18.5285L92.0715 18.5459C92.2707 18.5633 92.3788 18.4756 92.4869 18.3879C95.0228 15.7912 96.0324 12.2834 95.3484 8.6275C94.7962 5.76064 93.2056 3.28889 90.8501 1.52775C93.913 2.08729 96.8983 4.68106 98.1816 7.22312C100.326 11.3956 97.9202 15.9475 95.332 20.289C95.2155 20.4732 95.2071 20.5697 95.2898 20.7713C95.2814 20.8677 95.2729 20.9642 95.2645 21.0606C96.5141 23.9885 95.9283 27.2418 95.2023 29.8024C94.3177 33.0295 93.1342 36.2305 91.7684 39.2211L91.402 39.9666C90.411 42.1153 89.3034 44.4482 87.3837 45.7381C86.5277 46.3436 85.2158 46.4232 84.5522 45.9763C84.0794 45.6434 84.022 45.1524 84.2971 44.3018C84.4474 43.7318 84.9877 43.2931 85.4284 42.8457C85.7525 42.5825 86.0852 42.2228 86.4178 41.8631C87.3329 40.5825 87.1437 39.3025 86.9292 38.3118C86.6404 37.023 86.0528 35.7082 85.3402 34.6739C85.3571 34.481 85.1663 34.3671 85.0751 34.2619C84.263 33.219 83.4339 32.3689 82.4714 31.8959C80.7458 30.9674 78.5289 31.0651 76.7104 31.1975C75.905 31.2243 75.1908 31.3562 74.485 31.3916C74.0781 31.4532 73.6796 31.4183 73.3723 31.4886C69.9346 31.771 66.4716 32.3428 63.814 32.8878C62.6929 33.0813 61.5717 33.2748 60.4422 33.5647C55.6419 34.5054 50.7336 35.5339 45.886 34.721C45.3879 34.6774 44.8982 34.5374 44.4086 34.3974C44.1097 34.3712 43.9021 34.4502 43.7771 34.7309L43.6691 34.8186C42.987 35.7308 42.7861 36.8796 42.6848 38.037C42.6426 38.5193 42.6089 38.9051 42.4671 39.3786C42.1412 40.808 41.7158 42.2286 41.1164 43.3425C40.3921 44.737 38.9942 46.9473 36.9444 46.282C36.4547 46.142 36.1727 45.9229 36.0984 45.6248C35.8586 44.9235 36.5745 43.6255 37.1739 42.5116C37.6398 41.7748 37.9978 41.1258 38.148 40.5558C38.7406 38.3723 38.2795 35.6106 36.38 34.3753C36.4965 34.1911 36.613 34.0069 36.6383 33.7175C37.3051 31.8321 37.0923 29.6752 36.9622 27.72C37.0872 27.4394 37.0213 27.0448 37.0466 26.7555Z" fill="#E97926"/>
</svg>
