<svg width="18" height="18" viewBox="0 0 18 18" fill="none" xmlns="http://www.w3.org/2000/svg">
<g clip-path="url(#clip0_719_2571)">
<path d="M15.4023 0.899902H2.59748C1.65968 0.899902 0.899902 1.65968 0.899902 2.59748V15.4021C0.899902 16.3401 1.65968 17.0999 2.59748 17.0999H15.4021C16.3401 17.0999 17.0999 16.3401 17.0999 15.4023V2.59748C17.0999 1.65968 16.3401 0.899902 15.4023 0.899902ZM11.8074 11.8074C11.6121 12.0027 11.3957 12.1045 11.1666 12.1171C10.9331 12.1299 10.6912 12.0025 10.4323 11.7352L9.00206 10.3049L7.56764 11.7352C7.3088 11.9983 7.06256 12.1215 6.8291 12.1087C6.59996 12.1002 6.38342 11.9983 6.1883 11.803C5.993 11.6077 5.89112 11.3914 5.87852 11.1579C5.87006 10.9245 5.99732 10.6869 6.26048 10.4278L7.69076 8.99756L6.26048 7.56296C5.99732 7.30412 5.8742 7.05788 5.88266 6.82874C5.89112 6.59528 5.993 6.38738 6.1883 6.19208C6.3836 5.99678 6.59564 5.89076 6.8291 5.87798C7.06256 5.86952 7.30862 5.99678 7.56764 6.2558L9.00206 7.68608L10.4323 6.2558C10.6912 5.99696 10.9374 5.86952 11.1709 5.87798C11.3959 5.8823 11.6122 5.98832 11.8075 6.18362C12.0028 6.37892 12.1047 6.59114 12.1132 6.82442C12.126 7.05788 12.0028 7.30394 11.7397 7.56296L10.3094 8.99756L11.7397 10.4278C12.0028 10.691 12.126 10.9371 12.1175 11.1664C12.1045 11.3957 12.0027 11.6122 11.8074 11.8074Z" fill="#CC4144"/>
</g>
<defs>
<clipPath id="clip0_719_2571">
<rect width="18" height="18" fill="white"/>
</clipPath>
</defs>
</svg>
