<svg width="42" height="42" viewBox="0 0 42 42" fill="none" xmlns="http://www.w3.org/2000/svg">
<path d="M15.3328 21.4611C15.165 21.0517 14.6918 20.697 14.4202 20.3149C14.1916 21.0028 14.0753 21.2727 14.0473 22.0264C14.2787 21.5916 14.5786 21.3068 14.851 20.9327C15.2906 21.6623 15.1224 22.9901 14.515 23.6079C13.7718 23.8015 12.8961 23.1 12.9121 22.378C12.936 21.6559 13.7298 20.7287 14.4202 20.3149C14.1405 20.2032 13.1475 19.6983 12.8677 19.5867C13.9066 20.2269 13.469 21.2938 12.6173 21.9836C12.2096 22.0208 11.7405 21.9787 11.5562 21.6275C11.282 20.9064 11.2657 20.8431 11.2669 20.4389C11.691 19.7276 12.2111 19.5794 12.9005 19.5999C11.6993 18.2096 8.73662 18.4301 7.39446 17.2927C10.5753 21.2231 14.4595 25.7564 17.6403 29.6794C18.8854 30.7301 17.892 29.8671 18.8631 30.863C19.9584 31.6383 22.4008 35.0449 34.0089 40.0193C34.3758 40.2717 35.5444 40.9384 35.958 41.1208C36.8212 41.493 37.7722 41.88 38.6993 41.6865C39.7222 41.4706 40.4495 40.5997 40.8572 39.699C41.7203 37.8082 41.5684 35.6122 40.8572 33.662C40.1458 31.7116 38.9151 29.9623 37.6364 28.2874C36.5175 26.8135 35.3506 25.3693 33.936 24.1411C32.2337 22.6523 30.1637 21.4687 28.909 19.6375C28.5734 19.1537 28.3017 18.6028 28.3496 18.0296C28.4056 17.4639 28.885 16.8907 29.5005 16.8832C31.1788 16.8609 32.8331 16.0421 33.7762 14.7469C33.984 14.8585 34.2158 15.0297 34.1838 15.2456C34.1598 15.4689 33.6723 15.4317 33.7762 15.2307C33.952 15.9751 34.7672 16.4738 35.5824 16.511C36.3896 16.5482 37.1728 16.191 37.8042 15.7146C38.6913 17.4341 39.3387 19.2579 39.7222 21.1263C39.6504 19.31 39.1229 17.5086 38.1958 15.9081C38.044 15.6476 38.2517 15.3274 38.4275 15.0818C39.2907 13.8759 39.7622 12.4392 39.7702 10.9951C39.7782 10.6526 39.3058 9.83978 38.9462 9.86957C38.8343 11.4403 38.5634 13.3325 37.5884 14.6054C37.4046 14.3077 37.0609 14.0992 36.6933 14.0769C36.8931 14.3449 37.0929 14.6129 37.2927 14.8808C37.1568 15.8932 35.5744 16.258 34.7273 15.6178C33.8801 14.9776 33.7442 13.7791 34.0559 12.8114C34.2397 13.2357 34.4156 13.6526 34.5994 14.0769C33.952 12.5211 35.2228 10.5559 36.997 10.3549C37.3812 10.3229 38.196 10.5163 38.7552 10.1837C42.6535 5.41112 38.5376 0.469168 33.7122 0.514003C33.0649 0.528899 32.3776 0.625658 31.7942 0.365116C27.3952 -0.979397 24.5148 1.92313 26.8391 0.573551C25.6563 1.22862 24.4814 1.89113 23.3066 2.5462C22.2489 2.98485 19.6032 6.16936 19.1908 6.61062C18.3836 7.47413 17.5524 8.35249 16.4974 8.94055C14.0439 10.2805 10.943 9.77429 8.22568 8.99272C9.2886 8.91076 10.3675 9.05964 11.3665 9.41693C10.919 9.02992 10.2796 8.93314 9.68022 8.85125C8.76916 8.72467 7.85004 8.59816 6.93897 8.47158C5.89997 8.33018 4.84504 8.1887 3.83004 8.41207C2.0638 8.79908 0.68917 10.3847 0.64923 12.067C-0.0860357 10.9727 0.505373 9.42441 1.62424 8.65767C2.75111 7.89093 4.22964 7.75701 5.62028 7.83883C4.26963 7.28056 2.5993 7.49644 1.46443 8.36738C0.321543 9.23091 -0.229885 10.7196 0.0897971 12.0596C0.273594 12.8337 0.161721 13.6451 0.177692 14.4417C0.265587 18.4688 3.54233 21.7367 6.61126 24.5803C6.17971 23.9401 5.75612 23.2999 5.32457 22.6523C6.44344 23.8582 7.5623 25.0716 8.68117 26.2776C10.0239 27.7217 11.3586 29.1583 12.6932 30.6025C15.8181 33.9746 19.0629 37.4286 23.3386 39.4161C20.2137 37.5179 17.3845 35.2029 14.9469 32.5677C15.1947 32.7538 15.4505 32.9473 15.6982 33.1334C14.3316 31.6818 12.9729 30.2228 11.6143 28.7712C10.1517 27.208 8.68924 25.6522 7.1148 24.1932C5.5883 22.7714 3.94194 21.4389 2.63123 19.8385C1.32052 18.2455 0.33751 16.3101 0.393464 14.3002C0.441419 12.2903 1.72014 10.2284 3.7581 9.58078C2.54334 10.8834 1.79206 12.5657 1.6802 14.2928C1.88 13.6526 2.07181 13.005 2.27161 12.3573C2.09184 13.1174 2.21566 13.8982 2.51136 14.6129C2.38348 13.3027 2.49538 11.6129 3.83803 11.1961C3.14272 12.2605 2.887 13.5632 3.12675 14.7915C3.15073 13.9727 3.19069 13.1241 3.55033 12.3722C3.90195 11.6204 4.66152 10.992 5.54034 10.9504C6.41946 10.9281 7.16079 11.7119 7.05886 12.536C7.30655 12.4466 7.55432 12.3648 7.81007 12.2754C6.97094 10.7345 4.40992 10.141 3.04682 11.2928C3.07879 10.5856 3.59028 9.91576 4.29356 9.65519C4.99689 9.39462 5.86003 9.5584 6.4035 10.0572C4.82106 8.70236 1.82405 9.39462 1.10475 11.2854C1.30456 9.75939 3.06283 8.76935 4.70919 8.68746C6.36351 8.60557 7.95394 9.17874 9.55234 9.5733C10.7591 9.87107 11.9979 10.0721 13.2446 10.1763C14.0119 10.2358 14.8111 10.2582 15.5384 10.0199C16.1858 9.81149 16.7452 9.40952 17.2806 9.01503C18.6503 7.85507 18.1585 8.22266 18.4954 7.75701C19.3586 6.64782 20.3096 5.59076 21.3166 4.60073C20.925 4.96548 20.6613 5.45679 20.5894 5.97041C21.924 4.31043 23.3706 2.57598 25.4405 1.80925C26.0312 1.41141 26.4109 1.06844 27.0949 0.595887C27.6053 0.638527 28.1156 0.681209 28.626 0.723871L30.8351 0.908528C28.1991 1.93992 26.1106 3.69697 24.6641 5.88547C24.4963 6.14604 24.3069 6.42909 24.4175 6.7818C24.4655 7.02 24.6413 7.21356 24.8091 7.39224C26.0954 9.13434 26.2971 9.18975 27.8541 10.0199C29.4925 10.1763 31.098 10.3712 32.7363 10.5275C32.8248 10.6341 32.9226 10.7772 33.0809 11.0404C33.226 11.2097 33.2928 11.5088 33.3087 11.7023C33.4046 12.5732 33.4725 13.593 32.7612 14.1662C33.1209 14.2258 33.5045 13.9727 33.5604 13.6451C33.5232 14.6575 32.7932 15.5731 31.8182 16.0421C30.8511 16.511 29.7402 16.6376 28.6533 16.7493C25.5444 17.0694 22.4275 17.3895 19.3186 17.7096C19.9819 17.8286 20.6453 17.9403 21.3006 18.0594C18.1917 18.5582 14.9424 17.9417 12.1258 16.6972C12.7572 16.9577 13.4845 16.98 14.1318 16.7716C12.5893 16.7716 11.3106 15.7295 9.912 15.119C8.78514 14.6352 7.53034 14.4193 6.29158 14.5087C6.29158 15.521 6.6912 16.5259 7.39446 17.2927C9.07185 18.5987 7.22359 16.6909 7.10681 16.1984C6.96408 15.6565 6.9505 15.4671 7.26666 14.9999C8.14773 14.9134 8.12644 15.1463 8.81711 15.4317C11.3999 16.8524 14.3916 18.0219 15.2027 18.1084C17.0249 18.7189 19.0531 18.8187 20.9392 18.4241C21.8252 18.279 22.6034 18.8857 23.2027 19.511C25.9281 22.3248 27.8701 25.7043 29.7802 29.0467C31.4585 31.987 33.1368 34.92 34.8151 37.8603C34.5914 37.1531 34.3756 36.446 34.1518 35.7388C34.9191 36.7884 35.5504 37.9199 36.022 39.1109C35.982 37.0861 34.3516 35.4485 33.1049 33.781C32.002 32.3071 31.4265 32.0242 30.8591 30.2973C30.955 30.7513 30.7632 29.8431 30.8591 30.2973C28.6533 26.1957 28.2517 25.844 25.8414 21.8955C25.404 21.2477 25.8286 21.9082 25.0077 20.6551C24.7124 20.1438 24.7692 20.2022 24.2577 19.5535C23.3672 18.3873 23.5996 18.556 23.6823 18.4092C24.2544 17.9895 24.6378 17.768 25.2327 17.6426C29.7642 20.8881 33.5764 24.9153 37.3486 28.9127C37.1808 28.5702 37.013 28.2353 36.8371 27.8929C38.4196 29.8208 40.0339 31.8233 40.6813 34.1755C41.3286 36.5204 40.7692 39.3342 38.6513 40.756C38.2757 41.0091 37.8361 41.2101 37.3726 41.1952C36.941 41.1729 36.5415 40.957 36.1738 40.7486C21.721 34.6926 18.7916 28.6261 17.8561 28.4214C17.6767 28.1631 17.6484 28.1578 17.0169 26.9623C16.7691 26.5009 16.5214 26.0244 16.5054 25.5108C16.4974 24.9972 16.7943 24.8102 17.3297 24.6761C17.3297 25.0855 17.3446 25.1163 17.3526 25.5257C17.4884 25.2056 17.5183 25.2443 17.6542 24.9242C17.8405 25.8412 17.8519 27.0144 17.5387 27.928C19.1492 23.9058 16.1044 23.8726 16.3775 26.2329C16.0978 26.3966 15.6902 26.3297 15.4824 26.084C15.3774 26.2997 14.9639 25.2905 14.8031 24.625C14.6113 23.7764 14.963 22.682 15.882 22.5109C15.8101 23.2106 15.922 23.9252 16.2017 24.5803C16.2097 23.9699 16.2256 23.3595 16.2417 22.7491C16.5903 22.9429 16.9342 24.2364 16.9755 24.7008C17.2313 24.0308 16.4547 22.2749 15.6955 22.2377C15.6955 22.2377 15.6148 21.9903 15.5428 21.8506C15.4381 21.6475 15.4162 21.6073 15.3328 21.4611ZM36.4056 16.1761C36.3096 16.1017 36.4296 15.9677 36.5415 15.9155C37.3726 15.4838 37.996 14.7543 38.4275 13.9652C38.8591 13.1687 39.1069 12.3052 39.3387 11.4418C39.3786 11.3896 39.4745 11.4194 39.5065 11.479C39.5385 11.5385 39.5225 11.6055 39.5065 11.6651C39.2907 12.5806 39.0589 13.5111 38.5874 14.3374C38.1239 15.1711 37.3646 15.9081 36.4056 16.1761ZM35.974 26.6051C36.2697 26.9772 36.5255 27.3718 36.7572 27.7813C35.4466 26.2925 34.0399 24.8855 32.5454 23.5605C32.961 23.5307 33.3126 23.8359 33.6004 24.1188C33.8321 24.3421 34.0559 24.5654 34.2797 24.7887C34.8791 25.3693 35.4705 25.9575 35.974 26.6051ZM40.5455 39.1779C40.6254 39.2747 40.5934 39.4161 40.5455 39.5278C40.2497 40.2275 39.5864 40.7263 38.947 41.1878C38.6513 41.4111 38.2837 41.6418 37.9081 41.5451C37.9001 41.493 37.8921 41.4409 37.8761 41.3962C38.971 40.9198 39.9141 40.1382 40.5455 39.1779ZM14.5953 9.93807C15.0269 9.77429 15.4505 9.6105 15.882 9.44672C16.0099 9.39462 16.1698 9.34252 16.2817 9.41693C15.7861 9.75939 15.1787 10.1167 14.5953 9.93807ZM34.4795 0.74476C39.639 0.0824645 37.0593 0.413609 34.4795 0.74476Z" fill="#231E1E"/>
<path d="M30.3317 8.85866C30.4675 8.79166 30.4595 8.61305 30.4036 8.48648C30.3237 8.33018 30.1958 8.2036 30.0359 8.12919C30.0439 8.39717 30.1558 8.65774 30.3317 8.85866Z" fill="#231E1E"/>
<path d="M4.95695 9.93807C4.52535 10.0274 4.12578 10.2656 3.86201 10.6005C4.36553 10.2656 4.96491 10.0646 5.58029 10.0199C5.42048 9.89338 5.17272 9.89338 4.95695 9.93807Z" fill="#231E1E"/>
<path d="M41.0889 16.5036C41.3127 16.9428 41.5364 17.382 41.7682 17.8137C41.8162 17.9105 41.8961 17.9849 42 18.0221C41.8481 17.4564 41.5284 16.9279 41.0889 16.5036Z" fill="#231E1E"/>
<path d="M27.894 10.0944C27.5104 10.2135 27.0709 10.087 26.7432 9.86366C26.4155 9.6403 26.1758 9.32763 25.936 9.02244C25.6163 8.60557 25.2967 8.19618 24.977 7.77932C25.1048 8.63536 25.6323 9.43183 26.4075 9.90828C26.7112 10.1019 27.0709 10.2656 27.2228 10.5782C27.7901 10.7271 28.3576 10.8834 28.917 11.0398C29.4925 11.1961 30.1798 11.3301 30.6193 10.9579C30.4036 10.876 30.1637 10.9057 29.932 10.9206C29.1249 10.9579 28.3097 10.7494 27.6383 10.3251C27.7662 10.3102 27.8701 10.2061 27.894 10.0944Z" fill="#231E1E"/>
<path d="M23.1628 16.8906C23.3146 16.8832 23.4265 16.7641 23.5224 16.6524C24.7772 15.1413 26.3676 13.8684 28.1578 12.9305C28.3256 12.8412 28.5094 12.7519 28.7092 12.737C28.9011 12.7221 29.1248 12.7965 29.2127 12.9603C29.3965 12.8486 29.3086 12.5508 29.1088 12.4615C28.909 12.3796 28.6693 12.4392 28.4614 12.5136C27.3186 12.9305 26.3356 13.66 25.4165 14.4118C24.5294 15.1339 23.6583 15.9006 23.1628 16.8906Z" fill="#231E1E"/>
<path d="M26.9111 10.4889C25.8561 10.4814 24.969 11.1886 24.2177 11.8809C22.4275 13.5409 20.8211 15.3721 19.4305 17.3448C19.8461 17.1363 20.1258 16.7716 20.4055 16.4143C21.5484 14.985 22.7871 13.6228 24.1138 12.335C24.961 11.5236 25.9919 10.6824 27.2068 10.7271C27.2866 10.5931 27.0709 10.4889 26.9111 10.4889Z" fill="#231E1E"/>
<path d="M27.1834 31.2261C27.1753 30.6901 26.943 30.1856 26.6713 29.7166C25.2967 27.3643 22.7073 25.7341 21.6363 23.2553C21.1887 22.2206 20.973 21.0072 20.0459 20.3075C19.6462 20.0097 18.9996 19.8295 18.656 20.1793C18.3204 20.5143 18.4954 21.0816 18.6952 21.4985C20.3975 25.1833 22.8351 28.5702 25.8481 31.4436C26.1518 31.7414 26.6411 32.0801 26.9687 31.8047C27.1206 31.6707 27.1914 31.4196 27.1834 31.2261ZM26.5914 30.1781C26.8311 30.6695 26.983 31.3171 26.5674 31.6967C23.3329 28.8351 20.7492 25.1609 18.943 21.2752C18.7751 20.9104 18.6792 20.3671 19.0709 20.2107C19.8301 20.4192 20.3815 21.037 20.7252 21.6995C21.0688 22.362 21.2606 23.0841 21.5803 23.754C22.7152 26.1882 25.4086 27.7589 26.5914 30.1781Z" fill="#231E1E"/>
<path d="M30.3317 8.85866C30.4675 8.79166 30.4595 8.61305 30.4036 8.48648C30.3237 8.33018 30.1958 8.2036 30.0359 8.12919C30.0439 8.39717 30.1558 8.65774 30.3317 8.85866Z" fill="#231E1E"/>
<path d="M4.95695 9.93807C4.52535 10.0274 4.12578 10.2656 3.86201 10.6005C4.36553 10.2656 4.96491 10.0646 5.58029 10.0199C5.42048 9.89338 5.17272 9.89338 4.95695 9.93807Z" fill="#231E1E"/>
<path d="M41.0889 16.5036C41.3127 16.9428 41.5364 17.382 41.7682 17.8137C41.8162 17.9105 41.8961 17.9849 42 18.0221C41.8481 17.4564 41.5284 16.9279 41.0889 16.5036Z" fill="#231E1E"/>
<path d="M27.894 10.0944C27.5104 10.2135 27.0709 10.087 26.7432 9.86366C26.4155 9.6403 26.1758 9.32763 25.936 9.02244C25.6163 8.60557 25.2967 8.19618 24.977 7.77932C25.1048 8.63536 25.6323 9.43183 26.4075 9.90828C26.7112 10.1019 27.0709 10.2656 27.2228 10.5782C27.7901 10.7271 28.3576 10.8834 28.917 11.0398C29.4925 11.1961 30.1798 11.3301 30.6193 10.9579C30.4036 10.876 30.1637 10.9057 29.932 10.9206C29.1249 10.9579 28.3097 10.7494 27.6383 10.3251C27.7662 10.3102 27.8701 10.2061 27.894 10.0944Z" fill="#231E1E"/>
<path d="M23.1628 16.8906C23.3146 16.8832 23.4265 16.7641 23.5224 16.6524C24.7772 15.1413 26.3676 13.8684 28.1578 12.9305C28.3256 12.8412 28.5094 12.7519 28.7092 12.737C28.9011 12.7221 29.1248 12.7965 29.2127 12.9603C29.3965 12.8486 29.3086 12.5508 29.1088 12.4615C28.909 12.3796 28.6693 12.4392 28.4614 12.5136C27.3186 12.9305 26.3356 13.66 25.4165 14.4118C24.5294 15.1339 23.6583 15.9006 23.1628 16.8906Z" fill="#231E1E"/>
<path d="M26.9111 10.4889C25.8561 10.4814 24.969 11.1886 24.2177 11.8809C22.4275 13.5409 20.8211 15.3721 19.4305 17.3448C19.8461 17.1363 20.1258 16.7716 20.4055 16.4143C21.5484 14.985 22.7871 13.6228 24.1138 12.335C24.961 11.5236 25.9919 10.6824 27.2068 10.7271C27.2866 10.5931 27.0709 10.4889 26.9111 10.4889Z" fill="#231E1E"/>
<path d="M27.1834 31.2261C27.1753 30.6901 26.943 30.1856 26.6713 29.7166C25.2967 27.3643 22.7073 25.7341 21.6363 23.2553C21.1887 22.2206 20.973 21.0072 20.0459 20.3075C19.6462 20.0097 18.9996 19.8295 18.656 20.1793C18.3204 20.5143 18.4954 21.0816 18.6952 21.4985C20.3975 25.1833 22.8351 28.5702 25.8481 31.4436C26.1518 31.7414 26.6411 32.0801 26.9687 31.8047C27.1206 31.6707 27.1914 31.4196 27.1834 31.2261ZM26.5914 30.1781C26.8311 30.6695 26.983 31.3171 26.5674 31.6967C23.3329 28.8351 20.7492 25.1609 18.943 21.2752C18.7751 20.9104 18.6792 20.3671 19.0709 20.2107C19.8301 20.4192 20.3815 21.037 20.7252 21.6995C21.0688 22.362 21.2606 23.0841 21.5803 23.754C22.7152 26.1882 25.4086 27.7589 26.5914 30.1781Z" fill="#231E1E"/>
<path d="M30.3317 8.85866C30.4675 8.79166 30.4595 8.61305 30.4036 8.48648C30.3237 8.33018 30.1958 8.2036 30.0359 8.12919C30.0439 8.39717 30.1558 8.65774 30.3317 8.85866Z" fill="#231E1E"/>
<path d="M4.95695 9.93807C4.52535 10.0274 4.12578 10.2656 3.86201 10.6005C4.36553 10.2656 4.96491 10.0646 5.58029 10.0199C5.42048 9.89338 5.17272 9.89338 4.95695 9.93807Z" fill="#231E1E"/>
<path d="M27.894 10.0944C27.5104 10.2135 27.0709 10.087 26.7432 9.86366C26.4155 9.6403 26.1758 9.32763 25.936 9.02244C25.6163 8.60557 25.2967 8.19618 24.977 7.77932C25.1048 8.63536 25.6323 9.43183 26.4075 9.90828C26.7112 10.1019 27.0709 10.2656 27.2228 10.5782C27.7901 10.7271 28.3576 10.8834 28.917 11.0398C29.4925 11.1961 30.1798 11.3301 30.6193 10.9579C30.4036 10.876 30.1637 10.9057 29.932 10.9206C29.1249 10.9579 28.3097 10.7494 27.6383 10.3251C27.7662 10.3102 27.8701 10.2061 27.894 10.0944Z" fill="#231E1E"/>
<path d="M41.0889 16.5036C41.3127 16.9428 41.5364 17.382 41.7682 17.8137C41.8162 17.9105 41.8961 17.9849 42 18.0221C41.8481 17.4564 41.5284 16.9279 41.0889 16.5036Z" fill="#231E1E"/>
<path d="M23.1628 16.8906C23.3146 16.8832 23.4265 16.7641 23.5224 16.6524C24.7772 15.1413 26.3676 13.8684 28.1578 12.9305C28.3256 12.8412 28.5094 12.7519 28.7092 12.737C28.9011 12.7221 29.1248 12.7965 29.2127 12.9603C29.3965 12.8486 29.3086 12.5508 29.1088 12.4615C28.909 12.3796 28.6693 12.4392 28.4614 12.5136C27.3186 12.9305 26.3356 13.66 25.4165 14.4118C24.5294 15.1339 23.6583 15.9006 23.1628 16.8906Z" fill="#231E1E"/>
<path d="M26.9111 10.4889C25.8561 10.4814 24.969 11.1886 24.2177 11.8809C22.4275 13.5409 20.8211 15.3721 19.4305 17.3448C19.8461 17.1363 20.1258 16.7716 20.4055 16.4143C21.5484 14.985 22.7871 13.6228 24.1138 12.335C24.961 11.5236 25.9919 10.6824 27.2068 10.7271C27.2866 10.5931 27.0709 10.4889 26.9111 10.4889Z" fill="#231E1E"/>
<path d="M27.1834 31.2261C27.1753 30.6901 26.943 30.1856 26.6713 29.7166C25.2967 27.3643 22.7073 25.7341 21.6363 23.2553C21.1887 22.2206 20.973 21.0072 20.0459 20.3075C19.6462 20.0097 18.9996 19.8295 18.656 20.1793C18.3204 20.5143 18.4954 21.0816 18.6952 21.4985C20.3975 25.1833 22.8351 28.5702 25.8481 31.4436C26.1518 31.7414 26.6411 32.0801 26.9687 31.8047C27.1206 31.6707 27.1914 31.4196 27.1834 31.2261ZM26.5914 30.1781C26.8311 30.6695 26.983 31.3171 26.5674 31.6967C23.3329 28.8351 20.7492 25.1609 18.943 21.2752C18.7751 20.9104 18.6792 20.3671 19.0709 20.2107C19.8301 20.4192 20.3815 21.037 20.7252 21.6995C21.0688 22.362 21.2606 23.0841 21.5803 23.754C22.7152 26.1882 25.4086 27.7589 26.5914 30.1781Z" fill="#231E1E"/>
<path d="M30.3317 8.85866C30.4675 8.79166 30.4595 8.61305 30.4036 8.48648C30.3237 8.33018 30.1958 8.2036 30.0359 8.12919C30.0439 8.39717 30.1558 8.65774 30.3317 8.85866Z" fill="#231E1E"/>
<path d="M4.95695 9.93807C4.52535 10.0274 4.12578 10.2656 3.86201 10.6005C4.36553 10.2656 4.96491 10.0646 5.58029 10.0199C5.42048 9.89338 5.17272 9.89338 4.95695 9.93807Z" fill="#231E1E"/>
<path d="M41.0889 16.5036C41.3127 16.9428 41.5364 17.382 41.7682 17.8137C41.8162 17.9105 41.8961 17.9849 42 18.0221C41.8481 17.4564 41.5284 16.9279 41.0889 16.5036Z" fill="#231E1E"/>
<path d="M27.894 10.0944C27.5104 10.2135 27.0709 10.087 26.7432 9.86366C26.4155 9.6403 26.1758 9.32763 25.936 9.02244C25.6163 8.60557 25.2967 8.19618 24.977 7.77932C25.1048 8.63536 25.6323 9.43183 26.4075 9.90828C26.7112 10.1019 27.0709 10.2656 27.2228 10.5782C27.7901 10.7271 28.3576 10.8834 28.917 11.0398C29.4925 11.1961 30.1798 11.3301 30.6193 10.9579C30.4036 10.876 30.1637 10.9057 29.932 10.9206C29.1249 10.9579 28.3097 10.7494 27.6383 10.3251C27.7662 10.3102 27.8701 10.2061 27.894 10.0944Z" fill="#231E1E"/>
<path d="M23.1628 16.8906C23.3146 16.8832 23.4265 16.7641 23.5224 16.6524C24.7772 15.1413 26.3676 13.8684 28.1578 12.9305C28.3256 12.8412 28.5094 12.7519 28.7092 12.737C28.9011 12.7221 29.1248 12.7965 29.2127 12.9603C29.3965 12.8486 29.3086 12.5508 29.1088 12.4615C28.909 12.3796 28.6693 12.4392 28.4614 12.5136C27.3186 12.9305 26.3356 13.66 25.4165 14.4118C24.5294 15.1339 23.6583 15.9006 23.1628 16.8906Z" fill="#231E1E"/>
<path d="M26.9111 10.4889C25.8561 10.4814 24.969 11.1886 24.2177 11.8809C22.4275 13.5409 20.8211 15.3721 19.4305 17.3448C19.8461 17.1363 20.1258 16.7716 20.4055 16.4143C21.5484 14.985 22.7871 13.6228 24.1138 12.335C24.961 11.5236 25.9919 10.6824 27.2068 10.7271C27.2866 10.5931 27.0709 10.4889 26.9111 10.4889Z" fill="#231E1E"/>
<path d="M27.1834 31.2261C27.1753 30.6901 26.943 30.1856 26.6713 29.7166C25.2967 27.3643 22.7073 25.7341 21.6363 23.2553C21.1887 22.2206 20.973 21.0072 20.0459 20.3075C19.6462 20.0097 18.9996 19.8295 18.656 20.1793C18.3204 20.5143 18.4954 21.0816 18.6952 21.4985C20.3975 25.1833 22.8351 28.5702 25.8481 31.4436C26.1518 31.7414 26.6411 32.0801 26.9687 31.8047C27.1206 31.6707 27.1914 31.4196 27.1834 31.2261ZM26.5914 30.1781C26.8311 30.6695 26.983 31.3171 26.5674 31.6967C23.3329 28.8351 20.7492 25.1609 18.943 21.2752C18.7751 20.9104 18.6792 20.3671 19.0709 20.2107C19.8301 20.4192 20.3815 21.037 20.7252 21.6995C21.0688 22.362 21.2606 23.0841 21.5803 23.754C22.7152 26.1882 25.4086 27.7589 26.5914 30.1781Z" fill="#231E1E"/>
<path d="M4.95695 9.93807C4.52535 10.0274 4.18657 10.1856 3.9228 10.5206C4.5092 10.2738 4.96491 10.0646 5.58029 10.0199C5.42048 9.89338 5.17272 9.89338 4.95695 9.93807Z" fill="#231E1E"/>
<path d="M41.0889 16.5036C41.3127 16.9428 41.5364 17.382 41.7682 17.8137C41.8162 17.9105 41.8961 17.9849 42 18.0221C41.8481 17.4564 41.5284 16.9279 41.0889 16.5036Z" fill="#231E1E"/>
<path d="M27.894 10.0944C27.5104 10.2135 27.0709 10.087 26.7432 9.86366C26.4155 9.6403 26.1758 9.32763 25.936 9.02244C25.6163 8.60557 25.2967 8.19618 24.977 7.77932C25.1048 8.63536 25.6323 9.43183 26.4075 9.90828C26.7112 10.1019 27.0709 10.2656 27.2228 10.5782C27.7901 10.7271 28.3576 10.8834 28.917 11.0398C29.4925 11.1961 30.1798 11.3301 30.6193 10.9579C30.4036 10.876 30.1637 10.9057 29.932 10.9206C29.1249 10.9579 28.3097 10.7494 27.6383 10.3251C27.7662 10.3102 27.8701 10.2061 27.894 10.0944Z" fill="#231E1E"/>
<path d="M23.1628 16.8906C23.3146 16.8832 23.4265 16.7641 23.5224 16.6524C24.7772 15.1413 26.3676 13.8684 28.1578 12.9305C28.3256 12.8412 28.5094 12.7519 28.7092 12.737C28.9011 12.7221 29.1248 12.7965 29.2127 12.9603C29.3965 12.8486 29.3086 12.5508 29.1088 12.4615C28.909 12.3796 28.6693 12.4392 28.4614 12.5136C27.3186 12.9305 26.3356 13.66 25.4165 14.4118C24.5294 15.1339 23.6583 15.9006 23.1628 16.8906Z" fill="#231E1E"/>
<path d="M26.9111 10.4889C25.8561 10.4814 24.969 11.1886 24.2177 11.8809C22.4275 13.5409 20.8211 15.3721 19.4305 17.3448C19.8461 17.1363 20.1258 16.7716 20.4055 16.4143C21.5484 14.985 22.7871 13.6228 24.1138 12.335C24.961 11.5236 25.9919 10.6824 27.2068 10.7271C27.2866 10.5931 27.0709 10.4889 26.9111 10.4889Z" fill="#231E1E"/>
<path d="M27.1834 31.2261C27.1753 30.6901 26.943 30.1856 26.6713 29.7166C25.2967 27.3643 22.7073 25.7341 21.6363 23.2553C21.1887 22.2206 20.973 21.0072 20.0459 20.3075C19.6462 20.0097 18.9996 19.8295 18.656 20.1793C18.3204 20.5143 18.4954 21.0816 18.6952 21.4985C20.3975 25.1833 22.8351 28.5702 25.8481 31.4436C26.1518 31.7414 26.6411 32.0801 26.9687 31.8047C27.1206 31.6707 27.1914 31.4196 27.1834 31.2261ZM26.5914 30.1781C26.8311 30.6695 26.983 31.3171 26.5674 31.6967C23.3329 28.8351 20.7492 25.1609 18.943 21.2752C18.7751 20.9104 18.6792 20.3671 19.0709 20.2107C19.8301 20.4192 20.3815 21.037 20.7252 21.6995C21.0688 22.362 21.2606 23.0841 21.5803 23.754C22.7152 26.1882 25.4086 27.7589 26.5914 30.1781Z" fill="#231E1E"/>
<path d="M41.0889 16.5036C41.3127 16.9428 41.5364 17.382 41.7682 17.8137C41.8162 17.9105 41.8961 17.9849 42 18.0221C41.8481 17.4564 41.5284 16.9279 41.0889 16.5036Z" fill="#231E1E"/>
<path d="M27.894 10.0944C27.5104 10.2135 27.0709 10.087 26.7432 9.86366C26.4155 9.6403 26.1758 9.32763 25.936 9.02244C25.6163 8.60557 25.2967 8.19618 24.977 7.77932C25.1048 8.63536 25.6323 9.43183 26.4075 9.90828C26.7112 10.1019 27.0709 10.2656 27.2228 10.5782C27.7901 10.7271 28.3576 10.8834 28.917 11.0398C29.4925 11.1961 30.1798 11.3301 30.6193 10.9579C30.4036 10.876 30.1637 10.9057 29.932 10.9206C29.121 10.915 28.3487 10.7104 27.6383 10.3251C27.7662 10.3102 27.8701 10.2061 27.894 10.0944Z" fill="#231E1E"/>
<path d="M23.1628 16.8906C23.3146 16.8832 23.4265 16.7641 23.5224 16.6524C24.7772 15.1413 26.3676 13.8684 28.1578 12.9305C28.3256 12.8412 28.5094 12.7519 28.7092 12.737C28.9011 12.7221 29.1248 12.7965 29.2127 12.9603C29.3965 12.8486 29.3086 12.5508 29.1088 12.4615C28.909 12.3796 28.6693 12.4392 28.4614 12.5136C27.3186 12.9305 26.3356 13.66 25.4165 14.4118C24.5294 15.1339 23.6583 15.9006 23.1628 16.8906Z" fill="#231E1E"/>
<path d="M26.9111 10.4889C25.8561 10.4814 24.969 11.1886 24.2177 11.8809C22.4275 13.5409 20.8211 15.3721 19.4305 17.3448C19.8461 17.1363 20.1258 16.7716 20.4055 16.4143C21.5484 14.985 22.8009 13.6339 24.1276 12.346C24.9748 11.5346 25.9919 10.6824 27.2068 10.7271C27.2866 10.5931 27.0709 10.4889 26.9111 10.4889Z" fill="#231E1E"/>
<path d="M27.1834 31.2261C27.1753 30.6901 26.943 30.1856 26.6713 29.7166C25.2967 27.3643 22.7073 25.7341 21.6363 23.2553C21.1887 22.2206 20.973 21.0072 20.0459 20.3075C19.6462 19.9766 18.9582 19.8019 18.656 20.1793C18.3148 20.5143 18.4954 21.0816 18.6952 21.4985C20.3975 25.1833 22.8351 28.5702 25.8481 31.4436C26.1518 31.7414 26.6411 32.0801 26.9687 31.8047C27.1206 31.6707 27.1914 31.4196 27.1834 31.2261ZM26.5914 30.1781C26.8311 30.6695 26.983 31.3171 26.5674 31.6967C23.3329 28.8351 20.7492 25.1609 18.943 21.2752C18.7751 20.9104 18.6792 20.3671 19.0709 20.2107C19.8301 20.4192 20.3815 21.037 20.7252 21.6995C21.0688 22.362 21.2606 23.0841 21.5803 23.754C22.7152 26.1882 25.4086 27.7589 26.5914 30.1781Z" fill="#231E1E"/>
<path d="M31.2259 3.76028C31.3586 3.78061 31.4672 3.81866 31.5815 3.88098C31.9272 4.1019 31.9558 4.47093 31.9869 4.8367C31.853 5.28787 31.6562 5.68942 31.4432 6.06896C31.1791 6.4838 31.0286 6.46246 30.6439 6.69395C30.3134 6.85135 29.7363 6.92286 29.4035 6.92701C28.7456 6.79606 28.5316 6.73668 28.3645 6.17257C28.3235 5.75922 28.3757 5.36001 28.4445 4.96935C28.7777 4.29358 29.3818 4.04126 30.0277 3.88142C30.4366 3.78698 30.887 3.77303 31.2259 3.76028Z" fill="#7A7777"/>
<path d="M39.0362 3.72233C38.5404 3.72304 38.1293 3.64364 37.6562 3.76165C36.1851 4.12858 36.3898 6.41904 37.7444 6.61211C38.3736 6.70179 39.9438 5.98612 39.9438 5.31558C39.9438 4.95886 39.7346 4.47678 39.5815 4.1714C39.4492 3.90729 39.3027 3.83142 39.0362 3.72233Z" fill="#7A7777"/>
<path fill-rule="evenodd" clip-rule="evenodd" d="M12.4027 20.8295L12.9005 19.5999L12.8191 19.5856L12.2855 20.9305L12.3407 20.9711L13.4567 20.0624H13.3437V20.0809L13.3351 20.0703L12.4027 20.8295Z" fill="#231E1E"/>
<path d="M12.8506 20.4867C13.1175 20.2701 13.3767 20.0619 13.3794 20.0593C13.3837 20.055 13.3666 20.0487 13.348 20.015C13.2665 19.868 13.1308 19.77 12.9872 19.6612C12.9523 19.6348 12.8883 19.5911 12.8867 19.5927C12.8846 19.5948 12.3645 20.8796 12.3645 20.8796C12.3645 20.8796 12.5837 20.7032 12.8506 20.4867Z" fill="#231E1E"/>
<path d="M38.0784 41.065C38.9509 40.7532 39.7764 39.9031 40.2791 38.9113C40.7322 38.0172 40.9295 37.1275 40.9256 36.0317C40.9181 33.8883 39.9743 31.8056 37.7302 28.9988C37.4592 28.6598 36.8506 27.8795 36.8371 27.8929C36.8238 27.9063 37.1725 28.5563 37.2369 28.6822C37.3013 28.8082 37.3467 28.9013 37.3467 28.9013C37.3338 28.9142 36.9202 28.4525 36.3837 27.8888C31.7842 23.0321 29.1771 20.6036 26.2186 18.3655C25.7058 17.9775 25.2765 17.647 25.2265 17.6484C24.8125 17.6601 23.5692 18.3468 23.5884 18.5386C23.6002 18.6553 23.7862 18.9298 24.0024 19.2151C24.4613 19.8208 24.6856 20.1597 25.373 21.208C25.9941 22.1551 28.8312 26.6885 29.2593 27.4229C29.9685 28.6396 30.8178 30.2091 30.9581 30.5731C31.2728 31.4371 31.513 31.8572 32.2586 32.7293C33.0253 33.6624 34.5901 35.6765 34.9186 36.164C35.534 37.0771 35.9154 37.9961 36.0056 38.8116C36.0356 39.2589 36.091 39.2157 35.7764 38.537C35.4208 37.6673 34.2264 35.6643 34.1518 35.7388C34.1301 35.7605 34.5515 37.0518 34.8011 37.8108C34.9155 38.0614 34.5037 37.2166 31.7403 32.4836C28.3759 26.5911 27.885 25.7088 26.8311 24.1088C25.2815 21.7565 23.4537 19.5584 22.4929 18.8742C21.8415 18.4101 21.2639 18.2818 20.4143 18.518C20.0212 18.5866 19.5856 18.6413 18.6978 18.6413C17.4014 18.6413 16.9327 18.5628 15.8814 18.2902C15.5957 18.2131 15.1327 18.0921 14.8525 18.0213C13.6216 17.7101 11.6459 16.8763 9.3884 15.7366C8.01123 14.9946 8.10546 14.9945 7.58549 14.9835C7.42136 14.98 7.33148 14.9644 7.26948 15.004C7.22683 15.0312 7.20173 15.0992 7.15705 15.1675C6.97111 15.4727 6.92889 15.4753 7.15703 16.275C7.26362 16.6899 7.56554 17.0107 7.6125 17.0625C7.7451 17.2087 7.87499 17.5875 8.39999 17.85C8.83347 18.0183 9.33039 18.1497 9.97241 18.2976C11.4781 18.6687 12.0594 18.8914 12.6309 19.351C12.7221 19.4057 12.7571 19.459 12.8449 19.537C12.8865 19.5739 12.8708 19.576 12.9081 19.6009C13.0708 19.7093 13.3236 19.8224 13.5954 19.9272C14.2614 20.2454 14.4349 20.3433 14.7254 20.6751C15.0504 21.0463 15.3391 21.4283 15.5631 21.8923C15.6552 22.0828 15.5706 22.1927 15.6955 22.2377C16.2097 22.4233 16.9952 23.553 17.0228 24.2975L16.9755 24.7008L17.0941 24.6562L17.2482 24.6377C17.5078 24.6625 17.6701 24.7697 17.8494 25.079C18.0753 25.5082 17.9609 26.8646 17.635 27.6775C17.5088 27.9922 17.5231 27.899 17.6441 28.1137C17.7133 28.2367 17.7794 28.3123 17.8561 28.4214C17.9549 28.4823 18.5872 29.0564 19.1259 29.6319C20.209 30.7889 20.9438 31.5098 21.7252 32.2014C24.9672 35.0705 29.5379 37.8505 34.6309 40.0848C35.1573 40.3157 35.9111 40.6503 36.2959 40.8311C37.0324 41.2287 37.4954 41.2724 37.9679 41.1036L38.0784 41.065ZM36.4124 35.4827C36.0052 35.2801 35.5961 34.8693 34.3397 33.4457C32.6568 31.5389 31.4003 29.9678 30.4407 28.5364C29.5666 27.2327 28.9389 26.0448 28.4601 24.8244C28.4542 24.8086 28.4485 24.7933 28.4428 24.7783C28.4045 24.6768 28.3724 24.5945 28.3462 24.5275C28.3455 24.5255 28.3447 24.5236 28.3439 24.5216C28.305 24.4218 28.2797 24.3567 28.2671 24.3128C28.2436 24.2305 28.2649 24.2224 28.3252 24.1995L28.3264 24.1991C28.3922 24.1741 28.5738 24.1367 28.7502 24.1362C29.0678 24.1351 29.4038 24.2706 29.6331 24.4689C29.6995 24.5263 29.7569 24.589 29.8024 24.6552C29.8047 24.6595 29.8069 24.6638 29.8091 24.668C29.8214 24.6919 29.8319 24.7139 29.8416 24.7342C29.8639 24.7811 29.882 24.8189 29.9076 24.8493C29.9113 24.8538 29.9153 24.8581 29.9194 24.8623C29.9259 24.8688 29.9327 24.8749 29.9399 24.8809C29.979 24.9133 30.0293 24.9388 30.093 24.9712C30.1254 24.9877 30.1612 25.0059 30.2007 25.0276C30.2027 25.0287 30.2047 25.0298 30.2067 25.0309C30.213 25.035 30.2197 25.0402 30.2272 25.0458C30.2303 25.048 30.2334 25.0502 30.2366 25.0524C30.3767 25.1601 30.7061 25.4886 31.1389 25.9442C31.4803 26.3035 31.8859 26.7418 32.3137 27.2134C32.8893 27.8478 33.505 28.5423 34.0584 29.1852C35.1002 30.3955 36.5011 32.149 37.2398 33.1501C37.4878 33.4862 37.6611 33.7375 37.7212 33.855C37.905 34.2147 37.9759 34.6166 37.879 34.9492C37.6554 35.5938 37.0819 35.8157 36.4124 35.4827ZM26.2999 31.7889C26.1732 31.7252 25.7605 31.3643 25.3591 30.9703C22.7963 28.4539 20.5994 25.4087 19.0513 22.2436C18.507 21.1307 18.4677 20.9883 18.4644 20.5962C18.5133 20.3492 18.5385 20.3067 18.6851 20.1549C18.8327 20.0021 18.8851 20.0169 19.1265 19.9838C19.6353 20.0114 19.8722 20.1236 20.2993 20.5334C20.719 20.9553 20.9244 21.334 21.318 22.4183C21.948 24.1537 22.331 24.7464 24.4669 26.9843C25.5422 28.1366 25.9808 28.6533 26.3785 29.2504C27.0835 30.3089 27.3244 31.0922 27.1 31.6282C26.9284 31.9329 26.6983 31.9893 26.2999 31.7889Z" fill="#C24440"/>
<path d="M23.986 10.5559C22.4595 11.2779 21.3326 12.5434 20.2936 13.8163C19.3106 15.0148 18.3755 16.2431 17.4884 17.5086C17.4005 17.6426 17.3126 17.8138 17.4085 17.9403C18.4795 16.5929 19.5423 15.2455 20.6133 13.8982C21.2048 13.1538 21.8373 12.4213 22.5806 11.796C23.3238 11.1782 24.1937 10.6675 25.1848 10.5559C24.897 10.2582 24.3695 10.3772 23.986 10.5559Z" fill="#231E1E"/>
<path d="M17.4635 27.7834C17.2438 27.387 16.863 26.6657 16.7857 26.4996C16.5955 26.0909 16.514 25.791 16.5129 25.4957C16.5124 25.3599 16.5186 25.3139 16.5485 25.2188C16.6252 24.9773 16.8291 24.8223 17.2152 24.7121C17.2624 24.6986 17.3073 24.6857 17.3148 24.6835C17.3274 24.6799 17.3285 24.6891 17.3283 24.8029C17.3281 24.9453 17.343 25.4283 17.3495 25.4918C17.3537 25.5307 17.3544 25.5329 17.3621 25.5152C17.3974 25.4321 17.4553 25.317 17.5107 25.2203C17.5468 25.1573 17.5935 25.0681 17.6145 25.0222L17.6528 24.9387L17.6592 24.9676C17.6627 24.9835 17.6757 25.0579 17.6882 25.133C17.8459 26.0768 17.8028 27.0566 17.5698 27.8201C17.5567 27.863 17.5433 27.9009 17.5401 27.9043C17.5366 27.9078 17.5022 27.8534 17.4635 27.7834Z" fill="#F5F2E2"/>
<path d="M15.901 26.3076C15.6945 26.252 15.5454 26.1423 15.3788 26.0596C15.2384 25.9037 14.9867 25.2927 14.8429 24.7586C14.7727 24.4982 14.7522 24.3331 14.76 24.0917C14.7684 23.8352 14.8099 23.6234 14.895 23.4032C15.0613 22.9729 15.3578 22.6729 15.7359 22.5523C15.7775 22.5391 15.8264 22.5258 15.8444 22.523L15.8771 22.5177L15.8722 22.5637C15.8609 22.6683 15.8573 23.0729 15.8665 23.1989C15.8955 23.5964 15.9665 23.9429 16.0951 24.314C16.14 24.4438 16.1958 24.5814 16.2012 24.576C16.2033 24.574 16.2076 24.408 16.2116 24.2072C16.218 23.86 16.2409 22.8718 16.2445 22.7893L16.2459 22.7505L16.3016 22.8031C16.3921 22.8883 16.4743 23.019 16.5628 23.2181C16.6997 23.5264 16.8306 23.9477 16.9134 24.347C16.9372 24.4617 16.9687 24.6507 16.9687 24.6788C16.9687 24.6893 16.9474 24.7061 16.8968 24.7359C16.8073 24.7884 16.6859 24.9025 16.6177 24.9981C16.4853 25.1839 16.3947 25.4475 16.3664 25.7293C16.3571 25.8224 16.3601 26.1797 16.3707 26.2138C16.3749 26.2277 16.3686 26.2333 16.3224 26.2543C16.2319 26.2957 16.1621 26.3115 16.0542 26.315C15.991 26.3171 15.9373 26.3145 15.901 26.3076Z" fill="#F5F2E2"/>
<path d="M14.1128 23.6279C13.8041 23.5841 13.5106 23.4304 13.2761 23.1897C13.07 22.9782 12.9497 22.7407 12.9208 22.4889C12.8877 22.1998 13.0264 21.8026 13.3022 21.3969C13.5174 21.0802 13.8227 20.7577 14.1362 20.5158C14.2234 20.4486 14.3636 20.3517 14.3739 20.3517C14.4001 20.3517 14.3944 20.3785 14.3226 20.5936C14.1285 21.1756 14.0674 21.4709 14.0499 21.9124L14.0449 22.0326L14.0598 22.0092C14.0679 21.9963 14.1008 21.9419 14.1327 21.8884C14.2318 21.7221 14.315 21.61 14.5932 21.2681C14.677 21.1651 14.7682 21.0503 14.7958 21.013C14.8234 20.9757 14.8493 20.9473 14.8533 20.9498C14.8695 20.9598 14.9542 21.1493 14.9869 21.2487C15.1496 21.7428 15.1233 22.3858 14.9177 22.9374C14.8806 23.037 14.7933 23.2186 14.7411 23.3048C14.6925 23.3851 14.6027 23.5066 14.5496 23.5639C14.5153 23.6009 14.5056 23.6067 14.4603 23.6169C14.4002 23.6304 14.1796 23.6373 14.1128 23.6279Z" fill="#A0A0A0"/>
<path d="M12.1943 21.9815C11.9248 21.9485 11.7261 21.8559 11.6185 21.713C11.5716 21.6509 11.5624 21.6317 11.4995 21.4653C11.3146 20.9764 11.2821 20.8503 11.2745 20.5924L11.2703 20.4391L11.3232 20.3584C11.6573 19.8492 12.0525 19.6276 12.6654 19.6055C12.7417 19.6027 12.8041 19.6032 12.8041 19.6065C12.6738 20.102 12.4965 20.4524 12.3428 20.9758C12.6856 20.6925 13.0349 20.4145 13.3827 20.1391C13.3933 20.1514 13.4223 20.2337 13.4425 20.3089C13.462 20.381 13.4635 20.3985 13.4638 20.5428C13.4639 20.687 13.4623 20.7059 13.4419 20.7923C13.4298 20.8437 13.4079 20.9192 13.3933 20.96C13.3294 21.1385 13.1972 21.3648 13.0495 21.549C12.9723 21.6452 12.7522 21.8681 12.665 21.9384L12.6078 21.9845L12.4305 21.9866C12.333 21.9878 12.2266 21.9855 12.1943 21.9815Z" fill="#F5F2E2"/>
<path d="M14.0386 23.6111C13.4133 23.4808 12.8985 22.9038 12.9232 22.3608C12.9473 21.8302 13.425 21.092 14.0895 20.5585C14.1849 20.4819 14.3597 20.3595 14.3736 20.3595C14.391 20.3595 14.3807 20.4024 14.3079 20.6257C14.1278 21.1801 14.0656 21.4762 14.0503 21.8518C14.0482 21.9126 14.044 21.9794 14.0419 22.0001C14.0397 22.0234 14.04 22.0355 14.0449 22.0326C14.0492 22.03 14.0854 21.975 14.1249 21.9097C14.237 21.7246 14.2914 21.6505 14.5699 21.3033C14.6542 21.1982 14.7503 21.078 14.7835 21.0362C14.8167 20.9943 14.8475 20.9601 14.852 20.9601C14.8612 20.9601 14.9132 21.0685 14.9558 21.1766C15.0423 21.3963 15.0855 21.6559 15.0856 21.9568C15.0858 22.3862 14.9997 22.7741 14.8241 23.134C14.7212 23.345 14.5667 23.5652 14.498 23.5988C14.4336 23.6304 14.1656 23.6375 14.0386 23.6111Z" fill="#F5F2E2"/>
<path d="M23.4669 39.5983L22.6845 39.5667L21.835 39.1611C20.4478 38.4987 19.1393 37.5153 18.0339 36.3681C17.6347 35.9537 17.2423 35.5086 17.0237 35.2302C16.894 35.0651 16.8255 34.9586 16.853 34.9522C16.9595 34.9274 17.3932 35.3511 17.6733 35.6028C18.7428 36.5636 20.1606 37.6183 21.3425 38.34C22.0314 38.7607 23.2863 39.3895 23.2863 39.3895C23.2863 39.3895 22.8088 39.1005 22.2341 38.725C21.0614 37.9588 19.5943 36.8698 18.5649 36.0128C18.1541 35.6708 17.3172 34.9304 16.5663 34.2161C15.7067 33.3982 14.9521 32.618 14.9469 32.5677C14.9427 32.528 15.6669 33.1145 15.6669 33.1145C15.6409 33.058 12.9586 30.2327 10.1444 27.214C8.58658 25.5742 7.70028 24.6775 5.35002 22.588C2.33015 19.9033 1.12925 18.1513 0.565541 15.9705C0.333266 15.0719 0.332525 13.8766 0.537392 13.1968C0.953676 11.6888 1.83996 10.5075 3.05795 9.86854C3.29258 9.74546 3.85666 9.50229 3.76185 9.57647C3.74933 9.58627 3.38262 10.0105 3.158 10.3194C2.38194 11.3866 1.83731 12.8025 1.72476 13.8701L1.6802 14.2928L1.89296 13.5896L2.27161 12.3573L2.20406 13.3032C2.17782 13.6703 2.49687 14.4641 2.50769 14.5752C2.50769 14.5752 2.50132 14.4693 2.47918 14.1495C2.40018 12.9991 2.66478 11.9013 3.32616 11.4469C3.47407 11.3453 3.81199 11.1765 3.83167 11.1962C3.85133 11.2158 3.63013 11.5496 3.52236 11.7627C3.21432 12.4375 3.05319 13.002 3.0483 13.904C3.04547 14.3883 3.12675 14.7915 3.12675 14.7915C3.12675 14.7915 3.12731 14.6118 3.15386 14.1355C3.2185 12.9768 3.51054 12.1767 4.08643 11.6005C4.75668 10.9299 5.79666 10.7532 6.43462 11.2009C6.85174 11.4937 7.12297 11.8395 7.08613 12.2397L7.05886 12.536L7.44333 12.4006C7.67406 12.3194 7.8052 12.2806 7.77531 12.2292C7.72834 12.1484 6.9987 11.3218 6.62713 11.1536C5.51949 10.6522 4.3822 10.5002 3.49162 11.0288L3.04682 11.2928L3.07749 11.0078C3.16184 10.489 3.71913 9.81687 4.35223 9.63014C4.95195 9.45326 5.52459 9.53982 5.82939 9.69772C5.94434 9.75726 6.03863 9.80573 6.03863 9.80573C6.03863 9.80573 5.56161 9.53674 5.16132 9.44254C4.31329 9.24299 3.29091 9.3897 2.49841 9.80555C2.28571 9.91716 1.92022 10.1703 1.70532 10.3824C1.49042 10.5945 1.1036 11.2901 1.1036 11.2657C1.1036 11.1439 1.08988 10.6033 1.94815 9.75805C2.36085 9.35156 3.02772 9.03699 3.68131 8.8498C4.09576 8.7311 4.37916 8.67657 5.10856 8.6786C6.13126 8.68142 6.55975 8.78339 8.37894 9.26245C10.4932 9.81921 11.5975 10.0261 13.2708 10.1688C14.8458 10.3032 15.6729 10.109 16.8014 9.34493C17.4039 8.93697 18.1639 8.2468 18.415 7.85911C18.8963 7.11585 21.1518 4.65566 21.1463 4.8045C21.1458 4.8184 20.7511 5.47156 20.7016 5.60883C20.5981 5.8957 20.5894 5.97041 20.6145 5.94887C20.6382 5.92862 20.8936 5.547 21.2377 5.13517C22.0084 4.21291 22.9391 3.31261 23.6011 2.81512C23.8762 2.6084 24.3894 2.26978 24.7821 2.07609C25.2107 1.86468 25.8635 1.49551 26.3193 1.1625L27.0949 0.595887L28.026 0.666323C28.5424 0.705384 29.3522 0.777681 29.8186 0.818836L30.8351 0.908528L29.9262 1.32789C28.4808 1.99479 27.6727 2.74841 26.5295 3.74508C25.4121 4.7192 24.4894 6.02687 24.4011 6.49671C24.3441 6.80013 24.5062 7.01396 24.8091 7.39224C25.0112 7.64482 24.9909 7.75365 25.0017 7.94137C25.093 8.28933 25.3893 8.95963 25.7223 9.33349C25.8729 9.50265 26.1978 9.79646 26.4956 9.95043C26.9344 10.1773 27.2141 10.4902 27.1959 10.5541C27.187 10.5855 27.0005 10.4828 26.9082 10.4833C26.2907 10.4862 25.4537 10.8456 24.7167 11.4457C24.1735 11.888 22.7807 13.2636 22.0182 14.111C21.2435 14.972 20.1387 16.3769 19.6748 17.0096C19.5219 17.2181 19.449 17.3001 19.4828 17.2982C19.6308 17.29 19.9693 16.9437 20.66 16.1007C22.1564 14.2746 24.1015 12.267 24.9608 11.5857C25.6593 11.032 26.4621 10.7254 26.9961 10.7254C27.1245 10.7254 27.2317 10.7368 27.2268 10.7001C27.2212 10.6547 27.0736 10.5065 27.1951 10.5536C27.3359 10.6081 27.8414 10.749 28.3314 10.8795C29.4912 11.1884 30.0794 11.2653 30.4191 11.0899C30.7395 10.9246 30.5773 10.9127 29.908 10.915C29.1324 10.9176 28.6133 10.8633 28.1091 10.5671L27.6383 10.3251L27.848 10.207L27.894 10.0944L27.8541 10.0199L30.066 10.2328C33.0496 10.5199 32.6845 10.4153 32.9887 10.8745C33.3426 11.4086 33.3655 11.6593 33.3648 12.4542C33.3643 13.0638 33.3428 13.2478 33.222 13.5209C33.1439 13.6976 33.0782 13.8675 32.9452 13.9924C32.8621 14.0705 32.7518 14.1712 32.7802 14.1719C32.9432 14.1761 33.0798 14.1341 33.3023 14.0353L33.5604 13.6451L33.5134 14.1467C33.3258 15.0127 32.4079 15.9255 31.2062 16.3C30.4425 16.538 29.6156 16.6891 24.6644 17.1955C19.6696 17.7064 19.2675 17.6743 19.3947 17.7209C19.4334 17.7351 19.7968 17.7925 20.2395 17.872C21.0002 18.0087 21.4894 18.028 21.2531 18.0805C21.1155 18.1111 19.8154 18.2546 18.9043 18.2545C17.5852 18.2544 17.079 18.1453 16.5295 18.0661C15.4956 17.9172 14.4138 17.6752 13.5443 17.3022L12.1258 16.6972L13.3505 16.9134C13.4225 16.9261 14.2918 16.794 13.8088 16.7534C13.0437 16.6892 12.4103 16.4542 11.097 15.7192C10.0498 15.1331 9.24237 14.8268 8.4601 14.6685C7.75591 14.5261 6.66853 14.4553 6.41276 14.5194C6.24753 14.5608 6.29154 14.5087 6.3206 14.9136C6.37888 15.4502 6.60463 16.1389 6.86346 16.5649C7.10625 16.9645 8.62016 18.7815 12.6968 23.675C14.2146 25.4969 15.9251 27.5648 16.4884 28.2512C17.433 29.4023 18.3145 30.2854 19.6921 31.5439C22.1072 33.7501 24.9722 35.3988 28.9455 37.5953L30.2372 38.3093L30.1615 38.3641L29.8019 38.6246C29.5932 38.7759 29.3643 38.906 29.1262 39.0164C28.7321 39.199 28.3129 39.3273 27.9185 39.4068C27.8974 39.4111 27.8756 39.4161 27.8533 39.4218C27.7473 39.4486 27.6307 39.4891 27.5253 39.5258C27.3647 39.5816 27.2303 39.6284 27.1994 39.6036C27.1977 39.6022 27.1961 39.6008 27.1945 39.5994C27.1914 39.5966 27.1885 39.5936 27.1858 39.5904C27.1381 39.535 27.1541 39.4307 27.2857 39.311C27.3822 39.2233 27.584 39.1833 27.6626 39.1763C27.8816 39.157 28.1862 39.0669 28.1711 39.0078C28.1699 39.0032 28.1661 38.9987 28.1599 38.9942C28.143 38.9819 28.1083 38.9701 28.0615 38.9597C27.8713 38.9175 27.4804 38.8992 27.2653 38.9714C27.1638 39.0055 26.9761 39.0773 26.8296 39.1864C26.816 39.1965 26.8027 39.2069 26.7899 39.2177L26.7862 39.2209C26.7448 39.2565 26.7135 39.2958 26.6847 39.3321C26.6536 39.3713 26.6252 39.4069 26.5899 39.4307C26.5855 39.4337 26.5809 39.4365 26.5762 39.4391C26.555 39.4508 26.5328 39.4599 26.5101 39.467C26.4524 39.4851 26.3912 39.4909 26.334 39.4963C26.3045 39.499 26.2759 39.5018 26.2496 39.506C26.2456 39.5066 26.2415 39.5073 26.2376 39.508C26.233 39.5089 26.2285 39.5098 26.224 39.5108C25.6809 39.6301 24.9357 39.614 24.2987 39.6002C23.982 39.5933 23.692 39.587 23.4669 39.5983ZM19.4204 15.389C19.4204 15.389 21.4468 12.8141 21.8051 12.4779C22.9096 11.4415 23.7381 10.8197 25.0078 10.5764C25.2515 10.5297 25.1913 10.5438 24.9314 10.4111C24.8838 10.3868 24.8406 10.3918 24.7948 10.3876C24.7428 10.3829 24.6866 10.371 24.602 10.3767C24.3653 10.3929 24.0488 10.5094 23.6558 10.7246C22.4007 11.4116 21.2664 12.5279 19.2938 15.0665C18.4471 16.2046 17.4729 17.4882 17.3898 17.6798C17.3485 17.7749 17.365 17.9189 17.4334 17.9275C17.437 17.8521 18.3249 16.7785 19.3696 15.4591L19.4204 15.389ZM24.0784 16.0179C25.2724 14.6984 26.6879 13.7405 28.0755 12.9731C28.595 12.6858 28.9064 12.6682 29.1355 12.8752C29.2665 12.9936 29.25 12.9687 29.3141 12.7517C29.335 12.6812 29.29 12.6618 29.2652 12.6033C29.2089 12.4699 28.9805 12.4128 28.7349 12.4322C28.3768 12.4604 27.3443 13.012 26.7451 13.4156C25.9788 13.9317 24.7956 14.9031 24.208 15.5059C23.7306 15.9957 23.2522 16.743 23.1637 16.8721C23.1162 16.9414 23.3388 16.8353 24.0784 16.0179ZM4.40044 10.3058C4.40044 10.3058 5.11747 10.039 5.43468 10.0259C5.58029 10.0199 5.61166 10.0067 5.4856 9.9641C5.10638 9.83596 4.57843 9.96826 4.07241 10.3683C4.04455 10.3903 3.72866 10.6411 4.22914 10.3913L4.40044 10.3058Z" fill="#F5F2E2"/>
<path d="M27.4725 10.1331C27.0666 10.0887 26.692 9.88283 26.3529 9.51775C26.2059 9.35944 26.0979 9.22612 25.7174 8.73297C25.5793 8.55399 25.3608 8.27106 25.2319 8.10422L24.9976 7.80088L24.9927 7.76227C24.987 7.7141 24.9709 7.65443 24.9526 7.61302C24.9449 7.59559 24.9406 7.57921 24.9406 7.57921C24.942 7.57801 24.9598 7.60014 24.9807 7.62831C25.2061 7.93248 25.4947 8.29692 25.6566 8.48202C26.0913 8.9789 26.4205 9.24121 27.0449 9.58815C27.1726 9.65911 27.2943 9.72484 27.7201 9.9529L27.852 10.0235L27.8901 10.0919L27.8607 10.1006C27.7885 10.1221 27.7108 10.1321 27.6021 10.1338C27.5428 10.1347 27.4847 10.1344 27.4725 10.1331Z" fill="#EFE9CE"/>
<path d="M23.1056 25.9436C22.4272 25.1837 21.9766 24.549 21.6507 23.8947C21.5 23.5922 21.4117 23.3817 21.2012 22.824C21.1239 22.6192 21.0709 22.4805 21.0509 22.4303C21.0445 22.4147 21.0396 22.4006 21.0396 22.4006C21.0396 22.4006 21.1002 22.3993 21.1743 22.3994L21.309 22.3994L21.3445 22.4979C21.5539 23.0778 21.6451 23.2966 21.8371 23.6798C21.9128 23.8308 21.9592 23.9179 22.0324 24.0457C22.3421 24.5868 22.7643 25.1385 23.4417 25.8875C23.4889 25.9397 23.5317 25.9872 23.5367 25.993L23.5459 26.0036H23.3525H23.1591L23.1056 25.9436Z" fill="#A0A0A0"/>
<path d="M21.1826 25.916C20.5087 24.9154 19.8686 23.8351 19.3108 22.7564C19.2467 22.6325 19.1428 22.4277 19.1362 22.4124L19.1306 22.3993H19.4885L19.5199 22.4607C20.1156 23.6261 20.793 24.7801 21.5193 25.8664L21.611 26.0036H21.2415L21.1826 25.916Z" fill="white"/>
<path d="M23.1389 25.9781C22.9925 25.8172 22.7695 25.5557 22.6193 25.3689C22.0846 24.7035 21.7257 24.114 21.4424 23.4362C21.3821 23.292 21.3227 23.1397 21.1841 22.7743C21.1332 22.6401 21.0804 22.5019 21.0669 22.4671C21.0534 22.4324 21.043 22.4033 21.043 22.4033C21.043 22.4033 21.1029 22.4017 21.1752 22.4005L21.3066 22.3985L21.3094 22.4064C21.3108 22.4108 21.3424 22.4963 21.3788 22.5964C21.5354 23.0266 21.62 23.2345 21.7478 23.5023C21.7949 23.6008 21.9115 23.831 21.9525 23.9061C22.2817 24.5099 22.6895 25.0543 23.4233 25.8697C23.482 25.9349 23.5329 25.9916 23.5364 25.9958L23.5428 26.0035L23.3525 26.0036L23.1617 26.0035L23.1389 25.9781Z" fill="#231E1E"/>
<path d="M21.1648 25.8842C20.4923 24.8787 19.9047 23.8887 19.3542 22.8336C19.2949 22.7199 19.1664 22.4674 19.1664 22.4645C19.1664 22.4645 19.2456 22.463 19.3424 22.4634L19.5184 22.4641L19.5552 22.5358C20.1349 23.6641 20.7999 24.7939 21.5098 25.8567L21.606 26.0008L21.2427 26.0006L21.1648 25.8842Z" fill="#231E1E"/>
<path d="M17.4016 17.8835C17.3935 17.8754 17.3869 17.8325 17.3869 17.7882C17.3869 17.6524 17.5031 17.4838 18.7075 15.8717C20.9405 12.883 22.2632 11.5087 23.637 10.7502C24.1062 10.4911 24.3948 10.3941 24.6931 10.3952C24.8465 10.3957 24.8954 10.4055 24.9993 10.4564C25.0672 10.4896 25.1229 10.5224 25.1229 10.5292C25.1229 10.5359 25.016 10.5643 24.8853 10.5923C24.2788 10.7221 23.6577 10.9937 23.1226 11.3632C22.7424 11.6256 22.1801 12.0985 21.8058 12.4704C21.5065 12.768 20.6564 13.8028 19.3768 15.4275C19.1523 15.7125 18.6934 16.2895 18.357 16.7097C18.0206 17.1299 17.6735 17.5692 17.5856 17.6859C17.4976 17.8027 17.4236 17.8982 17.421 17.8982C17.4182 17.8982 17.4096 17.8916 17.4016 17.8835Z" fill="#A0A0A0"/>
<path d="M19.5087 17.2669C19.5087 17.2337 20.1493 16.3929 20.6916 15.7141C21.6297 14.5401 22.096 14.0156 23.1111 12.9927C23.8858 12.212 24.4564 11.6691 24.7436 11.4394C25.387 10.925 26.1107 10.5821 26.7049 10.51C26.9653 10.4784 27.1072 10.5135 27.1738 10.6262L27.2175 10.7001L26.9853 10.7151C26.35 10.756 25.7138 11.0154 25.0583 11.5004C24.2245 12.1175 22.3482 14.064 20.7946 15.9237C20.1944 16.6421 19.8958 16.9817 19.7456 17.1165C19.6351 17.2156 19.5087 17.2959 19.5087 17.2669Z" fill="#A0A0A0"/>
<path d="M23.1999 16.8521C23.1999 16.794 23.794 15.9902 24.0711 15.6732C24.5286 15.15 25.8139 14.069 26.7032 13.4596C27.2222 13.1039 28.0896 12.6402 28.4862 12.5063C28.8308 12.39 29.1665 12.443 29.2666 12.6297C29.3059 12.7031 29.3075 12.7214 29.2819 12.8166C29.2664 12.8747 29.2497 12.9261 29.2449 12.9309C29.2399 12.9357 29.1967 12.9086 29.1486 12.8706C29.0214 12.77 28.9225 12.7359 28.7588 12.7359C28.505 12.7359 28.23 12.8575 27.4879 13.298C26.0919 14.1268 25.0746 14.9366 24.0233 16.0562C23.5626 16.5468 23.1999 16.8974 23.1999 16.8521Z" fill="#A0A0A0"/>
<path d="M29.5197 11.137C29.0983 11.0687 28.0714 10.8132 27.4658 10.626C27.2195 10.5499 27.2097 10.5444 27.1525 10.4518C27.0792 10.333 26.793 10.1047 26.5404 9.96354C26.1442 9.74215 25.7579 9.40043 25.5466 9.08442C25.3238 8.75128 24.9983 8.02287 25.0166 7.89859C25.0215 7.8645 25.167 8.03804 25.5728 8.5624C26.2184 9.39661 26.4086 9.61684 26.6289 9.78529C26.8091 9.92305 27.1028 10.0684 27.2875 10.1112C27.4145 10.1406 27.7377 10.1475 27.8167 10.1225C27.9087 10.0933 27.8659 10.1772 27.7531 10.2472C27.6923 10.2849 27.6426 10.3217 27.6427 10.329C27.6429 10.3555 28.4532 10.7494 28.5931 10.791C28.8873 10.8786 29.1764 10.9087 29.8676 10.9235C30.2343 10.9314 30.5416 10.9451 30.5504 10.9539C30.5784 10.9819 30.5194 11.0295 30.3775 11.0937C30.2545 11.1492 30.211 11.1566 29.9744 11.1619C29.8226 11.1652 29.6282 11.1546 29.5197 11.137Z" fill="#231E1E"/>
<path d="M23.3678 16.6131C23.9519 15.7783 24.307 15.3961 25.2002 14.6408C26.3007 13.7102 27.0744 13.1843 28.0045 12.7346C28.4721 12.5085 28.6031 12.4652 28.8251 12.4627C29.1647 12.459 29.3448 12.6243 29.2558 12.8581L29.2333 12.9171L29.1562 12.8584C29.1139 12.8262 29.0447 12.7854 29.0026 12.7678C28.888 12.7201 28.6188 12.7268 28.4541 12.7816C28.0996 12.8996 27.0216 13.5378 26.2323 14.0971C25.4705 14.6368 24.9103 15.1307 23.9763 16.0859C23.595 16.476 23.2734 16.7951 23.2617 16.7951C23.25 16.7951 23.2977 16.7132 23.3678 16.6131Z" fill="#231E1E"/>
<path d="M19.575 17.1988C19.575 17.146 21.0291 15.2984 21.5461 14.6944C22.3669 13.7353 24.1405 11.941 24.7582 11.4448C25.3139 10.9983 26.0495 10.6359 26.5915 10.5416C26.9105 10.4861 27.0442 10.5041 27.1444 10.6163C27.1813 10.6576 27.1829 10.6678 27.1554 10.6852C27.1377 10.6964 27.0734 10.7058 27.0126 10.706C26.8388 10.7067 26.5129 10.7664 26.2777 10.8406C25.8129 10.9874 25.2629 11.3049 24.7871 11.7012C23.8672 12.4674 22.284 14.1382 20.7039 16.0104C20.0984 16.7278 19.8123 17.0479 19.69 17.1446C19.6011 17.2149 19.575 17.2272 19.575 17.1988Z" fill="#231E1E"/>
<path d="M17.41 17.7976C17.4086 17.6468 17.5479 17.4432 18.7477 15.8465C20.6239 13.3498 21.7178 12.1304 22.8441 11.2805C23.2902 10.9439 23.9249 10.5885 24.283 10.4749C24.5392 10.3936 24.8197 10.3872 24.9776 10.4591C25.0403 10.4876 25.0778 10.5166 25.066 10.5272C25.0548 10.5375 24.946 10.5683 24.8245 10.5957C24.1127 10.7565 23.388 11.1189 22.7247 11.6456C21.9435 12.266 21.5743 12.6585 20.4225 14.0926C19.9162 14.723 17.8954 17.2686 17.4708 17.8109L17.411 17.8872L17.41 17.7976Z" fill="#231E1E"/>
<path d="M3.97596 10.4628C4.05108 10.3695 4.32164 10.1855 4.5316 10.085C4.89341 9.91172 5.28275 9.87228 5.52117 9.98471L5.56488 10.0053L5.53751 10.0113C5.52244 10.0146 5.46512 10.0211 5.41007 10.0258C5.14454 10.0482 4.55637 10.2241 4.2706 10.3664C4.10707 10.4479 3.99825 10.4945 3.97132 10.4945H3.95038L3.97596 10.4628Z" fill="#231E1E"/>
<path d="M35.5525 15.919C35.5397 15.9159 35.4763 15.9049 35.4119 15.8944C34.8124 15.7972 34.301 15.3362 34.0623 14.6779C33.8803 14.176 33.8649 13.5378 34.021 12.9647L34.0564 12.8345L34.322 13.4528C34.468 13.7929 34.5901 14.0685 34.5933 14.0653C34.5961 14.0622 34.5825 14.0108 34.5622 13.9512C34.4657 13.6681 34.4515 13.5719 34.4516 13.2041C34.4518 12.9108 34.4566 12.8394 34.4852 12.7127C34.7205 11.6671 35.4831 10.8069 36.459 10.4863C36.8399 10.3612 36.9436 10.3517 37.6312 10.3789C38.1254 10.3984 38.3946 10.3631 38.6514 10.2449C38.7425 10.203 38.7726 10.1784 38.8439 10.0874C38.8904 10.0281 38.9285 9.98954 38.9285 10.0017C38.9285 10.0139 38.9144 10.1743 38.8972 10.3582C38.7249 12.2006 38.3506 13.4775 37.7044 14.4268L37.5942 14.5887L37.5652 14.5516C37.373 14.3055 37.1469 14.157 36.8701 14.0951C36.7275 14.0631 36.6873 14.0626 36.6989 14.0928C36.7039 14.1054 36.812 14.2545 36.9394 14.4243C37.0668 14.594 37.1971 14.7688 37.229 14.8126L37.2868 14.8923L37.2634 14.9842C37.1517 15.4229 36.7395 15.7609 36.1621 15.8871C36.056 15.9103 35.6132 15.9335 35.5525 15.919ZM38.2251 13.3581C38.2251 13.3528 38.2023 13.3018 38.1746 13.245C38.0699 13.0309 37.8141 12.8317 37.5609 12.767C37.503 12.7523 37.4294 12.7442 37.3562 12.7428C37.3196 12.7421 37.2832 12.7431 37.2489 12.7457C37.2025 12.7493 37.16 12.756 37.1264 12.7658C37.0449 12.7894 36.913 12.8729 36.902 12.9077C36.902 12.9077 36.903 12.909 36.9053 12.9103C36.9163 12.9163 36.9548 12.9317 37.0119 12.9533C37.3188 13.0693 38.1648 13.3651 38.2056 13.367C38.2076 13.3671 38.2112 13.3668 38.2112 13.3668C38.2139 13.3666 38.2163 13.366 38.2183 13.3652C38.2225 13.3636 38.2251 13.3611 38.2251 13.3581Z" fill="#F5F2E2"/>
<path fill-rule="evenodd" clip-rule="evenodd" d="M17.0237 35.2302C17.2423 35.5086 17.6347 35.9537 18.0339 36.3681C19.1393 37.5153 20.4478 38.4987 21.835 39.1611L22.6845 39.5667L23.4669 39.5983C23.692 39.587 23.982 39.5933 24.2987 39.6002C24.9357 39.614 25.6809 39.6301 26.224 39.5108L26.2376 39.508C25.9485 39.5572 25.6503 39.5685 25.3566 39.5797L25.3526 39.5799C24.6093 39.5948 23.8661 39.5948 23.1228 39.5799C22.7073 39.565 22.3156 39.3938 21.94 39.2077C20.0938 38.2921 18.4714 36.9968 17.2167 35.4336C17.1604 35.3637 17.0956 35.2905 17.0237 35.2302ZM26.2496 39.506C26.3406 39.4901 26.4307 39.4705 26.5194 39.4459C26.5164 39.453 26.5133 39.46 26.5101 39.467C26.4524 39.4851 26.3912 39.4909 26.334 39.4963C26.3045 39.499 26.2759 39.5018 26.2496 39.506Z" fill="#F8D7BE"/>
<path fill-rule="evenodd" clip-rule="evenodd" d="M28.2566 24.2836C28.2697 24.3443 28.3232 24.5136 28.3867 24.6789C28.8764 25.9537 29.5213 27.1781 30.4407 28.5364C31.8897 30.7238 33.6908 32.7398 35.4706 34.7189C35.966 35.2698 36.7173 35.8728 37.3966 35.5453C37.8282 35.3443 37.988 34.8306 37.9081 34.3839C37.8495 33.9739 37.5867 33.6157 37.3309 33.2669L37.2767 33.1929L37.1676 33.0476C36.6127 32.2628 35.7235 31.0751 34.899 30.0826C33.2725 28.1351 31.6347 26.3577 29.8245 24.5561C29.5066 24.245 28.8673 24.0448 28.4333 24.1412C28.333 24.1635 28.2868 24.1893 28.267 24.2178L28.2539 24.2233L28.2377 24.2304L28.2566 24.2836ZM29.9161 24.8706C29.9133 24.8634 29.9105 24.8563 29.9076 24.8493C29.882 24.8189 29.8639 24.7811 29.8416 24.7342C29.8319 24.7139 29.8214 24.6919 29.8091 24.668C29.7592 24.5952 29.6998 24.5286 29.6331 24.4689C29.4038 24.2706 29.0678 24.1351 28.7502 24.1362C28.5738 24.1367 28.3922 24.1741 28.3264 24.1991L28.3252 24.1995C28.2649 24.2224 28.2436 24.2305 28.2671 24.3128C28.2923 24.3826 28.3179 24.4522 28.3439 24.5216L28.3462 24.5275C28.3724 24.5945 28.4045 24.6768 28.4428 24.7783C28.9633 26.0967 29.6495 27.3421 30.4407 28.5364C31.4566 30.0376 32.8077 31.7023 34.6547 33.7794C35.4314 34.6529 35.9294 35.1556 36.2012 35.3404C36.3575 35.4467 36.5611 35.5433 36.7245 35.5888C36.8059 35.6114 36.9102 35.6198 37.0401 35.6143C37.2029 35.6074 37.2567 35.5949 37.3754 35.5366C37.6369 35.4081 37.8413 35.1185 37.8973 34.7974C37.9446 34.5259 37.859 34.132 37.6854 33.8221C37.6195 33.7045 37.461 33.4655 37.2398 33.1501C36.5011 32.149 35.1002 30.3955 34.0584 29.1852C33.505 28.5423 32.8893 27.8478 32.3137 27.2134C32.0182 26.8916 31.7198 26.5722 31.4186 26.2552C31.3286 26.1604 31.2355 26.0545 31.1389 25.9442C30.7061 25.4886 30.3767 25.1601 30.2366 25.0524C30.2334 25.0502 30.2303 25.048 30.2272 25.0458C30.2184 25.0397 30.2096 25.0336 30.2007 25.0276C30.1612 25.0059 30.1254 24.9877 30.093 24.9712C30.0293 24.9388 29.979 24.9133 29.9399 24.8809C29.932 24.8774 29.924 24.8739 29.9161 24.8706ZM28.8602 24.4532L29.1078 24.5519C29.0252 24.5189 28.9426 24.486 28.8602 24.4532Z" fill="#F8D7BE"/>
<path fill-rule="evenodd" clip-rule="evenodd" d="M26.5899 39.4307C26.6252 39.4069 26.6536 39.3713 26.6847 39.3321C26.7135 39.2958 26.7448 39.2565 26.7862 39.2209C26.7119 39.2828 26.6456 39.353 26.5899 39.4307ZM30.2372 38.3093C30.389 38.4358 30.1478 38.7163 29.988 38.8429C30.1427 38.7204 30.29 38.4933 30.1615 38.3641L29.8019 38.6246C29.5932 38.7759 29.3643 38.906 29.1262 39.0164C28.7252 39.208 28.2949 39.3453 27.8533 39.4218C27.7473 39.4486 27.6307 39.4891 27.5253 39.5258C27.3647 39.5816 27.2303 39.6284 27.1994 39.6036L27.1945 39.5994C27.331 39.5012 27.5177 39.4733 27.6924 39.4472L27.7503 39.4385C28.5514 39.3174 29.3322 38.9164 30.0196 38.4582C30.063 38.4235 30.1058 38.388 30.1478 38.3517C30.1522 38.3553 30.1563 38.359 30.1602 38.3629L30.1922 38.3407L30.2372 38.3093ZM27.1858 39.5904C27.113 39.4015 27.355 39.2292 27.5664 39.1928C27.6144 39.1848 27.6639 39.1789 27.7135 39.1729C27.8948 39.1512 28.0768 39.1294 28.1898 39.0066C28.1799 39.0024 28.1699 38.9982 28.1599 38.9942C28.1661 38.9987 28.1699 39.0032 28.1711 39.0078C28.1862 39.0669 27.8816 39.157 27.6626 39.1763C27.584 39.1833 27.3822 39.2233 27.2857 39.311C27.1541 39.4307 27.1381 39.535 27.1858 39.5904ZM28.0615 38.9597C27.6464 38.8342 27.1663 38.9305 26.8296 39.1864C26.9761 39.0773 27.1638 39.0055 27.2653 38.9714C27.4804 38.8992 27.8713 38.9175 28.0615 38.9597Z" fill="#F8D7BE"/>
<path d="M26.2797 40.9794C26.5274 41.0017 26.6553 40.7039 26.6873 40.4732C26.7112 40.2349 26.7832 39.9372 27.0309 39.9C27.007 40.5624 26.951 41.2324 26.8871 41.8949C26.9111 41.9619 26.9909 42.0066 27.0709 41.9992C27.2866 41.4409 27.3426 40.823 27.2228 40.2349C27.1907 40.0637 27.3186 39.9 27.4785 39.8181C27.6383 39.7362 27.8221 39.7139 28.0059 39.6915C28.7253 39.5725 29.4205 39.2747 29.988 38.8429C30.1427 38.7204 30.29 38.4933 30.1615 38.3641L29.8019 38.6246C29.5932 38.7759 29.3643 38.906 29.1262 39.0164C28.7252 39.208 28.2949 39.3453 27.8533 39.4218C27.7473 39.4486 27.6307 39.4891 27.5253 39.5258C27.3647 39.5816 27.2303 39.6284 27.1994 39.6036L27.1945 39.5994L27.1907 39.6022C27.1889 39.5983 27.1873 39.5943 27.1858 39.5904C27.1381 39.535 27.1541 39.4307 27.2857 39.311C27.3822 39.2233 27.584 39.1833 27.6626 39.1763C27.8816 39.157 28.1862 39.0669 28.1711 39.0078C28.1699 39.0032 28.1661 38.9987 28.1599 38.9942C28.1467 38.9889 28.1333 38.9838 28.1199 38.979C28.1006 38.9721 28.0811 38.9657 28.0615 38.9597C27.8713 38.9175 27.4804 38.8992 27.2653 38.9714C27.1638 39.0055 26.9761 39.0773 26.8296 39.1864C26.8149 39.1976 26.8004 39.2091 26.7862 39.2209C26.7448 39.2565 26.7135 39.2958 26.6847 39.3321C26.6536 39.3713 26.6252 39.4069 26.5899 39.4307C26.5794 39.4454 26.5692 39.4604 26.5594 39.4757C26.6073 39.4236 26.6953 39.5576 26.6153 39.565C26.5055 40.0325 26.3958 40.4927 26.286 40.9529L26.2797 40.9794Z" fill="#231E1E"/>
<path d="M16.6412 35.1061C17.7282 36.3194 18.8231 37.5402 20.1818 38.4856C21.5404 39.431 23.2027 40.0861 24.8891 39.9819C24.945 40.1307 24.8891 40.3019 24.7612 40.3987C24.8571 40.4136 24.961 40.4285 25.0569 40.4434C25.0889 40.1828 25.3126 39.9595 25.5923 39.9223C25.8641 39.8777 26.1518 40.0265 26.2717 40.2572C26.3356 40.1084 26.2637 39.9149 26.1118 39.8256C26.288 39.7542 26.4348 39.6281 26.5101 39.467C26.4524 39.4851 26.3912 39.4909 26.334 39.4963C26.3045 39.499 26.2759 39.5018 26.2496 39.506L26.2376 39.508L26.224 39.5108C25.6809 39.6301 24.9357 39.614 24.2987 39.6002C23.982 39.5933 23.692 39.587 23.4669 39.5983L22.6845 39.5667L21.835 39.1611C20.4478 38.4987 19.1393 37.5153 18.0339 36.3681C17.6347 35.9537 17.2423 35.5086 17.0237 35.2302C16.9117 35.1364 16.7824 35.0743 16.6412 35.1061Z" fill="#231E1E"/>
<path d="M38.2183 13.3652C38.1127 13.025 37.7625 12.7666 37.3806 12.7444C37.3725 12.7437 37.3644 12.7432 37.3562 12.7428C37.3196 12.7421 37.2832 12.7431 37.2489 12.7457C37.1151 12.7597 36.9842 12.8125 36.9053 12.9103C36.9163 12.9163 36.9548 12.9317 37.0119 12.9533C37.4117 13.0897 37.8115 13.2313 38.2112 13.3668C38.2139 13.3666 38.2163 13.366 38.2183 13.3652Z" fill="#231E1E"/>
<path d="M40.993 16.3771C40.8731 15.923 40.6254 15.5061 40.2817 15.1637C40.2258 15.1041 40.0739 15.0967 40.1059 15.1711C40.3616 15.5954 40.6573 15.9975 40.993 16.3771Z" fill="#231E1E"/>
<path d="M39.6744 14.3077C39.5705 14.1811 39.4026 14.0992 39.2348 14.0843C39.2348 14.4044 39.5145 14.6947 39.8501 14.732C39.8741 14.5757 39.8102 14.3896 39.6744 14.3077Z" fill="#231E1E"/>
<path d="M26.5914 30.1781C26.8311 30.6695 26.983 31.3171 26.5674 31.6967C23.3329 28.8351 20.7492 25.1609 18.943 21.2752C18.7751 20.9104 18.6792 20.3671 19.0709 20.2107C19.8301 20.4192 20.3815 21.037 20.7252 21.6995C21.0688 22.362 21.2606 23.0841 21.5803 23.754C22.7152 26.1882 25.4086 27.7589 26.5914 30.1781Z" fill="#F5F2E2"/>
<path d="M37.1009 33.4237C34.911 30.5131 32.4815 27.5058 29.9161 24.8706C29.6444 24.7659 29.3756 24.6587 29.1078 24.5519L28.8602 24.4532C28.7538 24.4109 28.6476 24.3689 28.5414 24.3272C30.0759 28.2353 33.009 31.5106 35.8861 34.704C36.1898 35.0465 36.6214 35.4262 37.0849 35.307C37.4685 35.2029 37.6603 34.7785 37.6124 34.4137C37.5564 34.0416 37.3247 33.7215 37.1009 33.4237Z" fill="#F5F2E2"/>
<path d="M29.9161 24.8706C32.4815 27.5058 34.911 30.5131 37.1009 33.4237C37.3247 33.7215 37.5564 34.0416 37.6124 34.4137C37.6603 34.7785 37.4685 35.2029 37.0849 35.307C36.6214 35.4262 36.1898 35.0465 35.8861 34.704C33.009 31.5106 30.0759 28.2353 28.5414 24.3272C28.6476 24.3689 28.7538 24.4109 28.8602 24.4532L29.1078 24.5519C29.3756 24.6587 29.6444 24.7659 29.9161 24.8706C29.9133 24.8634 29.9105 24.8563 29.9076 24.8493C29.882 24.8189 29.8639 24.7811 29.8416 24.7342C29.8319 24.7139 29.8214 24.6919 29.8091 24.668C29.7592 24.5952 29.6998 24.5286 29.6331 24.4689C29.4038 24.2706 29.0678 24.1351 28.7502 24.1362C28.5738 24.1367 28.3922 24.1741 28.3264 24.1991L28.3252 24.1995C28.2649 24.2224 28.2436 24.2305 28.2671 24.3128C28.2923 24.3826 28.3179 24.4522 28.3439 24.5216L28.3462 24.5275C28.3724 24.5945 28.4045 24.6768 28.4428 24.7783C28.9633 26.0967 29.6495 27.3421 30.4407 28.5364C31.4566 30.0376 32.8077 31.7023 34.6547 33.7794C35.4314 34.6529 35.9294 35.1556 36.2012 35.3404C36.3575 35.4467 36.5611 35.5433 36.7245 35.5888C36.8059 35.6114 36.9102 35.6198 37.0401 35.6143C37.2029 35.6074 37.2567 35.5949 37.3754 35.5366C37.6369 35.4081 37.8413 35.1185 37.8973 34.7974C37.9446 34.5259 37.859 34.132 37.6854 33.8221C37.6195 33.7045 37.461 33.4655 37.2398 33.1501C36.5011 32.149 35.1002 30.3955 34.0584 29.1852C33.505 28.5423 32.8893 27.8478 32.3137 27.2134C32.0182 26.8916 31.7198 26.5722 31.4186 26.2552C31.3286 26.1604 31.2355 26.0545 31.1389 25.9442C30.7061 25.4886 30.3767 25.1601 30.2366 25.0524L30.2272 25.0458L30.2007 25.0276C30.1612 25.0059 30.1254 24.9877 30.093 24.9712C30.0293 24.9388 29.979 24.9133 29.9399 24.8809L29.9161 24.8706Z" fill="#231E1E"/>
</svg>
