<svg width="42" height="39" viewBox="0 0 42 39" fill="none" xmlns="http://www.w3.org/2000/svg">
<path d="M40.2617 12.9763C37.9866 7.86544 33.7369 3.78537 28.6286 1.76681C22.6188 -0.59534 15.5788 -0.380599 10.3418 2.36808C4.50375 5.4174 0.812047 10.2705 0.125219 15.639C-0.604536 21.3082 1.84229 28.953 7.80911 32.0452C8.15252 32.217 8.49594 32.3888 8.88228 32.5177C9.05398 32.6035 9.13984 32.7753 9.09691 32.9471C9.05398 33.076 8.9252 33.1619 8.7535 33.1619C8.71057 33.1619 8.66764 33.1619 8.62472 33.1619C8.41008 33.076 8.19545 32.9901 7.98082 32.8612C9.69789 35.524 12.6169 37.4137 15.5359 37.7144C16.3945 37.8003 16.9525 37.6714 17.253 37.2419C17.5106 36.8125 17.3818 36.2541 16.9525 35.9535C16.6949 35.7817 16.3515 35.7817 15.9652 35.7817C15.5788 35.7817 15.1496 35.8247 14.7632 35.6099C14.0335 35.3093 13.2608 34.5362 13.0462 33.6343C12.9174 33.6343 12.7457 33.6773 12.6169 33.6773C12.6169 33.6773 12.6169 33.6773 12.574 33.6773C12.4023 33.6773 12.2306 33.5484 12.2306 33.3766C12.2306 33.2048 12.3593 33.033 12.5311 32.9901C12.7886 32.9901 13.0032 32.9471 13.2179 32.9042C14.3769 32.6894 15.3642 32.1741 16.1798 31.401C14.5915 30.7568 13.3467 29.8549 12.4452 28.7382C12.1447 28.3517 11.8871 27.9652 11.6725 27.5357C11.4579 27.1062 11.3291 26.7197 11.3291 26.419C11.2862 26.0325 11.4579 25.8177 11.5437 25.6889C11.7154 25.5171 11.973 25.3883 12.2735 25.3883C12.4452 25.3883 12.7028 25.4312 12.9603 25.4742C13.3896 25.603 13.8189 25.6889 14.2052 25.7319C14.4628 25.7748 14.7203 25.8177 14.9349 25.8607C15.5788 25.9466 16.2657 25.9895 16.9525 25.9895C17.1671 25.0017 16.5662 24.4005 15.7935 23.6274L15.6647 23.4556C15.5359 23.3268 15.5359 23.112 15.6647 22.9832C15.7935 22.8543 16.0081 22.8543 16.1369 22.9832L16.2657 23.155C17.0813 23.971 17.811 24.744 17.6393 26.0325C18.2832 26.0325 18.9701 25.9895 19.7857 25.9036C18.7554 23.7562 16.4803 21.9095 13.0462 20.3204C12.9603 20.2774 12.9174 20.2345 12.8745 20.1486C12.7457 20.1915 12.574 20.1486 12.4881 20.0198C10.7281 17.357 11.0715 14.4794 13.3896 12.7186C15.3213 11.2154 18.0257 10.5282 20.4296 10.9148C23.2627 11.3442 25.452 13.234 26.053 15.682C26.4822 17.5288 25.7954 19.2037 25.0657 20.7928C24.3788 22.339 23.7779 23.7562 24.1642 25.3453C24.5935 25.2165 24.9798 25.0447 25.2803 24.8299C25.6237 22.2101 28.3281 19.2467 31.0325 19.5903C31.2042 19.5903 31.3759 19.805 31.333 19.9768C31.29 20.1486 31.1183 20.3204 30.9466 20.2774C28.6715 20.0198 26.2676 22.6396 25.9671 24.9588C25.9671 25.0447 25.9242 25.0876 25.8813 25.1306C25.8813 25.2165 25.8383 25.3453 25.7525 25.3883C25.2803 25.7319 24.6793 25.9895 23.9925 26.1613C23.3915 26.2902 22.8335 26.3761 22.2325 26.419L21.9749 26.462C21.374 26.5479 20.8159 26.5908 20.2149 26.6338C19.0559 26.7626 18.1545 26.8056 17.3388 26.8056C16.5662 26.8056 15.8793 26.7626 15.1925 26.6767C15.1496 26.9773 15.0637 27.278 15.0208 27.4068C15.0208 27.4068 15.0208 27.4068 15.0208 27.4498V27.4927C15.0208 27.5357 15.0208 27.5357 14.9779 27.5786V27.6216C14.7632 28.2658 14.4198 29.0818 13.9047 29.3395C14.6345 29.9837 15.5359 30.4991 16.5662 30.8856C17.811 31.3581 19.1847 31.6587 20.6871 31.7875C22.1466 31.8734 23.6491 31.8305 25.0227 31.5728C25.5808 31.4869 26.053 31.3581 26.5252 31.2292C26.5681 31.2292 26.611 31.2292 26.654 31.2292C28.3281 30.7568 29.9593 30.1555 31.5476 29.5113C31.7193 29.4254 31.9339 29.5113 32.0198 29.6831C32.1057 29.8549 32.0198 30.0696 31.8481 30.1555C30.1739 30.8856 28.4569 31.4869 26.6969 31.9593C26.6539 31.9593 26.654 31.9593 26.611 31.9593H26.5681C26.2247 32.0452 25.8813 32.1311 25.4949 32.217C25.4949 32.3459 25.4091 32.4318 25.3232 32.4747C24.4218 32.9901 23.5632 34.0208 23.5203 35.0516C23.5632 35.0945 23.5632 35.1375 23.5632 35.2234C23.5632 35.2663 23.5632 35.3093 23.5203 35.3522C23.5203 35.3952 23.5203 35.4811 23.5632 35.524C23.692 35.9964 24.0354 36.383 24.5505 36.5548C25.0227 36.7266 25.5379 36.6836 25.9242 36.383C26.2676 36.1253 26.3105 35.9106 26.3964 35.567C26.4393 35.3522 26.4822 35.1375 26.611 34.8798C26.9115 34.1497 27.5125 34.0638 28.0276 33.9779L28.2422 33.9349C30.2169 33.5914 31.6335 33.033 32.7066 32.1311C32.7925 32.0452 32.9213 32.0452 33.0071 32.0452C33.0071 30.9286 33.0071 29.8119 32.9213 28.7382C32.7925 27.1491 32.2774 26.1184 31.4188 25.646C31.2471 25.5601 31.2042 25.3453 31.29 25.1735C31.3759 25.0017 31.5905 24.9588 31.7622 25.0447C32.8354 25.646 33.4364 26.8485 33.6081 28.6523C33.7369 29.8978 33.7369 31.1433 33.7369 32.3459C33.7369 32.9042 33.7369 33.4625 33.7369 34.0208V34.3215C33.7369 35.4811 33.7798 36.8125 34.5954 37.5855C35.4539 38.4015 36.8276 38.015 37.5574 37.2419C38.7593 35.9964 38.8881 33.849 37.9866 30.6279C37.772 29.9408 37.5574 29.2965 37.2998 28.6953C36.3983 26.5908 35.0247 24.7011 33.3076 23.2409C33.1788 23.112 33.1359 22.8973 33.2647 22.7684C33.3935 22.6396 33.6081 22.5966 33.7369 22.7255C35.411 24.1428 36.7847 25.9895 37.772 28.0511C39.7466 26.8485 40.4764 24.3575 40.9915 22.1242C41.7642 18.7743 41.5495 15.8538 40.2617 12.9763ZM29.7018 26.9773C29.3154 27.3209 28.8003 27.4927 28.3281 27.4927C28.1564 27.4927 27.9847 27.4498 27.8559 27.4068C27.4266 27.278 27.1261 26.8915 26.9974 26.419C26.9544 26.2472 27.0832 26.0325 27.2549 26.0325C27.4266 26.0325 27.6413 26.1184 27.6413 26.2902C27.6842 26.5479 27.813 26.6767 28.0276 26.7626C28.371 26.8915 28.8861 26.7197 29.1866 26.462C29.3154 26.3331 29.53 26.3331 29.6588 26.5049C29.8305 26.6338 29.8305 26.8485 29.7018 26.9773Z" fill="#63736C"/>
<path d="M14.4198 27.3639V27.278V27.2351C14.5057 26.9344 14.5486 26.7197 14.5915 26.5908C14.4627 26.5908 14.291 26.5479 14.1193 26.5049C13.6901 26.419 13.2608 26.3332 12.7886 26.2043C12.574 26.1614 12.4023 26.1184 12.2735 26.1184C12.1447 26.1184 12.0589 26.1614 12.0159 26.2043C11.973 26.2473 11.973 26.3332 11.973 26.4191C11.973 26.5479 12.0159 26.8056 12.2306 27.2351C12.4023 27.6216 12.6598 27.9652 12.9174 28.3088C13.0032 28.3947 13.0891 28.5235 13.1749 28.6094C13.2608 28.6094 13.3467 28.6094 13.4325 28.6953H13.4754C13.5613 28.6953 13.6042 28.6523 13.6901 28.6094C13.8618 28.4376 14.1193 28.0081 14.334 27.321C14.3769 27.4069 14.4198 27.4069 14.4198 27.3639Z" fill="#ED9451"/>
</svg>
