<svg width="62" height="73" viewBox="0 0 62 73" fill="none" xmlns="http://www.w3.org/2000/svg">
<path d="M61.1445 23.4053L32.1703 0.446667C32.094 0.357333 32.0178 0.357333 31.9416 0.267999L31.8653 0.178667C31.7891 0.178667 31.7128 0.0893329 31.6366 0.0893329C31.5603 0.0893329 31.4841 0 31.4841 0C31.4078 0 31.4078 0 31.3316 0C31.2553 0 31.1791 0 31.1028 0C31.0266 0 30.9503 0 30.7978 0C30.7216 0 30.7216 0 30.6453 0C30.5691 0 30.4928 -5.16237e-07 30.4928 0.0893329C30.4166 0.0893329 30.3403 0.0893332 30.2641 0.178667C30.1878 0.178667 30.1878 0.267999 30.1116 0.267999C30.0354 0.357333 29.9591 0.357333 29.8829 0.446667L0.908665 23.4053C-0.00630946 24.12 -0.311301 25.6387 0.37493 26.8C0.756169 27.5147 1.4424 27.872 2.05238 27.872C2.43362 27.872 2.89111 27.6933 3.1961 27.4253L6.7035 24.656V37.252H9.14343V22.6907L31.0266 5.44934L52.8335 22.6907V37.252H55.2734V24.656L58.7808 27.4253C59.162 27.6933 59.5433 27.872 59.9245 27.872C60.6107 27.872 61.2207 27.5147 61.602 26.8C62.2882 25.728 62.0595 24.2093 61.1445 23.4053Z" fill="#ED9451"/>
<path d="M26.494 53.9981C25.9048 54.8806 25.0945 55.5424 24.0633 55.9101L24.5789 60.1754C24.6525 60.6902 24.5789 61.1315 24.3579 61.6462L27.4516 71.5006C27.8199 72.6037 28.9985 73.2656 30.1033 72.8979C31.2082 72.5302 31.8712 71.3535 31.5029 70.2504L26.494 53.9981Z" fill="#ED9451"/>
<path d="M54.1905 57.7488C53.012 56.0573 50.4339 56.5721 50.4339 56.5721C48.9607 56.3515 49.0343 57.0869 49.0343 57.0869C49.108 57.4546 49.6236 57.8958 49.6236 57.8958C49.4026 58.19 49.1817 58.4842 48.9607 58.7048C50.3602 59.4402 52.128 60.4697 52.2017 60.5433C53.012 60.3962 53.9695 60.8374 53.9695 60.8374C54.7061 61.0581 54.9271 60.3227 54.9271 60.3227L54.1168 59.5873H55.2954C55.7374 59.3666 55.7374 58.7048 55.7374 58.7048C54.2642 57.9694 54.1905 57.7488 54.1905 57.7488Z" fill="#ED9451"/>
<path d="M35.5548 45.9846C35.4812 46.2787 35.2602 46.4993 35.1129 46.72C36.2914 49.2203 39.7534 54.6623 48.2979 59.2218C46.7511 60.1778 44.9096 60.3984 44.9096 60.3984C41.8895 59.9572 40.0481 60.7661 39.3851 61.0603C38.8695 61.3544 38.3539 60.9867 38.2802 60.9132L36.0704 59.0747C34.9656 58.4864 34.229 59.0012 34.229 59.0012C35.2602 59.4424 37.9856 62.0898 37.9856 62.0898C37.5436 64.3696 39.0168 65.9139 39.0168 65.9139C39.1641 67.0906 38.3539 67.7524 38.3539 67.7524C37.6173 68.4878 38.1329 69.2232 38.1329 69.2232L39.9744 71.3559H41.7422C42.4052 71.0617 41.3739 70.3999 41.3739 70.3999L40.5637 70.2528L39.7534 69.3703C39.2378 68.4878 40.1954 67.8995 40.1954 67.8995C41.7422 67.0906 42.2578 64.8844 42.2578 64.8844C43.2891 65.3991 47.1194 65.6933 47.1194 65.6933L47.7823 67.0906C44.9832 67.2377 45.5725 68.2672 45.5725 68.2672L48.2979 67.973C49.9921 67.6789 48.8135 65.6198 48.7399 65.3991L51.3916 66.6493C49.6974 67.6789 49.9921 68.4878 49.9921 68.4878C51.5389 68.6349 52.2019 67.2377 52.2019 67.2377C53.2331 66.2081 52.2755 65.3991 52.2755 65.3991C50.5814 64.6637 50.655 64.0019 50.655 64.0019C51.1706 63.4871 51.6126 62.4575 51.6126 62.4575C51.3179 61.5015 51.4653 61.0603 51.5389 60.8397C48.2979 59.0012 48.5926 59.2218 48.4452 59.0747C48.8135 58.8541 48.8872 58.6335 48.9608 58.5599C48.8872 58.6335 39.2378 54.2211 35.5548 45.9846Z" fill="#ED9451"/>
<path d="M34.9655 45.3944C35.1128 44.5855 34.5972 43.8501 33.7869 43.7765C30.9142 43.2617 28.6308 40.982 27.1576 38.4816C27.2312 38.8493 27.3049 39.2906 27.3049 39.7318V43.3353C28.7781 44.8061 30.7669 46.2033 33.2713 46.571C34.0079 46.7181 34.8182 46.2033 34.9655 45.3944Z" fill="#ED9451"/>
<path d="M22.2962 34.5844C24.6964 34.5844 26.6421 32.6418 26.6421 30.2455C26.6421 27.8493 24.6964 25.9067 22.2962 25.9067C19.896 25.9067 17.9503 27.8493 17.9503 30.2455C17.9503 32.6418 19.896 34.5844 22.2962 34.5844Z" fill="#ED9451"/>
<path d="M23.2534 55.3963C25.1686 54.9551 26.5681 53.2637 26.5681 51.2045V39.7323C26.5681 37.379 24.653 35.4669 22.2959 35.4669C18.6129 35.4669 13.0148 41.4237 11.1733 44.8065C10.805 45.4684 11.026 46.3509 11.7626 46.7186C12.4255 47.0863 13.3094 46.8657 13.6777 46.1303C14.8563 43.9976 16.5504 42.2326 18.0236 40.9089V51.2045C18.0236 52.087 18.2446 52.896 18.6866 53.5578L19.4968 60.0293L13.7514 69.7366C13.1621 70.7662 13.4567 72.0899 14.488 72.6782C15.5192 73.2666 16.8451 72.9724 17.4343 71.9428L23.5481 61.5737C23.7691 61.206 23.9164 60.6912 23.8427 60.25L23.2534 55.3963Z" fill="#ED9451"/>
</svg>
