<svg width="97" height="44" viewBox="0 0 97 44" fill="none" xmlns="http://www.w3.org/2000/svg">
<path d="M96.9047 33.8736C96.0105 32.5468 95.0867 31.436 94.101 30.4498C93.1476 29.5548 91.2084 27.6737 89.6921 27.2862C89.5063 27.6602 89.3204 28.0341 89.0403 28.4415C91.6313 29.1674 94.5535 31.7275 96.9047 33.8736Z" fill="#63736C"/>
<path d="M95.5688 18.1165C95.9109 17.5845 96.3095 16.3135 95.989 15.708C95.9243 15.5255 95.7977 15.4676 95.5769 15.4431C95.0409 15.4275 94.3245 16.4002 93.8882 16.9655C93.732 17.1235 93.6701 17.2482 93.6081 17.3728C93.5462 17.4975 93.3577 17.5642 93.2634 17.5976C93.1691 17.631 93.0425 17.5731 92.916 17.5152C92.2803 16.9186 91.739 16.2886 91.1653 15.5673C89.8914 14.0669 88.7441 12.6244 86.8803 12.1545C85.364 11.7671 83.5703 12.0941 82.5065 12.9844C81.6931 13.6833 81.7631 14.4802 81.9948 15.7334C82.8808 16.1386 83.8935 16.6017 84.9385 17.1561C85.1917 17.2719 85.2886 17.5457 85.1647 17.795C85.1028 17.9196 85.0085 17.953 84.9143 17.9864C84.82 18.0198 84.5992 17.9953 84.5992 17.9953C83.4276 17.383 82.4149 16.9199 81.4022 16.4568C76.6863 14.2237 71.6257 12.2154 66.5677 10.5143C61.2889 8.78866 55.1267 6.965 49.083 7.87262C48.9887 7.906 48.8621 7.84812 48.7356 7.79023C48.6413 7.82361 48.3881 7.70784 48.3558 7.61657C47.494 6.38107 46.6887 4.40656 47.5882 2.75274C47.7121 2.50345 47.9303 2.22077 48.0865 2.06274C48.4608 1.62203 48.617 1.464 48.4877 1.09893C48.4204 0.609211 48.0083 0.34428 47.5667 0.295267C45.9561 -0.0588153 44.8707 1.96895 44.4721 3.23994C43.8904 5.19206 44.1597 7.15094 45.1185 8.66024C45.1185 8.66024 45.1185 8.66024 45.1508 8.75151L45.1832 8.84278L44.9327 9.03419C44.9973 9.21673 44.8734 9.46603 44.5906 9.56617C44.5906 9.56617 44.5906 9.56617 44.4964 9.59955C43.6157 9.80871 42.7646 9.80195 41.9135 9.79519C41.9135 9.79519 41.9135 9.79519 41.8193 9.82857C41.6334 10.2025 41.3533 10.6098 41.1352 10.8925C40.979 11.0505 40.8551 11.2998 40.6989 11.4579C40.3568 11.9899 40.3299 12.513 40.6504 13.1184C41.3884 14.6032 43.7315 15.8277 44.93 15.9169C45.1509 15.9414 45.3421 16.1818 45.3125 16.3977C45.2828 16.6137 45.0324 16.8051 44.8115 16.7806C43.2656 16.609 40.575 15.3021 39.7078 13.4523C39.2903 12.573 39.3145 11.7427 39.8747 10.928C39.9986 10.6787 40.1548 10.5207 40.373 10.238C40.6531 9.83068 40.8712 9.54801 41.0571 9.17406C41.2429 8.80011 41.2079 8.40166 40.9843 8.06997C40.5346 7.0994 39.0829 6.89448 38.046 7.26167C35.9426 8.21196 36.0638 11.2504 36.1661 12.1386C36.1365 12.3545 36.2334 12.6283 36.2981 12.8109C36.764 15.6245 38.6466 18.2447 41.181 19.7096C41.4342 19.8254 41.4369 20.1326 41.313 20.3819C41.251 20.5065 41.1568 20.5399 41.0625 20.5733C40.9683 20.6067 40.7474 20.5821 40.6208 20.5243C37.8333 18.9436 35.7594 16.083 35.2908 12.9621C35.2585 12.8709 35.2585 12.8709 35.2262 12.7796L34.7872 13.0378C33.9092 13.5541 33.0635 14.1617 32.1532 14.5868C32.0589 14.6202 31.8704 14.6869 31.8084 14.8116C30.9304 15.3279 29.5192 16.1358 28.6034 15.9465C27.1194 15.6503 27.3268 14.1389 27.3807 13.0927C27.4103 12.8768 27.4399 12.6609 27.4696 12.445C27.4938 8.01972 24.6173 3.49182 20.4697 1.36563C19.4247 0.811261 18.4147 0.655346 17.9757 0.913518C17.631 1.13831 17.6041 1.66141 17.6714 2.15113C17.7441 3.25522 18.0377 4.38382 18.3313 5.51241C18.6572 6.73228 18.983 7.95214 19.0261 9.27215C19.2066 11.8788 19.1339 14.3696 18.5872 16.7202C18.4956 17.0608 18.404 17.4013 18.4067 17.7085C18.2532 18.1737 18.194 18.6056 18.1347 19.0374C17.8923 20.1504 17.8681 20.9807 18.0001 21.6529C18.0674 22.1426 18.229 22.599 18.5791 22.9886C18.7704 23.229 18.6465 23.4783 18.396 23.6697L18.3017 23.7031C18.3341 23.7943 18.2721 23.919 18.1778 23.9524C15.0914 27.8186 10.5317 29.0224 6.16052 30.1595L5.09129 30.4354C2.98516 31.0785 1.45 32.1357 0.550462 33.7895C0.054906 34.7867 -0.0932172 35.8663 0.259604 36.563C0.515467 36.986 0.959858 37.3422 1.6224 37.4157C3.98979 37.8099 6.08514 35.9381 8.08622 34.0996C9.27395 32.96 10.494 31.9117 11.7814 31.3531C12.5032 30.9948 13.3515 30.6944 14.2942 30.3606C17.0278 29.3925 19.7615 28.4245 20.5883 25.6666C20.5883 25.6666 20.556 25.5753 20.6503 25.5419C20.7742 25.2926 21.0246 25.1012 21.2778 25.217C21.4044 25.2749 21.4367 25.3662 21.531 25.3328C24.8895 27.3276 28.959 27.7353 34.0843 26.3312C34.965 26.122 35.8134 25.8216 36.6617 25.5212C38.2023 25.0784 39.8048 24.5109 41.5042 24.2172C43.675 23.7567 46.037 23.5365 48.8084 23.2741C56.5892 22.7785 67.7205 23.356 76.9099 28.9352C77.0365 28.9931 77.0688 29.0843 77.1012 29.1756C77.2277 29.2335 77.2601 29.3248 77.2924 29.416C77.357 29.5986 77.2331 29.8479 77.0769 30.0059C73.9097 31.8465 70.3734 34.7421 71.8817 37.803C73.5488 41.013 79.0619 40.7041 82.4554 39.5024C82.644 39.4356 82.7705 39.4935 82.8971 39.5514C83.0237 39.6093 83.0884 39.7918 83.1207 39.8831C83.0695 41.2365 83.9664 42.8704 85.3238 43.1087C85.8921 43.2156 86.1749 43.1155 86.3311 42.9575C86.4226 42.6169 86.1291 41.4883 85.7762 40.7916C85.7116 40.609 85.5527 40.4599 85.4881 40.2773C85.0086 39.5227 84.6558 38.8259 84.5212 37.8465C84.5185 37.5393 84.4538 37.3568 84.4835 37.1408C84.5104 36.6177 84.5077 36.3106 84.1279 36.1369C83.8748 36.0211 83.4331 35.9721 82.9591 35.8318C82.0757 35.7338 80.8448 35.5534 80.6778 34.4827C80.4139 33.1382 82.108 32.2301 83.0802 31.6804C83.1745 31.647 83.2688 31.6136 83.363 31.5803L83.8963 31.2887C85.0571 30.6722 86.3121 30.0224 87.3437 29.0408C87.5941 28.8494 87.7503 28.6914 87.8742 28.4421C88.3105 27.8767 88.7468 27.3114 88.93 26.6302C89.4848 25.2012 89.2801 23.4248 88.3482 21.3924L88.3159 21.3012C88.2513 21.1186 88.3132 20.994 88.3751 20.8693C88.3374 20.1637 88.7414 19.5071 89.4632 19.1488C90.185 18.7905 90.9122 19.0465 91.4185 19.2781C91.5451 19.336 91.6717 19.3938 91.8925 19.4183C93.4115 20.113 94.6989 19.5544 95.5688 18.1165ZM21.5309 18.1429C20.3674 18.4522 20.0065 16.8339 20.9169 16.4088C22.0157 15.917 22.7564 17.7089 21.5309 18.1429ZM25.218 10.8799C25.0348 11.561 24.5985 12.1264 23.9387 12.36C23.7502 12.4268 23.5616 12.4936 23.3408 12.4691C23.1199 12.4445 22.8668 12.3288 22.8641 12.0216C22.8937 11.8057 23.0176 11.5564 23.3327 11.5475C23.9629 11.5298 24.243 11.1224 24.3965 10.6572C24.4881 10.3166 24.3884 9.73566 23.9764 9.47073C23.7232 9.35495 23.6262 9.08115 23.7501 8.83185C23.874 8.58255 24.1568 8.48241 24.41 8.59818C25.1075 9.07016 25.4307 9.98284 25.218 10.8799Z" fill="#63736C"/>
<path d="M17.2535 19.2461C15.7264 17.6299 13.7361 17.1021 11.059 17.3311L10.7439 17.34C8.88554 17.4845 6.52354 17.7047 5.33851 19.1514C4.80794 19.7502 4.56556 20.8631 5.23349 21.551C5.96606 22.4214 7.22382 22.0788 8.57583 21.7027C11.1533 20.8927 14.2048 20.223 17.2078 21.2138C17.1404 20.7241 17.135 20.1097 17.2535 19.2461C17.2858 19.3373 17.2858 19.3373 17.2535 19.2461Z" fill="#63736C"/>
</svg>
