<svg width="80" height="30" viewBox="0 0 80 30" fill="none" xmlns="http://www.w3.org/2000/svg">
<path d="M79.7565 23.2509C79.2695 22.9037 77.4839 23.112 76.5099 23.2509C76.0229 23.3203 75.6982 23.3898 75.4547 23.3898C73.5879 23.3203 71.8834 22.6954 70.2601 22.001C69.9355 21.8621 69.5296 21.7232 69.205 21.5843C69.1238 21.5149 69.0426 21.4455 68.9615 21.376C68.8803 21.3066 68.9615 21.1677 68.9615 21.0983C70.3413 18.7373 70.7471 15.4041 67.8251 12.9043L67.744 12.8349C67.4193 12.5571 67.0947 12.3488 66.6888 12.071C65.3902 11.1683 64.0104 10.1267 63.9292 8.52956C63.848 7.21019 64.822 6.72411 65.7148 6.30746C65.796 6.23802 65.8772 6.23803 65.9583 6.16859C66.5265 5.96026 66.77 5.82138 66.77 5.47418C66.77 5.3353 66.77 5.26586 66.6888 5.12698C66.283 4.57146 64.9032 4.2937 64.1727 4.43258C62.1436 4.77978 60.2767 7.27963 59.7897 8.04347C59.3839 8.66844 59.2216 9.22396 59.3839 9.77948C59.5462 10.2656 59.7897 10.6822 60.1144 11.1683C60.2767 11.446 60.5202 11.7238 60.6826 12.071C61.1696 12.9737 60.6014 13.6681 60.1956 14.3625C59.6274 15.1264 59.3027 15.6125 59.9521 16.3069C60.1144 16.4458 60.0332 16.7235 59.8709 16.793C59.7086 16.9318 59.3839 16.8624 59.3027 16.7235C58.3288 15.543 58.9781 14.6403 59.5462 13.9459C60.0332 13.3209 60.2767 12.9043 60.0332 12.4182C59.8709 12.1405 59.7086 11.7933 59.4651 11.5155C59.2216 11.0988 58.8969 10.6822 58.7346 10.2656H58.6534C58.5723 10.2656 58.4911 10.2656 58.4911 10.1961C53.7023 8.32123 48.9947 7.27963 44.3683 7.27963C39.1737 7.21019 33.9791 8.18235 28.9468 9.15452H28.8656C28.541 10.0572 28.8656 10.4044 29.2714 10.6128C29.4338 10.7516 29.5149 10.96 29.3526 11.0988C29.1903 11.2377 28.9468 11.3072 28.7845 11.1683C27.8916 10.6128 27.6481 9.71004 28.2163 8.599C28.4598 7.97403 28.9468 7.41851 29.2714 6.93243C29.4338 6.72411 29.5961 6.51579 29.6773 6.37691C30.1643 5.61306 30.2454 4.84922 29.9208 4.43258C29.5961 3.94649 28.7845 3.94649 28.2163 4.01593C26.9176 4.15481 25.7002 4.6409 24.7262 5.40474C23.9957 6.0297 23.5087 6.79355 23.3463 7.62683C23.184 8.46012 23.2652 9.36284 23.671 10.2656C24.0768 11.3766 24.8885 12.5571 26.1871 13.9459C26.3495 14.0848 26.2683 14.3625 26.106 14.432C26.0248 14.5014 25.9436 14.5014 25.8625 14.5014C25.7002 14.5014 25.619 14.432 25.5378 14.3625C24.4015 13.0432 23.5898 11.9321 23.1029 10.8211C22.1289 11.446 21.1549 12.1405 20.1809 12.7654C18.8011 13.6681 17.3401 14.7097 15.9603 15.7514C15.8791 15.7514 15.8791 15.8208 15.7979 15.8208C15.7979 15.8208 15.7979 15.8208 15.7168 15.8208H15.5544C15.5544 15.8208 15.5544 15.8208 15.4733 15.8208C15.3921 15.8208 15.3921 15.7514 15.3109 15.7514C13.363 13.7376 12.0643 11.3766 10.7657 9.08508C10.1163 7.97403 9.54818 6.79355 8.81769 5.6825C8.65536 6.58523 8.00604 7.41851 7.19438 7.90459C7.11321 7.97403 7.03205 7.97403 6.95088 7.97403C6.78855 7.97403 6.70739 7.90459 6.62622 7.83515C6.46389 7.62683 6.54505 7.41851 6.70738 7.27963C7.68137 6.65467 8.24953 5.54362 8.00604 4.50202V4.43258C7.92487 4.36314 7.92487 4.29369 7.8437 4.22425C6.62622 2.62713 5.32757 1.09944 3.46076 0.335596C3.21726 1.58552 2.24327 2.69657 0.944621 3.11321C0.944621 3.18265 1.02579 3.18265 1.02579 3.25209C1.26928 3.59929 1.51278 3.94649 1.75628 4.2937C2.32444 5.3353 2.81143 6.37691 3.29843 7.62683C4.11008 9.9878 4.51591 12.4182 4.92174 14.5709C5.00291 15.0569 5.08407 15.543 5.08407 16.0291C5.2464 17.5568 5.4899 19.0845 6.22039 20.3344C7.03205 21.5843 8.3307 21.7232 9.87285 21.9315C10.1975 22.001 10.5222 22.001 10.7657 22.0704C10.928 22.0704 11.0092 22.1399 11.1715 22.1399C11.3338 22.2093 11.4962 22.3482 11.4962 22.4871C11.8208 22.6954 12.1455 22.9037 12.389 23.1815C12.6325 23.3898 12.7948 23.5287 12.9571 23.6675C13.85 24.2925 14.9051 24.848 15.8791 25.3341C18.0706 26.4452 20.2621 27.3479 22.5347 27.9729C25.132 28.7367 27.7293 29.1533 30.1643 29.2922C31.6252 29.3617 33.2486 29.2922 34.3037 28.5978C34.7095 28.32 34.953 27.9034 34.953 27.4868C35.0342 26.8618 34.7095 26.2368 34.1414 25.6813C33.0862 24.7092 31.3818 24.2925 29.8396 24.0147C29.5961 23.9453 29.4338 23.9453 29.1903 23.8759C27.8916 23.6676 26.5118 23.5981 25.132 23.5287C22.3724 23.3898 19.5316 23.2509 17.0966 22.0704C16.8531 22.001 16.8531 21.7232 16.9343 21.5843C17.0154 21.376 17.3401 21.376 17.5024 21.4455C19.7751 22.5565 22.5347 22.6954 25.2132 22.8343C26.4306 22.9037 27.7293 22.9731 28.9468 23.112C28.9468 23.0426 29.0279 23.0426 29.1091 23.0426C30.9759 22.2093 33.0862 22.001 35.1154 21.7232C35.6024 21.6538 36.1705 21.5843 36.6575 21.5149C38.849 21.2371 41.1216 21.0983 43.3131 20.9594C43.8813 20.8899 44.4494 20.8899 45.0176 20.8899L46.3974 20.8205C50.6992 20.5427 55.0821 20.265 59.5462 20.7511C62.0624 21.0983 64.335 21.8621 66.6077 22.6259C67.9875 23.112 69.4485 23.5981 70.9094 23.9453C73.2633 24.5008 75.3736 24.7092 77.3215 24.4314H77.4027C79.513 24.1536 80 23.737 80 23.5287C79.8377 23.3898 79.7565 23.3203 79.7565 23.2509ZM9.62935 17.2096C9.54818 17.279 9.38585 17.3485 9.30469 17.3485C9.22352 17.3485 9.14235 17.3485 9.06119 17.279C8.89886 17.1402 8.81769 16.9318 8.98002 16.793C9.22352 16.5846 9.14235 16.3069 9.06119 16.0986C8.89886 15.7514 8.49303 15.4041 8.0872 15.2653C7.8437 15.1958 7.68137 14.9875 7.76254 14.8486C7.8437 14.6403 8.0872 14.5014 8.24953 14.5709C8.98002 14.7097 9.62935 15.2653 9.87285 15.8208C10.0352 16.3069 10.0352 16.793 9.62935 17.2096Z" fill="#63736C"/>
<path d="M66.4453 6.86298C66.3642 6.93242 66.283 6.93242 66.2018 6.93242C65.2278 7.34906 64.822 7.69626 64.822 8.52955C64.822 9.57115 65.7148 10.4044 66.6888 11.0988C66.6077 10.6822 66.6077 10.1961 66.6888 9.77947C66.9323 8.80731 67.8251 8.25179 68.6368 7.76571L68.8803 7.62682C70.2601 6.7241 70.179 6.23802 69.8543 5.82138C69.4485 5.33529 68.3933 4.91865 67.744 5.12697C67.744 5.26585 67.8251 5.40473 67.8251 5.54361C67.744 6.30746 67.0135 6.65466 66.4453 6.86298Z" fill="#63736C"/>
<path d="M22.7782 10.1267C22.4536 9.22396 22.3724 8.32123 22.5347 7.48795C22.6971 6.58522 23.184 5.82138 23.9145 5.12698C23.5087 4.84922 23.1029 4.71033 22.5347 4.77977C21.3172 4.91866 20.0186 5.82138 19.4504 6.58522C18.2329 8.18235 18.9634 10.4739 20.0186 12.071C20.9114 11.3072 21.8854 10.6822 22.7782 10.1267Z" fill="#63736C"/>
<path d="M2.73027 0.127276C1.91862 -0.0116049 1.02579 0.127275 0.457633 0.543917C0.457633 0.543917 0.457633 0.543917 0.376467 0.543917C0.295302 0.613357 0.295302 0.613358 0.214136 0.682798C0.214136 0.682798 0.214136 0.682798 0.214136 0.752239C-0.0293609 1.09944 -0.110527 1.58552 0.214136 2.0716C0.295302 2.21049 0.376467 2.34936 0.457633 2.48825H0.538799C1.75628 2.14104 2.64911 1.16888 2.73027 0.127276Z" fill="#63736C"/>
</svg>
