<svg width="23" height="35" viewBox="0 0 23 35" fill="none" xmlns="http://www.w3.org/2000/svg">
<path d="M21.9535 32.1974C21.9535 32.1616 21.9535 32.1616 21.9535 32.1257C21.99 32.1257 21.99 32.1257 22.0264 32.1257C22.1722 32.054 22.391 32.1257 22.5732 32.1974C22.9378 32.3409 23.1565 32.7711 22.8649 33.0938C22.6826 33.273 22.4274 33.4164 22.2087 33.524C22.1358 33.6315 21.99 33.6315 21.9171 33.524C21.6254 33.3806 21.7348 32.5201 21.8806 32.2333C21.9171 32.2691 21.9535 32.2333 21.9535 32.1974Z" fill="#ED9451"/>
<path d="M0.0444946 12.3358C0.336126 11.4395 1.32039 11.0451 2.19529 10.6507C2.96082 10.2922 3.72636 9.93366 4.34608 9.39587C4.23672 9.71854 4.16381 10.0771 4.0909 10.3997C4.05445 10.5073 4.12736 10.6149 4.27317 10.6507H4.30963C4.41899 10.6507 4.4919 10.579 4.52835 10.4714C4.63771 9.93366 4.81998 9.36002 5.03871 8.82223C5.51261 7.6391 6.93433 4.91432 9.63193 5.48795C9.74129 5.52381 9.85066 5.4521 9.88711 5.34454C9.88711 5.30869 9.88711 5.27284 9.88711 5.23699C9.88711 5.20114 9.92356 5.20114 9.92356 5.16528C10.1058 3.80289 10.6162 1.97442 12.0744 0.86299C13.2409 -0.033321 15.1365 -0.391845 16.303 0.57617C16.4489 0.755433 16.6311 1.0064 16.5582 1.14981C16.5218 1.22151 16.2666 1.22151 16.1208 1.22151C16.0479 1.22151 15.9749 1.22151 15.9385 1.22151C14.9907 1.29322 14.0429 1.58004 13.2409 2.04612C11.8921 2.83487 10.5068 4.30482 10.9078 5.91818C10.8714 5.98989 10.8714 6.06159 10.9443 6.09745C11.6369 7.02961 11.4911 8.24859 11.2724 9.21661C11.1995 9.57513 11.0901 9.96951 10.9807 10.328L10.9078 10.6507C10.9078 10.6507 10.9078 10.6507 10.9078 10.6866L10.8714 10.83C10.7256 11.4036 10.5797 12.049 10.4704 12.7301C10.4704 12.8377 10.5433 12.9453 10.6526 12.9453H10.6891C10.7985 12.9453 10.8714 12.8736 10.9078 12.766C10.9443 12.515 10.9807 12.2282 11.0536 11.9772C11.3088 12.4792 11.7463 12.8736 12.1837 13.3038C12.6576 13.7699 13.1315 14.1642 13.3138 14.6662C13.4232 14.953 13.2044 15.7417 12.9493 15.921C12.9128 15.9569 12.8399 15.9927 12.6941 15.8135C12.6212 15.7059 12.5847 15.5625 12.5847 15.4191C12.5483 15.1681 12.5118 14.8454 12.1837 14.6662C11.8921 14.5228 11.4911 14.5228 11.1266 14.5586C10.9807 14.5586 10.8714 14.5586 10.762 14.5586C10.762 14.3794 10.7985 14.2001 10.7985 14.0208C10.7985 13.9133 10.7256 13.8057 10.6162 13.8057C10.5068 13.8057 10.3975 13.8774 10.3975 13.985C10.361 14.2359 10.361 14.4869 10.361 14.7379C10.2152 17.391 10.5068 20.0082 11.2724 22.5896L11.3817 22.9481C11.8921 24.7766 12.6212 27.2504 14.5532 27.9316C15.2094 28.2901 15.8656 28.7203 16.1572 29.3657C16.2301 29.5091 16.2666 29.6525 16.303 29.7959C16.3395 30.011 16.4124 30.2261 16.5582 30.4412C16.7769 30.7639 17.105 30.9432 17.4696 31.1224C17.5789 31.1583 17.6883 31.23 17.7977 31.2659C18.4174 31.5168 19.1465 31.6602 19.7662 31.8036C20.0943 31.8753 20.4588 31.9112 20.8598 31.9471C21.1514 31.9829 21.4066 31.9829 21.6982 32.0546C21.4431 32.9868 21.4431 33.5963 21.6982 33.9189C20.8963 34.1699 20.0578 34.3492 19.1465 34.4209C17.3967 34.5643 15.6469 34.3133 13.97 33.668C13.97 33.6321 13.97 33.5963 13.97 33.5604C13.9335 33.4887 13.8971 33.3811 13.8606 33.3094C13.7148 32.8792 13.4596 32.1622 12.8399 32.3056C12.7305 32.3414 12.6576 32.449 12.6941 32.5565C12.7305 32.6641 12.8399 32.7358 12.9493 32.7C13.168 32.6283 13.3138 32.9868 13.4596 33.417V33.4529C13.2044 33.3453 12.9493 33.2377 12.7305 33.1302C12.6941 33.0943 12.6576 33.0585 12.6212 33.0585C12.2931 32.9509 11.9285 32.8434 11.6005 32.7717V32.7358C11.965 31.481 12.4024 29.9035 13.6419 29.294C13.7512 29.2581 13.7877 29.1147 13.7512 29.0072C13.7148 28.8996 13.569 28.8637 13.4596 28.8996C12.0379 29.5808 11.564 31.2659 11.1995 32.6282V32.6641C11.163 32.7358 11.163 32.8075 11.163 32.8792L11.1266 33.0943C10.9807 33.668 10.8349 34.2775 10.4339 34.6718C10.2152 34.887 9.92356 35.0304 9.59548 34.9945C9.23094 34.9945 8.86639 34.8152 8.61121 34.5284C8.17377 34.0623 8.02795 33.4529 8.21022 32.6641C8.35604 31.9112 8.79349 31.1583 9.12157 30.6564C9.66839 29.8318 11.0536 27.9316 12.7305 27.9316H12.767C12.8763 27.9316 12.9857 27.824 12.9857 27.7165C12.9857 27.6089 12.9128 27.5014 12.767 27.5014H12.7305C10.9443 27.5014 9.48611 29.3298 8.79349 30.4054C8.50185 30.8715 8.10086 31.5885 7.88213 32.3056C7.51759 32.0188 7.1895 31.7319 6.89787 31.3734C6.86142 31.3376 6.78851 31.3017 6.75205 31.3017C6.67915 31.2659 6.56978 31.2659 6.53333 31.3376C5.80425 32.0188 4.78353 32.3773 3.65345 32.4131C3.17955 32.4131 2.01302 32.3773 1.72138 31.6244C1.57557 31.2659 1.68493 30.8356 2.04947 30.6564C2.37756 30.513 2.63274 30.7281 2.99728 31.0507C3.03373 31.0866 3.03373 31.0866 3.07019 31.1224C3.216 31.2659 3.36182 31.4093 3.617 31.3734C3.83572 31.3376 4.05445 31.1224 4.30963 30.8715L4.38254 30.7998C4.85644 30.3337 5.18453 29.7242 5.29389 29.0789V29.043C5.33034 29.0071 5.33034 28.9354 5.29389 28.8637C4.34608 26.605 4.23672 24.0595 4.16381 21.5857V21.0479C4.05445 17.8212 4.12736 15.1681 4.34608 12.6584C4.34608 12.5867 4.30963 12.5509 4.27317 12.515C4.27317 12.515 4.27317 12.515 4.27317 12.4792C4.20026 12.4075 4.05445 12.3716 3.98154 12.4433C3.617 12.766 3.10664 12.9094 2.48692 12.8736C1.8672 12.8377 1.72138 12.9094 1.21102 13.2679C1.02875 13.4113 0.737122 13.5189 0.481943 13.3396C0.00803947 13.1962 -0.0648689 12.7301 0.0444946 12.3358ZM13.5325 30.3695C13.4232 30.3695 13.3138 30.4412 13.3138 30.5847C13.3138 30.9073 13.4596 31.1942 13.7512 31.3017C13.8606 31.3376 13.97 31.3734 14.0793 31.3734C14.371 31.3734 14.6261 31.2659 14.8449 31.0507C14.9178 30.979 14.9178 30.8356 14.8449 30.7639C14.772 30.6922 14.6261 30.6922 14.5532 30.7639C14.371 30.9432 14.1158 30.979 13.97 30.9432C13.8606 30.9073 13.7877 30.7998 13.7877 30.6205C13.7512 30.4412 13.6419 30.3695 13.5325 30.3695Z" fill="#ED9451"/>
<path d="M16.814 30.2604C16.7047 30.1169 16.6682 29.9377 16.6317 29.7226C16.5953 29.5433 16.5588 29.3999 16.4859 29.2206C16.2672 28.7545 15.9027 28.396 15.5017 28.0734C16.0849 28.2526 16.5953 28.5753 16.9598 29.0414C17.2879 29.3999 17.616 30.0094 17.616 30.7981H17.5796C17.2515 30.6189 16.9598 30.4755 16.814 30.2604Z" fill="#ED9451"/>
</svg>
