<svg width="51" height="52" viewBox="0 0 51 52" fill="none" xmlns="http://www.w3.org/2000/svg">
<path d="M46.3851 11.6635C44.0362 14.9034 41.1203 15.8754 38.3664 13.0405C35.5315 9.8816 27.8368 8.34266 23.544 13.0405C19.4942 17.2523 18.1172 23.4081 22.653 27.6199C23.301 27.7009 24.192 27.9439 24.7589 28.5919H26.1359C26.4599 28.5919 26.7029 28.6729 26.8649 28.8349C27.2698 28.4299 27.2699 27.1339 26.3789 26.648C22.653 24.38 21.8431 21.3832 24.111 17.4953L24.597 24.299C25.0829 24.947 25.8119 25.514 26.7029 26C27.9178 26.7289 28.2418 28.3489 27.2698 29.4828C27.6748 30.5358 27.4318 32.8037 25.2449 33.2897V33.6947C25.2449 33.8567 25.3259 34.0187 25.4879 34.0997C25.4879 34.0997 25.4879 34.0997 25.4879 34.1807V49.6511C25.4879 50.947 26.5409 52 27.8368 52C29.1328 52 30.1857 50.947 30.1857 49.6511V34.0187H31.4817V49.4891C31.4817 50.785 32.5346 51.838 33.8306 51.838C35.1266 51.838 36.1795 50.785 36.1795 49.4891V34.0187C36.1795 34.0187 36.1795 34.0187 36.1795 33.9377C36.3415 33.8567 36.4225 33.6947 36.4225 33.5327L37.7184 16.4423C40.7153 18.3863 44.1172 18.2243 47.0331 15.5514L47.9241 11.0156C47.2761 10.9346 46.7091 11.1775 46.3851 11.6635Z" fill="#ED9451"/>
<path d="M30.8337 9.07165C33.3388 9.07165 35.3695 7.04089 35.3695 4.53583C35.3695 2.03076 33.3388 0 30.8337 0C28.3286 0 26.2979 2.03076 26.2979 4.53583C26.2979 7.04089 28.3286 9.07165 30.8337 9.07165Z" fill="#ED9451"/>
<path d="M26.6219 29.7259C26.5409 29.4829 26.3789 29.3209 26.0549 29.3209H24.273C23.787 28.1869 21.8431 28.3489 21.8431 28.3489L21.1951 27.5389C19.5751 28.1869 19.6561 29.8069 19.6561 29.8069L16.8212 32.6417C13.1764 35.2336 8.96455 31.8318 4.50972 33.1277C4.10473 33.2087 3.69975 33.2087 3.37576 32.9657L1.83682 31.9128C0.945856 31.1028 0.702866 31.0218 0.702866 31.0218C-0.512088 30.7788 0.216884 31.8318 0.216884 31.8318L3.13277 34.3427C1.83682 35.2336 2.4848 37.5826 2.4848 37.5826L2.72779 41.2274C2.80878 41.9564 1.51283 43.6573 1.51283 43.6573C1.35084 44.0623 1.75583 48.1931 1.75583 48.1931C1.91782 49.1651 3.86174 48.8411 3.86174 48.8411C4.59072 48.3551 3.29477 47.7882 3.29477 47.7882L2.80878 46.9782C2.3228 45.1153 3.13277 44.3053 3.13277 44.3053L4.67171 47.7072C5.0767 48.2741 6.61564 48.0312 6.61564 48.0312C7.6686 47.6262 6.12966 46.9782 6.12966 46.9782C4.9147 47.0592 4.9147 46.0062 4.9147 46.0062C4.26673 44.6293 5.15769 43.6573 5.15769 43.6573C6.77763 41.7134 7.26361 39.8505 7.26361 39.8505C7.26361 38.4735 7.83059 38.7165 7.83059 38.7165C8.80255 40.0125 14.4723 41.3084 14.4723 41.3084L14.5533 46.1682C14.2293 46.8162 14.7963 46.8972 14.7963 46.8972L14.8773 48.3551C14.8773 49.3271 15.4443 49.4891 15.4443 49.4891C16.8212 49.6511 17.8742 49.3271 17.8742 49.3271C17.7122 48.7601 16.2543 47.8692 16.2543 47.8692C16.0923 47.0592 16.3353 46.3302 16.3353 46.3302C16.7402 46.4112 17.3882 48.2741 17.3882 48.2741C18.0362 48.7601 19.7371 48.4361 19.7371 48.4361C19.5751 47.7072 18.7652 47.4642 18.7652 47.4642C17.9552 47.4642 17.8742 46.7352 17.8742 46.7352C17.5502 45.4393 18.0362 40.9034 18.0362 40.9034C18.8462 39.7695 19.4941 38.0685 19.4941 38.0685C19.7371 35.5576 20.9521 33.9377 20.9521 33.9377C22.248 33.9377 24.192 32.5607 24.192 32.5607C26.8649 32.3988 26.7839 30.5358 26.6219 29.7259Z" fill="#ED9451"/>
<path d="M49.625 7.93773C49.382 7.93773 49.22 8.01873 49.139 8.26172L47.6811 16.1184C47.6811 16.3614 47.7621 16.5234 48.0051 16.6044C48.2481 16.6044 48.4101 16.5234 48.4911 16.2804L50.03 8.34272C50.03 8.18073 49.868 7.93773 49.625 7.93773Z" fill="#ED9451"/>
</svg>
