<svg width="76" height="79" viewBox="0 0 76 79" fill="none" xmlns="http://www.w3.org/2000/svg">
<path d="M70.4631 17.7196C66.8949 22.6417 62.4654 24.1184 58.282 19.8115C53.9756 15.0124 42.2866 12.6744 35.7654 19.8115C29.6133 26.2103 27.5216 35.5623 34.412 41.961C35.3963 42.0841 36.7497 42.4533 37.611 43.4377H39.7027C40.1949 43.4377 40.564 43.5607 40.8101 43.8068C41.4253 43.1916 41.4253 41.2227 40.0719 40.4844C34.412 37.0389 33.1815 32.486 36.6267 26.5794L37.365 36.9159C38.1032 37.9003 39.2106 38.7617 40.564 39.5C42.4097 40.6075 42.9018 43.0685 41.4253 44.7913C42.0405 46.391 41.6714 49.8364 38.3493 50.5748V51.19C38.3493 51.4361 38.4723 51.6822 38.7184 51.8053C38.7184 51.8053 38.7184 51.8053 38.7184 51.9283V75.4315C38.7184 77.4003 40.318 79 42.2866 79C44.2553 79 45.8548 77.4003 45.8548 75.4315V51.6822H47.8235V75.1854C47.8235 77.1542 49.423 78.7539 51.3917 78.7539C53.3603 78.7539 54.9599 77.1542 54.9599 75.1854V51.6822C54.9599 51.6822 54.9599 51.6822 54.9599 51.5592C55.206 51.4361 55.329 51.19 55.329 50.9439L57.2977 24.9797C61.8502 27.933 67.0179 27.6869 71.4474 23.6261L72.8009 16.7352C71.8166 16.6121 70.9553 16.9813 70.4631 17.7196Z" fill="#ED9451"/>
<path d="M46.8391 13.7819C50.6446 13.7819 53.7295 10.6967 53.7295 6.89097C53.7295 3.08519 50.6446 0 46.8391 0C43.0337 0 39.9488 3.08519 39.9488 6.89097C39.9488 10.6967 43.0337 13.7819 46.8391 13.7819Z" fill="#ED9451"/>
<path d="M40.441 45.1605C40.3179 44.7913 40.0719 44.5452 39.5797 44.5452H36.8728C36.1345 42.8225 33.1815 43.0686 33.1815 43.0686L32.1972 41.838C29.7364 42.8225 29.8594 45.2835 29.8594 45.2835L25.553 49.5904C20.0161 53.5281 13.6179 48.3598 6.85066 50.3287C6.23546 50.4517 5.62025 50.4517 5.12808 50.0826L2.7903 48.4829C1.43684 47.2524 1.06772 47.1293 1.06772 47.1293C-0.777907 46.7601 0.329466 48.3598 0.329466 48.3598L4.75896 52.1745C2.7903 53.5281 3.77463 57.0966 3.77463 57.0966L4.14375 62.634C4.26679 63.7415 2.29813 66.3256 2.29813 66.3256C2.05205 66.9408 2.66725 73.2165 2.66725 73.2165C2.91334 74.6932 5.86633 74.201 5.86633 74.201C6.97371 73.4626 5.00504 72.6013 5.00504 72.6013L4.26679 71.3708C3.52854 68.5405 4.75896 67.31 4.75896 67.31L7.09675 72.4782C7.71195 73.3396 10.0497 72.9704 10.0497 72.9704C11.6493 72.3552 9.31149 71.3708 9.31149 71.3708C7.46587 71.4938 7.46587 69.8941 7.46587 69.8941C6.48154 67.8022 7.835 66.3256 7.835 66.3256C10.2958 63.3723 11.0341 60.5421 11.0341 60.5421C11.0341 58.4502 11.8954 58.8193 11.8954 58.8193C13.3719 60.7882 21.9848 62.757 21.9848 62.757L22.1078 70.1402C21.6156 71.1246 22.4769 71.2477 22.4769 71.2477L22.6 73.4627C22.6 74.9393 23.4613 75.1854 23.4613 75.1854C25.553 75.4315 27.1525 74.9393 27.1525 74.9393C26.9064 74.0779 24.6917 72.7243 24.6917 72.7243C24.4456 71.4938 24.8147 70.3863 24.8147 70.3863C25.4299 70.5094 26.4143 73.3396 26.4143 73.3396C27.3986 74.0779 29.9825 73.5857 29.9825 73.5857C29.7364 72.4782 28.506 72.1091 28.506 72.1091C27.2755 72.1091 27.1525 71.0016 27.1525 71.0016C26.6603 69.0327 27.3986 62.1418 27.3986 62.1418C28.629 60.419 29.6133 57.8349 29.6133 57.8349C29.9825 54.0203 31.8281 51.5592 31.8281 51.5592C33.7967 51.5592 36.7497 49.4673 36.7497 49.4673C40.8101 49.2212 40.6871 46.391 40.441 45.1605Z" fill="#ED9451"/>
<path d="M75.3848 12.0593C75.0157 12.0593 74.7696 12.1823 74.6465 12.5515L72.4318 24.4876C72.4318 24.8568 72.5548 25.1029 72.924 25.2259C73.2931 25.2259 73.5392 25.1029 73.6622 24.7337L76 12.6745C76 12.4284 75.7539 12.0593 75.3848 12.0593Z" fill="#ED9451"/>
</svg>
