<svg width="15" height="16" viewBox="0 0 15 16" fill="none" xmlns="http://www.w3.org/2000/svg">
<path d="M3.01667 6.92444C4.21667 9.44 6.15 11.4933 8.50833 12.7822L10.3417 10.8267C10.5667 10.5867 10.9 10.5067 11.1917 10.6133C12.125 10.9422 13.1333 11.12 14.1667 11.12C14.625 11.12 15 11.52 15 12.0089V15.1111C15 15.6 14.625 16 14.1667 16C6.34167 16 0 9.23556 0 0.888889C0 0.4 0.375 0 0.833333 0H3.75C4.20833 0 4.58333 0.4 4.58333 0.888889C4.58333 2 4.75 3.06667 5.05833 4.06222C5.15 4.37333 5.08333 4.72 4.85 4.96889L3.01667 6.92444Z" fill="#81918A"/>
</svg>
