<svg width="76" height="40" viewBox="0 0 76 40" fill="none" xmlns="http://www.w3.org/2000/svg">
<path d="M13.9701 11.2763C14.1251 11.2011 14.1251 10.9756 14.0476 10.8252C14.0476 10.7501 14.0476 10.7501 13.9701 10.6749C11.8776 8.26927 11.9551 5.03674 14.2026 2.33043C15.1326 1.27798 16.9151 0.0751752 18.6201 0C19.3176 0 20.0151 0.150351 20.4802 0.526227C18.3876 1.35315 16.2176 2.40561 15.2101 4.43534C14.6676 5.56297 14.5901 6.91612 14.9776 7.96858C15.2101 8.56998 15.5976 9.0962 16.0626 9.47208C16.0626 9.54725 15.9851 9.62243 16.0626 9.6976C16.1401 9.92313 16.2951 9.99831 16.5276 9.99831C16.6826 9.99831 16.8376 9.92313 16.9926 9.92313C18.8526 9.6976 20.5577 10.4494 21.8752 11.1259C21.8752 11.1259 21.9527 11.1259 21.9527 11.2011C22.6502 11.577 23.3477 11.9529 23.9677 12.3287L24.5102 12.6294C25.6727 13.306 26.8352 13.9826 27.8427 14.584L27.9977 14.7343C29.3152 15.5613 30.7102 16.3882 32.0277 17.14C35.9027 19.32 41.0952 21.9512 46.6752 22.2519C46.9852 22.2519 47.3727 22.2519 47.6827 22.2519C50.0077 22.2519 52.1777 21.8008 54.0377 20.8987C55.2778 20.2973 56.1303 19.7711 56.7503 18.7186C56.9828 18.2676 57.2153 17.9669 57.4478 17.7414C57.9128 17.14 58.4553 16.8393 58.9978 16.6889C59.7728 16.5385 60.7803 16.7641 61.6328 16.9896C62.0203 17.0648 62.4853 17.2151 62.8728 17.2903C64.5003 17.591 66.0503 17.7414 67.6778 17.7414C69.1503 17.7414 70.6228 17.591 72.0178 17.2903C72.2503 17.2151 72.4828 17.2151 72.7153 17.14H72.7928C73.2578 18.4931 74.1103 19.2449 75.1953 19.3952C74.4978 20.598 73.0253 21.876 72.1728 22.327C71.6303 22.6277 71.0878 22.8533 70.3903 23.0788C69.8478 23.2291 69.8478 23.2291 69.6153 23.154C69.4603 23.0788 69.3053 23.0036 69.0728 22.8533C68.4528 22.5526 67.9103 22.6277 67.6003 22.9284C67.4453 23.0788 67.2903 23.3043 67.3678 23.8305C66.4378 23.9809 65.5078 24.0561 64.6553 24.1312H64.4228C63.1828 24.2064 62.0203 24.2816 60.9353 24.5823C58.9978 19.2449 59.8503 18.7186 59.9278 18.6435C60.1603 18.5683 60.2378 18.3428 60.1603 18.1924C60.0828 17.9669 59.8503 17.8917 59.6953 17.9669C58.9978 18.2676 58.2228 19.32 60.3928 25.1837C60.4703 25.4844 60.6253 25.7099 60.7028 25.9355L61.0128 26.9127C61.6328 28.6418 62.2528 30.3708 62.5628 32.175V32.3253C62.6403 32.9268 62.7178 33.5282 62.7178 34.1296C62.7178 34.8813 62.5628 35.4075 62.3303 35.8586C62.0203 36.3848 61.6328 36.6103 61.2453 36.6103C60.4703 36.6103 59.4628 35.5579 58.9978 34.5806C58.2228 33.0019 57.6803 31.3481 57.3703 29.4687V29.3935C56.7503 25.6348 57.1378 21.6505 58.5328 18.2676C58.6103 18.0421 58.5328 17.8917 58.3003 17.8165C58.0678 17.7414 57.9128 17.8165 57.8353 18.0421C56.3628 21.5753 55.9753 25.7099 56.5953 29.5439V29.619C56.2078 30.8218 55.8978 31.9495 55.2003 32.9267C55.1228 33.0771 54.9678 33.2275 54.8128 33.3778C54.3477 33.904 53.8052 34.5806 54.1152 35.4075C54.2703 35.8586 54.6578 36.2345 54.9678 36.5352C55.3553 36.911 55.6653 37.2117 55.7428 37.738C55.8203 38.0387 55.8978 38.9408 55.1228 39.1663C53.6502 39.6173 52.3327 37.6628 51.8677 36.6103C51.5577 35.9338 51.3252 35.1068 51.1702 34.2047C51.1702 34.1296 51.1702 34.1296 51.1702 34.0544C51.0152 33.2274 50.8602 32.4005 50.7827 31.6488V31.5736C50.7827 31.3481 50.5502 31.1977 50.3177 31.2729C50.0852 31.2729 49.9302 31.4984 50.0077 31.7239V31.7991C50.0852 32.4757 50.2402 33.2275 50.3952 33.904C45.9002 34.0544 41.1727 34.0544 36.6002 33.453C34.5852 33.1523 32.4152 32.7012 30.1677 32.0998C29.7027 31.9495 29.1602 31.7991 28.6952 31.6488C27.1452 31.1977 25.5177 30.7467 23.8127 30.5211C24.1227 29.3183 24.2002 27.9652 24.0452 26.6872C24.0452 26.4617 23.8127 26.3113 23.6577 26.3865C23.4252 26.3865 23.2702 26.612 23.3477 26.7624C23.5027 28.1155 23.4252 29.4687 23.0377 30.6715C22.8827 31.2729 22.6502 31.7991 22.4177 32.2502C21.7202 33.5282 21.5652 33.904 22.4177 35.2572C22.4952 35.4075 22.5727 35.5579 22.7277 35.7082C23.1152 36.2345 23.5802 36.9862 23.5027 37.5124C23.4252 37.6628 23.3477 37.8131 23.1927 37.8883C22.7277 38.1138 21.9527 37.9635 21.5652 37.8131C20.0927 37.0614 19.6277 34.9565 19.1627 33.0771C19.0076 32.3253 18.7751 31.5736 18.5426 30.9722C17.8451 29.2432 17.0701 27.3638 15.8301 25.8603C14.8226 24.7327 13.7376 23.3043 12.9626 21.6505C11.1801 18.1924 11.0251 13.6819 13.9701 11.2763ZM63.4153 20.3725C64.2678 20.5228 64.6553 19.0193 63.6478 18.869C62.7178 18.7186 62.4853 20.2221 63.4153 20.3725Z" fill="#63736C"/>
<path d="M75.1954 18.493C75.0404 18.4179 74.8854 18.3427 74.7304 18.2675C74.4979 18.1923 74.2654 18.042 74.0329 17.7413C73.8004 17.4406 73.3354 16.9895 73.4904 16.764C73.5679 16.6888 73.6454 16.6137 73.9554 16.5385C74.0329 16.5385 74.1104 16.4633 74.1879 16.4633C74.3429 16.4633 74.4979 16.4633 74.7304 16.4633C75.0404 16.4633 75.3504 16.4633 75.5829 16.6137C76.2029 16.9895 76.0479 18.3427 75.6604 18.493C75.5829 18.493 75.5054 18.493 75.4279 18.493C75.2729 18.4179 75.1179 18.3427 75.0404 18.2675C75.0404 18.4179 75.1179 18.493 75.1954 18.493Z" fill="#ED9451"/>
<path d="M30.3225 7.06643C30.245 7.14161 30.09 7.29196 30.0125 7.36713C29.005 8.34441 28.9275 9.62239 28.85 10.9004C28.7725 11.9528 28.695 13.0053 28.075 13.757C27.145 13.2308 26.06 12.5542 25.0525 11.9528L24.51 11.6521C24.045 11.4266 23.6575 11.1259 23.1925 10.9004C25.44 9.99827 27.455 8.04371 28.4625 5.6381C28.54 5.48775 28.6175 5.26223 28.695 5.0367C29.315 3.38285 30.09 1.57864 31.2525 2.02969C32.1825 2.33039 32.4925 3.45802 32.26 4.4353C31.8725 5.56293 31.175 6.2395 30.3225 7.06643Z" fill="#63736C"/>
<path d="M75.7378 18.6434C75.6603 18.6434 75.6603 18.5682 75.7378 18.6434V18.5682C75.7378 18.5682 75.7378 18.5682 75.7378 18.6434Z" fill="#63736C"/>
<path d="M10.2502 20.7483C10.7152 20.5228 11.1802 20.3724 11.7227 20.2221C11.9552 20.1469 12.1102 20.2221 12.1877 20.4476C12.2652 20.6732 12.1877 20.8235 11.9552 20.8987C11.4902 21.049 11.0252 21.2746 10.5602 21.4249C10.4827 21.4249 10.4827 21.4249 10.4052 21.4249C10.2502 21.4249 10.0952 21.3497 10.0177 21.1994C10.0177 21.049 10.0952 20.8235 10.2502 20.7483Z" fill="#63736C"/>
<path d="M3.89544 25.0334C4.05044 24.883 4.28295 24.883 4.43795 25.0334C4.59295 25.1837 4.59295 25.4092 4.43795 25.5596C4.12795 25.9355 3.81794 26.3113 3.50794 26.6872C3.43044 26.7624 3.35294 26.8376 3.19794 26.8376C3.12044 26.8376 3.04294 26.8376 2.96544 26.7624C2.81044 26.612 2.73294 26.3865 2.88794 26.2362C3.19794 25.7851 3.58544 25.4092 3.89544 25.0334Z" fill="#63736C"/>
<path d="M0.71742 32.2502C0.484919 32.175 0.407418 32.0246 0.407418 31.7991C0.562418 31.2729 0.639918 30.8218 0.794919 30.3708C0.872419 30.1453 1.10492 30.0701 1.25992 30.1453C1.49242 30.2204 1.56992 30.446 1.49242 30.5963C1.33742 31.0474 1.18242 31.4984 1.10492 32.0246C1.02742 32.175 0.87242 32.3253 0.71742 32.3253C0.79492 32.2502 0.71742 32.2502 0.71742 32.2502Z" fill="#63736C"/>
<path d="M0.175053 33.2275C0.175053 33.002 0.407552 32.8516 0.640053 32.9268C0.872553 32.9268 1.02756 33.1523 0.950055 33.3778C0.872555 33.6785 0.872551 33.9792 0.795051 34.2799C0.795051 34.5055 0.64005 34.5806 0.40755 34.5806C0.40755 34.5806 0.407551 34.5806 0.330051 34.5806C0.0975499 34.5806 -0.0574516 34.3551 0.0200486 34.2048C0.0975488 33.8289 0.0975524 33.5282 0.175053 33.2275Z" fill="#63736C"/>
<path d="M7.53746 22.1766C8.00246 21.9511 8.38996 21.6504 8.93246 21.4249C9.08746 21.3497 9.31997 21.4249 9.47497 21.5752C9.55247 21.7256 9.47496 21.9511 9.31996 22.1015C8.85496 22.327 8.38996 22.5525 8.00246 22.8532C7.92496 22.9284 7.84746 22.9284 7.76996 22.9284C7.61496 22.9284 7.53746 22.8532 7.45996 22.778C7.30496 22.4773 7.30496 22.2518 7.53746 22.1766Z" fill="#63736C"/>
<path d="M1.41542 28.8673C1.64792 28.4162 1.88042 27.9652 2.11292 27.5141C2.19042 27.3638 2.42292 27.2886 2.65542 27.3638C2.81042 27.439 2.88792 27.6645 2.81042 27.89C2.57792 28.3411 2.34542 28.7169 2.11292 29.168C2.03542 29.3183 1.88042 29.3935 1.72542 29.3935C1.64792 29.3935 1.64791 29.3935 1.57041 29.3935C1.41541 29.3183 1.33792 29.0928 1.41542 28.8673Z" fill="#63736C"/>
<path d="M6.22018 23.0036C6.37518 22.8532 6.60768 22.9284 6.76268 23.0788C6.91768 23.2291 6.84018 23.4546 6.68518 23.605C6.29767 23.9057 5.91017 24.2064 5.52267 24.5071C5.44517 24.5823 5.36768 24.5823 5.29018 24.5823C5.21268 24.5823 5.05767 24.5071 4.98017 24.4319C4.82517 24.2816 4.82517 24.056 4.98017 23.9057C5.36767 23.605 5.83267 23.3043 6.22018 23.0036Z" fill="#63736C"/>
</svg>
