<svg width="51" height="96" viewBox="0 0 51 96" fill="none" xmlns="http://www.w3.org/2000/svg">
<path d="M50.2231 39.708C50.1231 39.126 49.8231 38.835 49.4231 38.447C48.9231 37.865 48.3231 37.186 48.4231 35.925C48.4231 35.149 48.5231 34.373 48.7231 33.597C48.9231 32.336 49.0231 31.172 49.0231 29.911C48.8231 27.098 48.6231 23.315 46.5231 20.987C46.3231 20.987 46.1231 20.793 46.0231 20.502C45.7231 18.756 44.7231 15.555 43.2231 14.488L43.1231 14.391C43.0231 14.294 42.9231 14.197 42.8231 14.003C41.4231 14.391 40.0231 14.682 38.5231 14.682C36.3231 14.682 34.2231 14.1 32.6231 12.548C32.4231 12.354 32.4231 11.966 32.6231 11.772C32.8231 11.578 33.2231 11.578 33.4231 11.772C35.8231 14.197 40.1231 13.809 43.0231 12.742C43.8231 12.451 44.6231 12.063 45.2231 11.675C48.4231 9.73499 50.6231 5.46699 48.5231 1.97499C47.9231 0.907986 47.0231 0.228986 46.2231 0.0349859C45.6231 -0.0620141 45.0231 0.0349859 44.5231 0.422986C43.6231 1.10199 42.8231 2.07199 42.1231 3.13899C41.8231 3.62399 41.4231 4.01199 41.1231 4.49699C40.5231 5.17599 39.8231 6.04899 38.9231 6.92199C36.1231 9.54099 33.5231 10.123 31.2231 8.66799C30.9231 8.47399 30.8231 8.18299 31.0231 7.89199C31.2231 7.60099 31.5231 7.50399 31.8231 7.69799C33.5231 8.57099 35.4231 8.27999 37.5231 6.43699C37.2231 6.24299 37.0231 6.04899 36.7231 5.85499C35.0231 4.59399 33.6231 3.52699 31.4231 3.13899C29.2231 2.75099 26.8231 2.84799 24.6231 3.33299C21.1231 4.10899 18.3231 6.14599 16.8231 9.05599C16.5231 9.54099 16.3231 10.026 16.2231 10.608C16.1231 10.899 15.9231 10.996 15.6231 10.996C15.5231 10.996 15.5231 10.996 15.4231 10.996C15.1231 10.899 14.9231 10.608 15.0231 10.317C15.1231 9.92899 15.2231 9.63799 15.4231 9.24999C14.3231 9.34699 12.9231 10.22 11.9231 10.996C11.5231 11.287 11.2231 11.481 10.9231 11.675C8.62311 13.033 6.82311 14.488 5.22311 16.331C1.72311 20.308 -1.47689 24.867 0.723108 28.747C1.62311 30.299 3.62311 31.754 5.42311 31.463C6.82311 31.269 7.52311 29.717 8.02311 28.262C8.22311 27.583 8.52311 26.904 8.72311 26.225C10.0231 22.345 11.2231 18.756 14.4231 15.846C14.3231 14.973 14.4231 14.197 14.7231 13.421C14.8231 13.13 15.1231 13.033 15.4231 13.033C15.7231 13.13 15.9231 13.421 15.8231 13.712C15.4231 15.749 16.1231 17.398 16.8231 19.144C16.9231 19.338 16.9231 19.532 17.0231 19.629C17.0231 19.726 17.1231 19.726 17.1231 19.823V19.92C17.4231 20.599 17.6231 21.181 17.7231 21.86C17.9231 22.83 18.0231 23.897 18.1231 24.964C18.1231 25.546 18.1231 26.225 18.1231 26.904C18.1231 29.135 18.1231 31.463 18.9231 33.403C19.6231 32.821 20.7231 32.724 21.3231 32.821C22.5231 33.015 23.5231 33.888 23.6231 34.955C23.6231 35.052 23.6231 35.149 23.6231 35.246C25.5231 33.985 26.2231 31.172 26.8231 28.165C27.3231 25.643 28.0231 23.8 29.8231 21.957C31.1231 20.696 32.6231 18.465 32.3231 16.525C32.3231 16.234 32.5231 15.943 32.7231 15.943C33.0231 15.846 33.3231 16.04 33.4231 16.331C34.3231 18.562 32.1231 21.472 30.6231 22.927C28.8231 24.673 28.4231 26.419 27.8231 28.941C27.4231 31.075 26.1231 37.283 21.6231 37.283C21.3231 37.283 21.0231 37.283 20.7231 37.186C20.2231 37.089 19.8231 36.895 19.4231 36.701C18.4231 37.671 17.6231 38.835 16.9231 39.999C16.4231 40.775 15.9231 41.454 15.4231 42.23C13.7231 44.461 12.2231 46.595 11.0231 49.02C7.92311 55.131 7.02311 60.466 8.32311 64.928C8.42311 65.219 8.22311 65.51 7.92311 65.607C6.02311 68.711 6.92311 72.494 7.62311 74.531C7.7231 74.822 7.92311 75.21 8.12311 75.598C8.62311 76.568 9.22311 77.635 8.82311 78.799C8.62311 79.381 8.32311 79.769 8.02311 80.254C7.42311 81.127 7.12311 81.612 7.52311 82.291C7.92311 82.97 8.52311 83.358 9.32311 83.261C10.5231 83.164 11.9231 82 12.3231 80.836C12.7231 79.769 12.5231 78.605 12.3231 77.441C12.6231 76.956 12.5231 76.471 12.5231 75.889C12.4231 74.628 12.8231 73.658 13.3231 72.591C13.3231 72.494 13.4231 72.397 13.4231 72.3C12.8231 72.009 12.2231 71.621 11.6231 71.233C11.3231 71.039 11.3231 70.651 11.5231 70.457C11.7231 70.166 12.1231 70.166 12.3231 70.36C12.9231 70.748 13.5231 71.136 14.1231 71.427C14.2231 71.427 14.3231 71.427 14.4231 71.427C14.5231 71.427 14.6231 71.524 14.6231 71.621C15.1231 71.815 15.6231 72.009 16.1231 72.203C16.2231 72.203 16.2231 72.3 16.3231 72.3C16.5231 72.3 16.7231 72.494 16.8231 72.785C17.0231 74.046 17.1231 75.21 17.1231 76.374C17.2231 78.314 17.3231 80.157 18.0231 82.097C19.0231 84.619 20.4231 87.141 22.3231 89.566C23.9231 91.603 25.8231 93.737 28.1231 94.707C29.6231 95.386 30.5231 95.386 30.7231 95.289C30.8231 95.192 30.8231 95.192 30.8231 95.095C30.8231 94.901 30.6231 94.513 30.1231 94.028C29.6231 93.543 29.0231 93.058 28.5231 92.476C27.0231 91.118 25.5231 89.76 24.2231 88.014C22.6231 85.88 21.4231 83.455 20.5231 80.642L20.4231 80.351C19.7231 78.023 18.5231 74.24 20.4231 72.494C21.0231 71.912 21.9231 71.815 22.7231 71.621C23.0231 71.524 23.2231 71.524 23.5231 71.427C23.9231 71.33 24.3231 71.136 24.7231 71.039C25.5231 70.748 26.3231 70.36 27.2231 69.778C27.5231 69.584 27.8231 69.681 28.0231 69.972C28.2231 70.263 28.1231 70.554 27.8231 70.748C27.1231 71.136 26.5231 71.427 25.9231 71.718C27.9231 73.27 27.8231 75.889 27.6231 78.12C27.6231 78.702 27.5231 79.284 27.5231 79.769C27.5231 81.127 28.4231 83.261 29.6231 84.037C30.2231 84.425 30.8231 84.522 31.4231 84.231C32.8231 83.649 33.0231 81.709 32.6231 80.545C32.5231 80.157 32.2231 79.769 32.0231 79.381C31.8231 78.993 31.5231 78.605 31.3231 78.12C30.9231 77.15 31.3231 76.18 31.6231 75.307V75.21C31.8231 74.531 32.1231 73.755 32.5231 73.076C33.6231 70.457 34.8231 67.838 33.0231 65.607C33.0231 65.51 32.9231 65.51 32.9231 65.413C32.8231 65.219 32.8231 64.928 33.0231 64.734C35.1231 62.309 36.6231 59.787 37.3231 57.168C37.9231 55.131 38.1231 53.094 38.4231 51.057C38.6231 49.699 38.7231 48.341 39.0231 46.983C39.7231 43.491 41.1231 40.193 42.4231 36.992C42.9231 35.925 43.3231 34.761 43.8231 33.597C43.7231 33.306 43.8231 33.015 44.0231 32.918C44.0231 32.918 44.0231 32.918 44.1231 32.918C44.6231 31.463 45.1231 30.202 45.4231 28.941C45.5231 28.65 45.8231 28.456 46.1231 28.553C46.4231 28.65 46.6231 28.941 46.5231 29.232C46.1231 30.59 45.7231 32.045 45.1231 33.597C45.6231 34.761 45.4231 36.119 45.1231 37.38C45.0231 37.865 44.9231 38.35 44.8231 38.738C44.7231 40.193 44.7231 41.939 46.0231 43.006C46.9231 43.782 47.8231 43.491 48.3231 43.2C49.7231 42.618 50.5231 40.969 50.2231 39.708ZM19.5231 19.629C17.9231 19.532 18.1231 17.107 19.7231 17.204C21.3231 17.301 21.1231 19.726 19.5231 19.629ZM27.0231 19.823C25.4231 19.726 25.6231 17.204 27.2231 17.398C28.8231 17.592 28.6231 20.017 27.0231 19.823Z" fill="#63736C"/>
<path d="M20.1231 35.537C20.4231 35.828 20.8231 36.022 21.3231 36.119C21.5231 36.119 21.6231 36.119 21.8231 36.216C21.8231 36.216 21.9231 36.119 22.0231 36.119C22.3231 36.022 22.9231 35.731 22.8231 35.246C22.7231 34.761 22.2231 34.276 21.5231 34.179C20.9231 34.082 20.1231 34.276 19.9231 34.567C19.9231 34.567 19.8231 34.664 20.0231 34.955C20.0231 35.052 20.1231 35.052 20.1231 35.149C20.1231 35.149 20.1231 35.343 20.1231 35.537Z" fill="#63736C"/>
</svg>
