<svg width="59" height="52" viewBox="0 0 59 52" fill="none" xmlns="http://www.w3.org/2000/svg">
<path d="M57.3224 17.5763C54.0833 10.5789 48.0327 4.99278 40.7598 2.22912C32.2035 -1.00495 22.1803 -0.710947 14.7241 3.05234C6.41219 7.22723 1.15615 13.8718 0.17828 21.2219C-0.860705 28.9837 2.62295 39.4503 11.1182 43.684C11.6071 43.9192 12.096 44.1544 12.6461 44.3308C12.8906 44.4484 13.0128 44.6837 12.9517 44.9189C12.8906 45.0953 12.7072 45.2129 12.4627 45.2129C12.4016 45.2129 12.3405 45.2129 12.2794 45.2129C11.9738 45.0953 11.6682 44.9777 11.3626 44.8013C13.8073 48.4469 17.9633 51.0342 22.1192 51.4458C23.3415 51.5634 24.136 51.387 24.5639 50.799C24.9306 50.211 24.7472 49.4466 24.136 49.0349C23.7693 48.7997 23.2804 48.7997 22.7304 48.7997C22.1803 48.7997 21.5691 48.8585 21.0191 48.5645C19.9801 48.1529 18.88 47.0945 18.5744 45.8597C18.3911 45.8597 18.1466 45.9185 17.9633 45.9185C17.9633 45.9185 17.9633 45.9185 17.9021 45.9185C17.6577 45.9185 17.4132 45.7421 17.4132 45.5069C17.4132 45.2717 17.5966 45.0365 17.841 44.9777C18.2077 44.9777 18.5133 44.9189 18.8189 44.8601C20.469 44.5661 21.8747 43.8604 23.0359 42.802C20.7746 41.92 19.0022 40.6852 17.7188 39.1563C17.291 38.6271 16.9243 38.0979 16.6187 37.5099C16.3131 36.9219 16.1298 36.3927 16.1298 35.9811C16.0686 35.4519 16.3131 35.1578 16.4353 34.9814C16.6798 34.7462 17.0465 34.5698 17.4743 34.5698C17.7188 34.5698 18.0855 34.6286 18.4522 34.6874C19.0634 34.8638 19.6745 34.9814 20.2246 35.0402C20.5913 35.099 20.958 35.1578 21.2636 35.2166C22.1803 35.3342 23.1582 35.393 24.136 35.393C24.4416 34.0406 23.586 33.2174 22.4859 32.159L22.3025 31.9238C22.1192 31.7474 22.1192 31.4534 22.3025 31.277C22.4859 31.1006 22.7915 31.1006 22.9748 31.277L23.1582 31.5122C24.3194 32.6294 25.3584 33.6878 25.1139 35.4519C26.0307 35.4519 27.0085 35.3931 28.1698 35.2754C26.7029 32.3354 23.4638 29.8069 18.5744 27.6313C18.4522 27.5725 18.3911 27.5137 18.33 27.3961C18.1466 27.4549 17.9021 27.3961 17.7799 27.2197C15.2741 23.574 15.7631 19.6343 19.0634 17.2234C21.8136 15.1654 25.664 14.2246 29.0865 14.7538C33.1202 15.3418 36.2372 17.9291 37.0928 21.2807C37.704 23.8092 36.7261 26.1024 35.6871 28.2781C34.7092 30.3949 33.8536 32.3354 34.4037 34.511C35.0148 34.3346 35.5649 34.0994 35.9927 33.8054C36.4816 30.2185 40.332 26.1612 44.1823 26.6317C44.4268 26.6317 44.6713 26.9257 44.6102 27.1609C44.549 27.3961 44.3046 27.6313 44.0601 27.5725C40.8209 27.2197 37.3984 30.8065 36.9706 33.9818C36.9706 34.0994 36.9094 34.1582 36.8483 34.217C36.8483 34.3346 36.7872 34.511 36.665 34.5698C35.9927 35.0402 35.1371 35.3931 34.1592 35.6283C33.3036 35.8047 32.509 35.9223 31.6534 35.9811L31.2867 36.0399C30.4311 36.1575 29.6366 36.2163 28.7809 36.2751C27.1308 36.4515 25.8473 36.5103 24.6861 36.5103C23.586 36.5103 22.6081 36.4515 21.6303 36.3339C21.5691 36.7455 21.4469 37.1571 21.3858 37.3335C21.3858 37.3335 21.3858 37.3335 21.3858 37.3923V37.4511C21.3858 37.5099 21.3858 37.5099 21.3247 37.5687V37.6275C21.0191 38.5095 20.5302 39.6267 19.7968 39.9796C20.8357 40.8616 22.1192 41.5672 23.586 42.0964C25.3584 42.7432 27.3141 43.1548 29.4532 43.3312C31.5312 43.4488 33.6703 43.39 35.626 43.0372C36.4205 42.9196 37.0928 42.7432 37.7651 42.5668C37.8262 42.5668 37.8873 42.5668 37.9484 42.5668C40.332 41.92 42.6544 41.0968 44.9157 40.2148C45.1602 40.0971 45.4658 40.2148 45.588 40.45C45.7103 40.6852 45.588 40.9792 45.3436 41.0968C42.96 42.0964 40.5153 42.9196 38.0095 43.5664C37.9484 43.5664 37.9484 43.5664 37.8873 43.5664H37.8262C37.3373 43.684 36.8483 43.8016 36.2983 43.9192C36.2983 44.0956 36.176 44.2132 36.0538 44.272C34.7704 44.9777 33.548 46.3889 33.4869 47.8001C33.548 47.8589 33.548 47.9177 33.548 48.0353C33.548 48.0941 33.548 48.1529 33.4869 48.2117C33.4869 48.2705 33.4869 48.3881 33.548 48.4469C33.7314 49.0937 34.2203 49.623 34.9537 49.8582C35.626 50.0934 36.3594 50.0346 36.9095 49.623C37.3984 49.2702 37.4595 48.9762 37.5817 48.5057C37.6428 48.2117 37.704 47.9177 37.8873 47.5649C38.3151 46.5653 39.1708 46.4477 39.9042 46.3301L40.2098 46.2713C43.0211 45.8009 45.038 45.0365 46.5659 43.8016C46.6881 43.684 46.8715 43.684 46.9937 43.684C46.9937 42.1552 46.9937 40.6264 46.8715 39.1563C46.6881 36.9807 45.9547 35.5695 44.7324 34.9226C44.4879 34.805 44.4268 34.511 44.549 34.2758C44.6713 34.0406 44.9769 33.9818 45.2213 34.0994C46.7493 34.9226 47.6049 36.5691 47.8493 39.0387C48.0327 40.744 48.0327 42.4492 48.0327 44.0956C48.0327 44.8601 48.0327 45.6245 48.0327 46.3889V46.8005C48.0327 48.3881 48.0938 50.211 49.255 51.2694C50.4774 52.3866 52.4331 51.8574 53.4721 50.799C55.1834 49.0938 55.3667 46.1537 54.0833 41.7436C53.7777 40.8028 53.4721 39.9208 53.1054 39.0975C51.8219 36.2163 49.8662 33.629 47.4215 31.6298C47.2382 31.4534 47.1771 31.1594 47.3604 30.983C47.5438 30.8065 47.8493 30.7477 48.0327 30.9242C50.4163 32.8646 52.372 35.3931 53.7777 38.2155C56.589 36.5691 57.628 33.1586 58.3614 30.1009C59.4615 25.5144 59.156 21.5159 57.3224 17.5763ZM42.2877 36.7455C41.7377 37.2159 41.0043 37.4511 40.332 37.4511C40.0875 37.4511 39.8431 37.3923 39.6597 37.3335C39.0485 37.1571 38.6207 36.6279 38.4374 35.9811C38.3763 35.7459 38.5596 35.4519 38.8041 35.4519C39.0485 35.4519 39.3541 35.5695 39.3541 35.8047C39.4152 36.1575 39.5986 36.3339 39.9042 36.4515C40.3931 36.6279 41.1265 36.3927 41.5543 36.0399C41.7377 35.8635 42.0433 35.8635 42.2266 36.0987C42.4711 36.2751 42.4711 36.5691 42.2877 36.7455Z" fill="#63736C"/>
<path d="M20.53 37.2738V37.1562C20.53 37.1562 20.53 37.1562 20.53 37.0974C20.6522 36.6858 20.7134 36.3918 20.7745 36.2154C20.5911 36.2154 20.3467 36.1566 20.1022 36.0978C19.491 35.9801 18.8799 35.8625 18.2076 35.6861C17.902 35.6273 17.6575 35.5685 17.4742 35.5685C17.2908 35.5685 17.1686 35.6273 17.1075 35.6861C17.0464 35.7449 17.0464 35.8625 17.0464 35.9802C17.0464 36.1566 17.1075 36.5094 17.4131 37.0974C17.6575 37.6266 18.0242 38.097 18.3909 38.5674C18.5132 38.685 18.6354 38.8614 18.7576 38.979C18.8799 38.979 19.0021 38.979 19.1243 39.0966C19.1243 39.0966 19.1243 39.0966 19.1854 39.0966C19.3077 39.0966 19.3688 39.0378 19.491 38.979C19.7355 38.7438 20.1022 38.1558 20.4078 37.215C20.4689 37.3326 20.53 37.3326 20.53 37.2738Z" fill="#63736C"/>
</svg>
