<svg width="59" height="96" viewBox="0 0 59 96" fill="none" xmlns="http://www.w3.org/2000/svg">
<path d="M46.9 15.0349C48 15.9079 49.6 16.2959 51 15.9079C51.2 15.7139 51.4 15.6169 51.5 15.4229C54.4 12.9979 56.1 10.8639 57.2 8.53588C57.7 7.46888 58.5 5.33488 58.4 3.58888C58.2 3.68588 58.1 3.68588 57.9 3.68588C57.6 3.68588 57.3 3.78288 57 3.78288C56.6 3.78288 56.1 3.78288 55.8 3.68588C54.7 3.58888 53.1 3.29788 52.7 3.10388C52.6 3.10388 52.6 3.00688 52.6 3.00688C52.3 3.29788 52 3.58888 51.7 3.87988C50.9 4.65588 50.2 5.33488 49.5 5.81988C46.4 7.75988 42.8 9.21488 39 9.89388C38 10.0879 36.9 10.0879 35.6 10.0879C33.6 10.0879 31.5 10.0879 30.3 10.9609C28.5 12.3189 28.4 15.5199 28.4 17.6539V17.8479C28.4 17.9449 28.5 18.0419 28.5 18.1389C28.3 19.5939 28.1 21.1459 27.9 22.6979C27.3 27.4509 26.8 32.3009 25.1 36.7629C24.8 37.5389 24.4 38.4119 23.9 39.3819C22.5 42.1949 20.9 45.3959 22.6 47.5299C23.8 49.1789 25.4 48.7909 26.3 48.4029C26.9 48.1119 27.5 47.7239 28 47.1419C29.8 45.2019 30.4 42.4859 30.8 39.7699C31.8 33.3679 31.8 26.5779 31 19.5939C31 19.3029 31.2 18.9149 31.6 18.9149C31.9 18.9149 32.2 19.1089 32.3 19.4969C33 26.5779 33 33.4649 32 39.9639C31.6 42.8739 30.9 45.7839 28.9 47.9179C28.4 48.4029 27.9 48.8879 27.3 49.1789C27.3 59.1699 27.1 68.9669 24 78.3759C21.2 87.1059 15.8 91.4709 9.30004 90.3069C6.30004 89.7249 4.50004 87.9789 3.60004 84.7779C3.40004 84.1959 3.40004 83.6139 3.30004 83.0319C3.20004 82.2559 3.10004 81.3829 2.80004 80.8009C2.70004 80.6069 2.60004 80.6069 2.60004 80.6069C2.60004 80.6069 2.30004 80.7039 1.80004 81.5769C-0.199962 84.6809 1.20004 88.9489 3.60004 91.1799C5.60004 93.0229 8.60004 93.9929 11.8 93.8959C13.1 93.8959 14.4 93.6049 15.7 93.3139C17.7 92.8289 19.9 92.3439 22.2 93.0229C25.8 93.8959 29.4 94.7689 33 94.5749C33.1 94.2839 33.4 94.0899 33.8 94.0899C34.2 94.1869 34.6 94.2839 35 94.3809H35.1C35.3 94.3809 35.4 94.3809 35.6 94.4779C39.6 95.3509 46.9 96.3209 53.3 94.2839C54.5 93.8959 55.3 93.3139 55.4 92.7319C55.5 92.1499 54.9 91.6649 54.4 91.2769C52.6 90.0159 49.8 89.8219 47.4 90.7919C47.2 90.8889 46.9 90.7919 46.7 90.6949C46.5 90.5009 46.5 90.2099 46.6 90.0159C47.5 88.0759 47.3 85.4569 45.9 82.8379C45.3 81.7709 44.6 80.8009 43.8 79.9279C40.7 76.7269 35.7 76.9209 32.4 78.0849C32.1 78.1819 31.7 77.9879 31.6 77.6969C31.5 77.4059 31.7 77.0179 32 76.9209C35.7 75.6599 41.2 75.4659 44.7 79.0549C45.2 79.5399 45.6 80.1219 46 80.7039C46.9 74.3019 47 67.7059 47 61.2069V60.9159C47 55.6779 47 50.0519 46.8 44.4259C46.8 43.0679 46.7 41.7099 46.6 40.2549C45.8 41.2249 45 42.4859 44.4 43.6499C44.3 43.8439 44.1 44.0379 43.8 44.0379C43.7 44.0379 43.6 44.0379 43.5 43.9409C43.2 43.8439 43 43.4559 43.2 43.1649C43.6 42.3889 44.6 40.3519 46.3 38.6059C47.8 37.1509 49.2 36.2779 50.7 36.1809C51.8 36.0839 52.5 36.6659 53.2 37.1509C53.6 37.4419 54 37.7329 54.4 37.8299C55 37.9269 55.5 37.8299 55.9 37.4419C56.3 37.0539 56.7 36.5689 56.8 35.9869C56.9 35.3079 56.7 34.6289 56.3 34.0469C55.4 32.8829 53.5 32.1069 52 32.0099C50.4 31.8159 48.6 32.1069 46.9 32.7859C45.4 33.3679 44 34.2409 42.8 35.4049C42.6 35.5989 42.2 35.5989 41.9 35.4049C41.7 35.2109 41.7 34.8229 41.9 34.5319C43.1 33.4649 44.4 32.5919 45.9 31.9129C45.8 30.8459 45.7 29.6819 45.7 28.5179C45.6 27.7419 45.6 26.9659 45.5 26.1899C45.5 25.8019 45.4 25.4139 45.4 24.9289C45.2 23.7649 45.1 22.4069 45.3 21.2429C45.7 19.5939 47.2 18.3329 48.7 17.2659C47.6 17.1689 46.5 16.6839 45.7 16.0049C45.4 15.8109 45.4 15.4229 45.6 15.1319C46.3 14.8409 46.7 14.7439 46.9 15.0349ZM37.8 15.3259C37.1 15.1319 36.4 15.0349 36.1 14.2589C35.8 13.3859 36.4 12.3189 37.2 12.1249C39.9 11.4459 40.8 15.6169 37.8 15.3259Z" fill="#63736C"/>
<path d="M57.8 2.52188C58 2.52188 58.1 2.42488 58.2 2.42488C58.2 2.32788 58.2 2.23088 58.2 2.13388V2.03688C57.9 1.45488 57.5 1.06688 56.8 0.775879C56.4 0.775879 56 0.775879 55.6 0.969879C55.1 1.16388 54.5 1.55188 53.7 2.13388C54.1 2.23088 55 2.42488 56 2.52188C56.7 2.52188 57.3 2.61888 57.8 2.52188Z" fill="#63736C"/>
</svg>
