<svg width="16" height="16" viewBox="0 0 16 16" fill="none" xmlns="http://www.w3.org/2000/svg">
<path d="M14.3234 0H1.67662C0.7504 0 0 0.7504 0 1.67662V14.3232C0 15.2496 0.7504 16 1.67662 16H14.3232C15.2496 16 16 15.2496 16 14.3234V1.67662C16 0.7504 15.2496 0 14.3234 0ZM11.8921 6.46791L7.52836 10.8315C7.51164 10.8482 7.49476 10.8651 7.47378 10.8818C7.46116 10.8985 7.44871 10.9068 7.43609 10.9195C7.37316 10.9781 7.3104 11.0201 7.25173 11.062C7.24764 11.0663 7.24338 11.062 7.24338 11.0704C7.18471 11.1081 7.12178 11.1374 7.06311 11.1543C7.00444 11.1794 6.94578 11.192 6.88711 11.1963C6.86204 11.2005 6.82844 11.2005 6.79911 11.2005C6.63556 11.1922 6.48053 11.1419 6.34222 11.037C6.3296 11.0286 6.31289 11.0203 6.30453 11.0076C6.26258 10.9867 6.23324 10.9573 6.19982 10.9239C6.18311 10.9156 6.16622 10.8988 6.15378 10.882L4.10791 8.84036C3.85227 8.58044 3.7264 8.33742 3.73493 8.11093C3.74329 7.88036 3.84391 7.67502 4.0368 7.48213C4.22969 7.28924 4.44338 7.18453 4.67396 7.17191C4.90027 7.16356 5.14347 7.28924 5.40338 7.54916L6.816 8.96178L10.6011 5.17689C10.8567 4.91698 11.0999 4.79538 11.3305 4.80373C11.5568 4.808 11.7664 4.91271 11.9593 5.1056C12.1522 5.29849 12.2528 5.50791 12.2652 5.7344C12.2736 5.96907 12.152 6.21227 11.8921 6.46791Z" fill="#168039"/>
</svg>
