<svg width="76" height="84" viewBox="0 0 76 84" fill="none" xmlns="http://www.w3.org/2000/svg">
<path d="M35.9328 14.2839C34.6261 14.0218 33.3195 14.9392 32.9275 16.2496C30.8369 26.6022 28.3542 27.1264 28.2236 27.1264C27.7009 27.2574 27.0476 26.7332 26.3943 26.078V31.975C26.9169 32.1061 27.5703 32.2371 28.0929 32.2371C34.1035 32.2371 36.5861 23.3261 37.7621 17.298C38.1541 15.8565 37.2394 14.546 35.9328 14.2839Z" fill="#ED9451"/>
<path d="M25.7409 62.5086C23.389 63.4259 20.9064 63.9501 18.4237 64.2122L22.4743 76.3994H20.9064L21.6903 78.6271C22.3437 80.4618 21.821 82.5585 20.253 84H27.8316C30.4449 84 32.1435 81.5101 31.3595 79.0203L25.7409 62.5086Z" fill="#ED9451"/>
<path d="M20.3837 78.8892L15.5491 64.3432C12.8051 64.3432 9.93052 63.819 7.18656 62.9017L11.6292 76.2683H3.78928C1.69864 76.2683 0 77.9719 0 80.0686C0.130665 82.1654 1.69864 83.869 3.78928 83.869H16.7251C19.469 83.869 21.1677 81.2481 20.3837 78.8892Z" fill="#ED9451"/>
<path d="M15.8104 16.1186C20.253 16.1186 23.781 12.5803 23.781 8.12481C23.781 3.66927 20.253 0 15.8104 0C11.3678 0 7.83988 3.53822 7.83988 7.99376C7.83988 12.4493 11.3678 16.1186 15.8104 16.1186Z" fill="#ED9451"/>
<path d="M2.87462 59.4945C11.1065 63.9501 20.3837 63.9501 28.6156 59.4945C29.3996 59.1014 29.6609 58.3151 29.5302 57.3978L27.5703 46.7832C15.2878 45.2106 9.53852 36.4306 10.9758 27.2574C11.3678 25.1607 13.1971 23.8502 15.2878 24.2434C17.3784 24.6365 18.6851 26.4711 18.2931 28.5679C17.5091 33.0234 19.9917 37.3479 25.8716 38.9204C25.0876 35.1201 25.2183 35.5133 25.2183 34.9891V21.7535C25.2183 21.0983 24.8263 20.312 24.173 20.0499C18.5544 17.298 12.9358 17.298 7.31722 20.0499C6.6639 20.312 6.27191 21.0983 6.27191 21.7535V34.9891C6.27191 35.1201 6.27191 35.2512 6.27191 35.3822L1.95997 57.3978C1.82931 58.1841 2.2213 59.1014 2.87462 59.4945Z" fill="#ED9451"/>
<path d="M33.7115 40.8861C26.9169 41.1482 22.0823 39.7067 19.469 36.5616C16.4638 33.1544 17.1171 28.4368 17.1171 28.3058C17.3784 26.9953 16.4638 25.6849 15.0264 25.4228C13.7198 25.1607 12.4131 26.078 12.1518 27.5195C10.5838 36.6927 16.9864 46.39 33.8422 45.8658C35.2795 45.8658 36.3248 44.6864 36.1941 43.2449C36.3248 41.9345 35.1488 40.7551 33.7115 40.8861Z" fill="#ED9451"/>
<path d="M75.2629 75.351C75.2629 75.351 73.9562 73.7785 74.6096 72.468C74.6096 72.468 75.7855 72.0749 75.6549 69.8471C75.6549 69.8471 76.3082 64.6053 73.3029 61.9844C71.9963 60.0187 77.7455 69.1919 61.2817 42.5897C61.2817 42.5897 63.5031 34.9891 60.7591 31.0577C60.7591 31.0577 60.2364 17.5601 56.9698 27.6505C56.9698 27.6505 56.0552 26.8643 54.8792 24.2434C54.8792 24.2434 54.0952 25.947 55.1405 27.6505H53.3112C53.3112 27.6505 51.7432 28.0437 50.5672 29.6162C50.5672 29.6162 49.9139 30.7956 44.6873 31.0577C44.6873 31.0577 42.7274 31.4509 43.9033 33.0234C43.9033 33.0234 44.426 35.2512 48.8686 34.858C48.8686 34.858 45.4713 35.1201 44.6873 38.2652C44.6873 38.2652 45.3407 38.3963 45.7327 37.8721C45.7327 37.8721 46.6473 39.7067 51.8739 38.6584C51.8739 38.6584 51.7432 41.4103 50.0446 43.507C50.0446 43.507 46.2553 47.8315 47.0393 50.0593C47.0393 50.0593 48.9993 55.3011 48.9993 58.5772C48.9993 58.5772 48.8686 65.6537 47.562 68.2746C47.562 68.2746 48.3459 72.468 44.2953 74.9579L42.858 75.0889C42.858 75.0889 40.2447 77.4477 41.682 77.4477C41.682 77.4477 43.642 78.6272 46.386 77.7098C46.386 77.7098 44.5567 79.9376 45.7327 80.0686C45.7327 80.0686 50.0446 80.986 51.3512 78.7582L52.9192 75.22C52.9192 75.22 65.463 75.351 66.1163 73.9095C66.1163 73.9095 69.2523 75.22 71.4736 74.0406C71.4736 74.0406 72.3883 75.22 71.9963 76.9236C71.9963 76.9236 71.9963 78.6272 75.0015 78.4961C74.6096 78.4961 77.2228 78.3651 75.2629 75.351ZM56.3165 65.7847L59.8444 69.7161L54.7485 69.585L56.3165 65.7847ZM49.2606 74.4337C48.4766 75.7442 46.778 76.9236 46.778 76.9236C47.0393 75.22 50.0446 71.2886 50.0446 71.2886C50.5672 71.9438 49.2606 74.4337 49.2606 74.4337ZM53.1805 63.0328L50.5672 69.454C50.8286 68.5367 52.9192 60.6739 53.0499 60.6739C54.2259 60.0187 53.1805 63.0328 53.1805 63.0328ZM53.8339 72.2059L54.6179 70.7644L60.6284 71.5507C61.2817 72.8612 53.8339 72.2059 53.8339 72.2059Z" fill="#ED9451"/>
</svg>
