<svg width="50" height="55" viewBox="0 0 50 55" fill="none" xmlns="http://www.w3.org/2000/svg">
<path d="M23.64 9.35257C22.7804 9.18097 21.9207 9.78159 21.6628 10.6396C20.2874 17.4181 18.6541 17.7613 18.5681 17.7613C18.2243 17.8471 17.7945 17.5039 17.3647 17.0749V20.936C17.7085 21.0218 18.1383 21.1076 18.4822 21.1076C22.4365 21.1076 24.0698 15.273 24.8435 11.3261C25.1014 10.3822 24.4996 9.52418 23.64 9.35257Z" fill="#ED9451"/>
<path d="M16.9348 40.9282C15.3875 41.5289 13.7542 41.8721 12.1209 42.0437L14.7857 50.0234H13.7542L14.27 51.4821C14.6998 52.6833 14.3559 54.0562 13.3244 55H18.3103C20.0295 55 21.1471 53.3697 20.6313 51.7395L16.9348 40.9282Z" fill="#ED9451"/>
<path d="M13.4103 51.6537L10.2297 42.1295C8.42444 42.1295 6.53324 41.7863 4.728 41.1856L7.65076 49.9376H2.49295C1.11753 49.9376 0 51.053 0 52.4259C0.0859636 53.7988 1.11753 54.9142 2.49295 54.9142H11.0033C12.8086 54.9142 13.9261 53.1981 13.4103 51.6537Z" fill="#ED9451"/>
<path d="M10.4016 10.5538C13.3244 10.5538 15.6454 8.23713 15.6454 5.31981C15.6454 2.4025 13.3244 0 10.4016 0C7.47884 0 5.15782 2.31669 5.15782 5.23401C5.15782 8.15133 7.47884 10.5538 10.4016 10.5538Z" fill="#ED9451"/>
<path d="M1.8912 38.9548C7.30691 41.8721 13.4103 41.8721 18.826 38.9548C19.3418 38.6974 19.5137 38.1825 19.4278 37.5819L18.1383 30.6318C10.0577 29.6022 6.27535 23.8534 7.22094 17.8471C7.47884 16.4743 8.68233 15.6162 10.0577 15.8736C11.4332 16.131 12.2928 17.3323 12.0349 18.7051C11.5191 21.6225 13.1524 24.454 17.0208 25.4836C16.505 22.9953 16.591 23.2527 16.591 22.9095V14.2434C16.591 13.8144 16.3331 13.2995 15.9033 13.1279C12.2068 11.3261 8.5104 11.3261 4.81396 13.1279C4.38414 13.2995 4.12625 13.8144 4.12625 14.2434V22.9095C4.12625 22.9953 4.12625 23.0811 4.12625 23.1669L1.28945 37.5819C1.20349 38.0967 1.46138 38.6974 1.8912 38.9548Z" fill="#ED9451"/>
<path d="M22.1786 26.7707C17.7085 26.9423 14.5279 25.9984 12.8086 23.9392C10.8314 21.7083 11.2612 18.6193 11.2612 18.5335C11.4332 17.6755 10.8314 16.8175 9.88582 16.6459C9.02618 16.4743 8.16654 17.0749 7.99462 18.0187C6.96305 24.025 11.1753 30.3744 22.2646 30.0312C23.2102 30.0312 23.8979 29.259 23.8119 28.3151C23.8979 27.4571 23.1242 26.6849 22.1786 26.7707Z" fill="#ED9451"/>
<path d="M49.5151 49.337C49.5151 49.337 48.6554 48.3073 49.0852 47.4493C49.0852 47.4493 49.8589 47.1919 49.7729 45.7332C49.7729 45.7332 50.2028 42.3011 48.2256 40.585C47.366 39.298 51.1484 45.3042 40.3169 27.8861C40.3169 27.8861 41.7783 22.9095 39.9731 20.3354C39.9731 20.3354 39.6292 11.4977 37.4801 18.1045C37.4801 18.1045 36.8784 17.5897 36.1047 15.8736C36.1047 15.8736 35.5889 16.9891 36.2767 18.1045H35.0732C35.0732 18.1045 34.0416 18.3619 33.2679 19.3916C33.2679 19.3916 32.8381 20.1638 29.3996 20.3354C29.3996 20.3354 28.1101 20.5928 28.8838 21.6225C28.8838 21.6225 29.2276 23.0811 32.1504 22.8237C32.1504 22.8237 29.9153 22.9953 29.3996 25.0546C29.3996 25.0546 29.8294 25.1404 30.0873 24.7972C30.0873 24.7972 30.689 25.9984 34.1276 25.312C34.1276 25.312 34.0416 27.1139 32.9241 28.4867C32.9241 28.4867 30.4311 31.3183 30.9469 32.7769C30.9469 32.7769 32.2364 36.209 32.2364 38.3541C32.2364 38.3541 32.1504 42.9875 31.2908 44.7036C31.2908 44.7036 31.8065 47.4493 29.1417 49.0796L28.1961 49.1654C28.1961 49.1654 26.4768 50.7098 27.4224 50.7098C27.4224 50.7098 28.7119 51.4821 30.5171 50.8814C30.5171 50.8814 29.3136 52.3401 30.0873 52.4259C30.0873 52.4259 32.9241 53.0265 33.7837 51.5679L34.8153 49.2512C34.8153 49.2512 43.0678 49.337 43.4976 48.3931C43.4976 48.3931 45.5607 49.2512 47.0221 48.4789C47.0221 48.4789 47.6239 49.2512 47.366 50.3666C47.366 50.3666 47.366 51.4821 49.3431 51.3963C49.0852 51.3963 50.8045 51.3105 49.5151 49.337ZM37.0503 43.0733L39.3713 45.6474L36.0188 45.5616L37.0503 43.0733ZM32.4083 48.7364C31.8925 49.5944 30.775 50.3666 30.775 50.3666C30.9469 49.2512 32.9241 46.6771 32.9241 46.6771C33.2679 47.1061 32.4083 48.7364 32.4083 48.7364ZM34.9872 41.2715L33.2679 45.4758C33.4399 44.8752 34.8153 39.727 34.9012 39.727C35.6749 39.298 34.9872 41.2715 34.9872 41.2715ZM35.417 47.2777L35.9328 46.3339L39.8871 46.8487C40.3169 47.7067 35.417 47.2777 35.417 47.2777Z" fill="#ED9451"/>
</svg>
