<svg width="51" height="47" viewBox="0 0 51 47" fill="none" xmlns="http://www.w3.org/2000/svg">
<path d="M10.833 38.9831C11.1487 39.4566 11.6221 39.4566 11.8589 39.3777C11.9378 38.9042 12.0956 38.4307 12.3324 38.0362C12.7269 37.1681 14.9365 32.0388 16.9882 30.3027C17.0671 29.8292 17.225 29.3557 17.4617 28.9612C17.3828 28.6455 17.3828 28.251 17.6195 27.9353L19.1189 24.1475C19.1978 23.5951 19.4345 22.8849 19.9869 22.1747C19.5923 20.5175 20.2236 19.8862 20.2236 19.8862C20.6182 19.8862 21.5652 19.176 21.5652 19.176C22.1965 19.176 22.7489 18.4658 22.7489 18.4658C23.3013 17.9134 22.591 17.5188 22.591 17.5188C22.2754 16.8875 22.1176 17.4399 22.1176 17.4399H21.4073C22.0386 17.2821 22.67 16.0194 22.67 16.0194C22.9856 15.4671 22.4332 14.5201 22.4332 14.5201C21.9597 14.2045 20.5393 15.0725 20.5393 15.0725C19.5134 15.6249 18.7243 14.9936 18.7243 14.9936C15.0943 15.3881 14.8576 18.229 14.8576 18.229L13.2793 22.1747C12.9637 22.6481 13.4371 22.9638 13.4371 22.9638C12.9637 23.1216 12.648 24.621 12.648 24.621C10.5174 26.0414 7.91323 32.2755 7.91323 32.2755C7.04519 33.4592 7.59758 35.6688 7.59758 35.6688C6.96627 36.0633 5.54584 35.7477 5.54584 35.7477C1.75802 34.7218 0.25867 35.5899 0.25867 35.5899C-1.16176 36.379 3.73084 36.6157 3.73084 36.6157L8.14997 37.247C5.78258 39.1409 10.833 38.9831 10.833 38.9831Z" fill="#ED9451"/>
<path d="M50.6841 40.3247C50.4473 39.062 49.2636 38.194 48.001 38.5097L46.2649 38.8253L46.186 31.4075C45.2391 33.0647 43.5819 34.0905 41.6091 34.1694L41.7669 41.6662C41.7669 42.3764 42.0825 43.0077 42.6349 43.4023C43.1084 43.7968 43.7397 44.0336 44.5288 43.8757L48.948 43.0077C50.0527 42.771 50.8419 41.5873 50.6841 40.3247Z" fill="#ED9451"/>
<path d="M27.5625 23.6738C27.2468 23.0425 27.089 23.5949 27.089 23.5949H26.3788C27.0101 23.437 27.6414 22.1744 27.6414 22.1744C27.8781 21.622 27.4047 20.6751 27.4047 20.6751C26.9312 20.3594 25.5108 21.2275 25.5108 21.2275C24.4849 21.7799 23.6958 21.1486 23.6958 21.1486C20.0658 21.5431 19.829 24.384 19.829 24.384L18.2508 28.3296C17.9351 28.8031 18.4086 29.1188 18.4086 29.1188C17.9351 29.2766 17.6195 30.697 17.6195 30.697C15.4888 32.1175 12.8847 38.3516 12.8847 38.3516C12.0166 39.5353 12.569 41.7448 12.569 41.7448C11.9377 42.1394 10.5173 41.8238 10.5173 41.8238C6.72948 40.7979 5.23013 41.6659 5.23013 41.6659C3.8097 42.4551 8.62339 42.6918 8.62339 42.6918L13.0425 43.3231C10.5962 45.2959 15.5677 45.1381 15.5677 45.1381C16.0412 45.7694 16.7514 45.5327 16.7514 45.5327C18.3297 45.6116 17.146 44.1122 17.146 44.1122C18.4086 44.1122 18.6453 43.0075 18.6453 43.0075L20.2236 43.402C20.1447 43.7966 20.3814 44.349 20.3814 44.349C20.776 44.349 20.776 45.8483 20.776 45.8483C21.0916 47.3477 22.9855 46.9531 22.9855 46.9531C24.1692 47.1898 22.8277 45.5327 22.8277 45.5327C21.8808 45.217 21.8808 42.7707 21.8808 42.7707L21.7229 39.0618C22.0386 39.1407 23.1434 38.1149 23.1434 38.1149L23.8536 41.7448C23.459 42.0605 24.0903 42.6129 24.0903 42.6129C24.0903 43.0075 24.4849 44.5068 24.4849 44.5068C25.5897 45.2959 26.6945 44.5857 26.6945 44.5857C27.6414 44.6646 25.6686 43.402 25.6686 43.402C24.5638 41.9816 25.1162 35.3529 25.1162 35.3529C26.5366 33.1433 24.7216 30.0657 24.7216 30.0657C25.1951 29.829 24.9584 28.8031 24.9584 28.8031C24.3271 26.8303 25.1162 26.0412 25.1162 26.0412C25.5108 26.0412 26.4577 25.331 26.4577 25.331C27.089 25.331 27.6414 24.6207 27.6414 24.6207C28.3516 24.1473 27.5625 23.6738 27.5625 23.6738ZM19.5923 41.9816C19.5923 41.9816 19.7501 41.4292 20.2236 41.1135L20.3814 42.1394C20.3814 42.1394 19.9079 42.2972 19.5923 41.9816Z" fill="#ED9451"/>
<path d="M35.217 33.3012L41.6879 33.3801C41.6879 33.3801 41.6879 33.3801 41.7668 33.3801C43.5029 33.3801 46.107 31.5651 46.107 28.6453V14.2831C46.107 11.679 44.0553 9.62728 41.4512 9.62728C38.847 9.62728 36.7953 11.679 36.7953 14.2831V15.6247C37.979 14.9934 39.0049 14.1253 39.794 13.1784C40.662 12.2314 42.0825 12.0736 43.1083 12.9416C44.0553 13.8097 44.2131 15.2301 43.3451 16.256C41.7668 18.1499 39.3994 19.807 36.7953 20.754V28.7242L32.534 28.5664C31.8238 28.5664 31.1925 28.882 30.719 29.3555C30.2455 29.9079 30.0877 30.5392 30.1666 31.2494L31.7449 42.2183C31.9027 43.4809 33.0864 44.349 34.349 44.1912C35.6116 44.0333 36.4796 42.8496 36.3218 41.587L35.217 33.3012Z" fill="#ED9451"/>
<path d="M41.5302 8.83825C43.9765 8.83825 45.9493 6.86543 45.9493 4.41913C45.9493 1.97282 43.9765 0 41.5302 0C39.0839 0 37.1111 1.97282 37.1111 4.41913C37.1111 6.86543 39.0839 8.83825 41.5302 8.83825Z" fill="#ED9451"/>
<path d="M42.7139 15.625C43.2663 14.9936 43.1874 13.9678 42.5561 13.4154C41.9248 12.863 40.8989 12.9419 40.3465 13.5732C37.8213 16.4141 33.8756 18.2291 30.2456 17.2032C29.3776 16.9665 28.5885 17.4399 28.3517 18.308C28.115 19.0971 28.5885 19.9652 29.4565 20.2019C34.3491 21.6223 39.5574 19.3339 42.7139 15.625Z" fill="#ED9451"/>
<path d="M30.4823 16.5718C32.2973 17.0453 34.1912 16.8085 35.9273 16.0194C35.9273 14.599 35.8484 13.9677 36.0851 13.0207C34.1123 14.0466 31.9028 14.4411 29.6143 13.8887C28.7462 13.652 27.9571 14.1255 27.7204 14.9935C27.4836 15.7827 27.9571 16.5718 28.6673 16.8085C29.2986 16.4929 30.0089 16.414 30.4823 16.5718Z" fill="#ED9451"/>
</svg>
