<svg width="76" height="71" viewBox="0 0 76 71" fill="none" xmlns="http://www.w3.org/2000/svg">
<path d="M16.2375 58.8894C16.7106 59.6046 17.4203 59.6046 17.7752 59.4854C17.8934 58.7702 18.13 58.0549 18.4848 57.4589C19.0763 56.1476 22.3882 48.399 25.4635 45.7764C25.5818 45.0611 25.8183 44.3459 26.1732 43.7498C26.0549 43.273 26.0549 42.677 26.4097 42.2001L28.6571 36.4781C28.7754 35.6436 29.1302 34.5708 29.9582 33.4979C29.3668 30.9945 30.313 30.0408 30.313 30.0408C30.9045 30.0408 32.3238 28.9679 32.3238 28.9679C33.2701 28.9679 34.0981 27.8951 34.0981 27.8951C34.926 27.0606 33.8615 26.4646 33.8615 26.4646C33.3884 25.5109 33.1518 26.3453 33.1518 26.3453H32.0873C33.0335 26.1069 33.9798 24.1996 33.9798 24.1996C34.4529 23.3651 33.6249 21.9346 33.6249 21.9346C32.9152 21.4578 30.7862 22.7691 30.7862 22.7691C29.2485 23.6035 28.0657 22.6499 28.0657 22.6499C22.6247 23.2459 22.2699 27.5374 22.2699 27.5374L19.9042 33.4979C19.4311 34.2131 20.1408 34.69 20.1408 34.69C19.4311 34.9284 18.958 37.1934 18.958 37.1934C15.7644 39.3391 11.8611 48.7566 11.8611 48.7566C10.56 50.5447 11.3879 53.8826 11.3879 53.8826C10.4417 54.4786 8.31261 54.0018 8.31261 54.0018C2.63508 52.4521 0.387719 53.7634 0.387719 53.7634C-1.74136 54.9555 5.59212 55.3131 5.59212 55.3131L12.2159 56.2668C8.66745 59.1278 16.2375 58.8894 16.2375 58.8894Z" fill="#ED9451"/>
<path d="M75.9699 60.9159C75.615 59.0086 73.8408 57.6973 71.9483 58.1741L69.3461 58.651L69.2278 47.4453C67.8084 49.9487 65.3245 51.4984 62.3674 51.6176L62.604 62.9425C62.604 64.0154 63.0771 64.969 63.9051 65.5651C64.6148 66.1611 65.5611 66.5188 66.7439 66.2803L73.3677 64.969C75.0236 64.6114 76.2064 62.8233 75.9699 60.9159Z" fill="#ED9451"/>
<path d="M41.3132 35.7625C40.84 34.8088 40.6035 35.6433 40.6035 35.6433H39.5389C40.4852 35.4049 41.4315 33.4975 41.4315 33.4975C41.7863 32.6631 41.0766 31.2326 41.0766 31.2326C40.3669 30.7557 38.2378 32.067 38.2378 32.067C36.7002 32.9015 35.5174 31.9478 35.5174 31.9478C30.0764 32.5439 29.7215 36.8354 29.7215 36.8354L27.3559 42.7958C26.8828 43.5111 27.5925 43.9879 27.5925 43.9879C26.8828 44.2263 26.4097 46.3721 26.4097 46.3721C23.216 48.5179 19.3127 57.9354 19.3127 57.9354C18.0116 59.7235 18.8396 63.0613 18.8396 63.0613C17.8934 63.6574 15.7643 63.1805 15.7643 63.1805C10.0868 61.6308 7.8394 62.9421 7.8394 62.9421C5.71032 64.1342 12.9255 64.4918 12.9255 64.4918L19.5493 65.4455C15.8826 68.4257 23.3343 68.1873 23.3343 68.1873C24.044 69.141 25.1086 68.7834 25.1086 68.7834C27.4742 68.9026 25.7 66.6376 25.7 66.6376C27.5925 66.6376 27.9473 64.9687 27.9473 64.9687L30.313 65.5647C30.1947 66.1608 30.5495 66.9952 30.5495 66.9952C31.1409 66.9952 31.1409 69.2602 31.1409 69.2602C31.6141 71.5252 34.4528 70.9291 34.4528 70.9291C36.2271 71.2868 34.2163 68.7834 34.2163 68.7834C32.7969 68.3065 32.7969 64.6111 32.7969 64.6111L32.5603 59.0082C33.0334 59.1274 34.6894 57.5777 34.6894 57.5777L35.7539 63.0613C35.1625 63.5382 36.1088 64.3726 36.1088 64.3726C36.1088 64.9687 36.7002 67.2337 36.7002 67.2337C38.3561 68.4257 40.0121 67.3529 40.0121 67.3529C41.4315 67.4721 38.4744 65.5647 38.4744 65.5647C36.8185 63.419 37.6464 53.4054 37.6464 53.4054C39.7755 50.0676 37.055 45.4184 37.055 45.4184C37.7647 45.0608 37.4099 43.5111 37.4099 43.5111C36.4636 40.5309 37.6464 39.3388 37.6464 39.3388C38.2378 39.3388 39.6572 38.2659 39.6572 38.2659C40.6035 38.2659 41.4315 37.193 41.4315 37.193C42.496 36.4778 41.3132 35.7625 41.3132 35.7625ZM29.3667 63.419C29.3667 63.419 29.6033 62.5845 30.313 62.1077L30.5495 63.6574C30.5495 63.6574 29.8398 63.8958 29.3667 63.419Z" fill="#ED9451"/>
<path d="M52.7865 50.306L62.4856 50.4252C62.4856 50.4252 62.4856 50.4252 62.6039 50.4252C65.2061 50.4252 69.1094 47.6834 69.1094 43.2727V21.5767C69.1094 17.6428 66.034 14.5433 62.1307 14.5433C58.2274 14.5433 55.1521 17.6428 55.1521 21.5767V23.6032C56.9263 22.6495 58.464 21.3382 59.6468 19.9077C60.9479 18.4772 63.077 18.2388 64.6147 19.5501C66.034 20.8614 66.2706 23.0072 64.9695 24.5569C62.6039 27.4179 59.0554 29.9213 55.1521 31.3518V43.3919L48.7649 43.1535C47.7004 43.1535 46.7541 43.6303 46.0444 44.3455C45.3347 45.18 45.0982 46.1337 45.2164 47.2066L47.5821 63.7766C47.8186 65.6839 49.5929 66.9952 51.4854 66.7568C53.3779 66.5184 54.679 64.7303 54.4424 62.8229L52.7865 50.306Z" fill="#ED9451"/>
<path d="M62.2493 13.3514C65.916 13.3514 68.873 10.3712 68.873 6.6757C68.873 2.98022 65.916 0 62.2493 0C58.5825 0 55.6255 2.98022 55.6255 6.6757C55.6255 10.3712 58.5825 13.3514 62.2493 13.3514Z" fill="#ED9451"/>
<path d="M64.0235 23.6036C64.8514 22.65 64.7331 21.1003 63.7869 20.2658C62.8406 19.4313 61.303 19.5505 60.475 20.5042C56.69 24.7957 50.7759 27.5375 45.3349 25.9878C44.0338 25.6302 42.851 26.3454 42.4962 27.6567C42.1413 28.8488 42.851 30.1601 44.1521 30.5178C51.4856 32.6635 59.2922 29.2065 64.0235 23.6036Z" fill="#ED9451"/>
<path d="M45.6897 25.034C48.4102 25.7492 51.2489 25.3916 53.8511 24.1995C53.8511 22.0537 53.7328 21.1001 54.0877 19.6696C51.1306 21.2193 47.8188 21.8153 44.3886 20.9809C43.0875 20.6232 41.9047 21.3385 41.5498 22.6498C41.195 23.8419 41.9047 25.034 42.9692 25.3916C43.9154 24.9147 44.98 24.7955 45.6897 25.034Z" fill="#ED9451"/>
</svg>
