<svg width="98" height="46" viewBox="0 0 98 46" fill="none" xmlns="http://www.w3.org/2000/svg">
<path d="M94.1 15.9992C93.6 16.0961 93.2 16.2897 92.7 16.3865C91.9 16.677 91 16.9675 90.2 17.0643C89.2 17.2579 88 17.4516 86.8 17.4516C85.6 17.4516 84.5 17.2579 83.4 16.7738C82.4 16.2897 81.8 15.612 81.3 14.9342C81.1 14.7406 81 14.5469 80.8 14.2565C80 13.3851 79.1 12.8041 77.8 12.5137C77.7 12.5137 77.6 12.4168 77.5 12.4168C76.8 12.2232 76 12.1264 75.2 12.0296C73.3 11.9327 71.4 12.2232 69.6 12.901C69.3 12.9978 69 12.901 68.9 12.6105C68.8 12.6105 68.7 12.5137 68.6 12.4168C66.5 9.60903 63.3 5.63935 58.9 3.6061C56.5 2.44424 53.1 1.76649 51.1 3.31563C50.7 3.60609 50.4 3.99338 50.1 4.38067C49.6 5.05842 49.5 5.83299 49.8 6.51074C50 7.18849 50.6 7.76942 51.4 8.05988C52.5 8.54399 53.8 8.44717 55.1 8.35035C55.7 8.35035 56.4 8.25352 57.1 8.35035C60 8.44717 65.2 9.31856 67.7 13.4819C67.7 13.5787 67.7 13.5787 67.8 13.6755C67.9 13.8692 67.9 14.1596 67.8 14.2565C67 15.031 66.5 16.0961 66.4 17.0643C66.4 17.3547 66.1 17.4516 65.9 17.4516H65.8C65.5 17.4516 65.3 17.1611 65.4 16.8706C65.6 15.7088 66.1 14.6437 66.9 13.7724C64.6 10.0931 59.9 9.41538 57.3 9.22174C56.7 9.22174 56.1 9.22174 55.4 9.22174C54 9.31856 52.6 9.31856 51.2 8.83445C50.1 8.44717 49.3 7.6726 49 6.70438C48.7 5.73617 48.8 4.67113 49.4 3.70292C49.6 3.41245 49.7 3.21881 49.9 3.02517C41.1 1.3792 31.7 3.89656 21.1 10.6741C20.3 11.1582 19.6 11.6423 18.8 12.1264C15.8 14.0628 12.6 16.0961 9.3 17.742C6.4 19.1944 3.1 20.453 0 19.8721C0.6 20.453 1.4 20.7435 2.4 20.9371C5.8 21.5181 10.5 19.9689 12.6 18.1293C12.7 18.0325 12.9 17.9357 13.1 18.0325C13.3 18.1293 13.4 18.2261 13.4 18.4198C13.7 21.4212 15.3 24.5195 17.5 26.456C18 26.9401 18.6 27.2305 19.2 27.6178C19.9 28.0051 20.6 28.4892 21.2 29.0701C22.7 30.5225 22.8 32.1684 23 34.008V34.1049C23.3 36.5254 24.2 36.8159 24.9 36.719C25.5 36.719 25.8 36.4286 26 36.1381C26.3 35.7508 26.4 35.0731 26.2 34.4921C26.1 34.2985 26 34.1049 26 33.9112C25.8 33.4271 25.6 33.0398 25.8 32.1684C25.9 31.7811 26 31.4907 26.1 31.1034C26.3 30.5225 26.5 29.9415 26.5 29.3606C26.6 28.4892 26.5 27.7146 26.4 26.9401C26.3 25.9719 26 25.1005 25.6 24.3259C25.5 24.2291 25.5 24.1322 25.4 23.9386C25.3 23.6481 25.4 23.3577 25.6 23.2609C25.8 23.164 26 23.164 26.1 23.3577C27.4 22.0022 28.9 20.8403 30.5 19.8721C35.4 16.8706 41 16.1929 46.1 18.0325C50.3 19.5816 54.2 22.0022 57 24.0354C60.7 26.5528 63 29.0701 64.2 31.9748C64.3 32.0716 64.4 32.1684 64.4 32.2653V32.3621C64.4 32.4589 64.4 32.6525 64.4 32.7494C64.4 35.654 63.2 38.5586 61 40.5919C60.6 40.8824 60.1 41.2696 59.5 41.5601C57.8 42.6251 56.6 43.3997 57.2 44.4648C57.4 44.9489 57.8 45.2393 58.4 45.433C59.5 45.7234 60.9 45.433 61.7 44.9489C63.9 43.787 65.9 41.3665 67 38.8491C67.1 38.7523 67.1 38.4618 67.2 38.1714C67.3 37.4936 67.5 36.8159 67.8 36.5254C68.2 36.2349 68.8 36.3318 69.3 36.4286C69.5 36.4286 69.6 36.5254 69.7 36.5254C70.4 36.5254 71.1 36.4286 71.8 36.3318C72.9 36.0413 74 35.5572 74.9 34.7826C75.1 34.6858 75.3 34.3953 75.5 34.2017C75.8 33.9112 76.1 33.5239 76.4 33.3303C76.8 32.5557 77 31.9748 77.2 31.297C77.3 31.0066 77.4 30.7161 77.5 30.4256C77.5 30.4256 77.5 30.4256 77.5 30.3288V30.1352C77.9 29.2638 78 28.1987 77.8 27.2305V27.1337C75.4 27.0369 73.6 26.5528 72.4 25.5846C72.2 25.3909 72.1 25.1005 72.3 24.9068C72.5 24.7132 72.8 24.6164 73 24.81C74.1 25.6814 75.8 26.0687 78.2 26.0687C78.5 26.0687 78.9 26.0687 79.2 26.0687C79.2 25.2941 79.4 24.1322 79.8 23.8418C81.3 22.5831 83.2 24.3259 84.1 25.1973L84.4 25.4877C86.2 25.1005 87.9 24.6164 89.6 23.8418C92.8 22.3895 94.9 20.9371 96.2 19.2912C96.4 19.0007 96.6 18.7102 96.7 18.323H96.6C95.8 18.323 94.5 16.9675 94.1 15.9992ZM77.1 19.388C76.8 19.388 76.5 19.1944 76.3 18.9039C75.7 17.9357 76.9 16.9675 77.8 17.6452C78.5 18.2261 78.2 19.6785 77.1 19.388Z" fill="#63736C"/>
<path d="M96.8992 15.8023C96.7992 15.7055 96.7992 15.7055 96.8992 15.8023C96.7992 15.7055 96.6992 15.7055 96.6992 15.7055C96.4992 15.6086 96.2992 15.6086 95.9992 15.6086C95.6992 15.6086 95.3992 15.7055 95.1992 15.7055C95.3992 16.0928 96.0992 16.9641 96.7992 17.4483C97.0992 17.6419 97.2992 17.6419 97.3992 17.6419C97.3992 17.1578 97.4992 16.1896 96.8992 15.8023Z" fill="#E97926"/>
<path d="M83 6.99339C84 6.6061 84.9 6.21882 85.7 5.73471C87 4.96014 88.4 3.50782 88.3 2.15231C88.2 0.990457 86.8 0.215884 85.5 0.0222414C82.9 -0.268223 80.8 2.34596 79.4 4.37921C78 6.50928 76.8 8.833 76 11.1567C76.5 11.2535 76.9 11.2535 77.4 11.3504C78.2 8.92982 80.7 7.86478 83 6.99339Z" fill="#63736C"/>
<path d="M78.5008 31.2968C78.5008 31.3936 78.4008 31.5872 78.4008 31.684C78.2008 32.265 78.1008 32.6523 77.8008 33.2332L77.9008 33.33C78.0008 33.4268 78.1008 33.4268 78.2008 33.5236C78.4008 33.6205 78.5008 33.7173 78.7008 33.8141C80.3008 34.8792 82.4008 36.2346 82.6008 38.2679C82.6008 38.5584 82.6008 39.0425 82.5008 39.5266C82.4008 40.3012 82.2008 41.463 82.6008 41.8503C82.8008 42.0439 83.2008 42.0439 83.5008 41.9471C84.2008 41.8503 84.8008 41.3662 85.2008 40.6884C85.9008 39.3329 85.7008 37.3965 85.2008 36.1378C83.9008 33.8141 81.3008 32.4586 78.5008 31.2968Z" fill="#63736C"/>
<path d="M39.0008 26.8407H38.7008C37.5008 26.7439 37.0008 26.6471 36.4008 25.1948C35.4008 22.7742 33.4008 21.3219 31.0008 21.2251H30.9008C29.4008 22.1933 28.0008 23.3552 26.8008 24.6138C27.0008 25.1948 27.2008 25.8725 27.4008 26.4535C30.1008 25.3884 33.0008 25.6789 34.9008 27.3249C35.1008 27.5185 35.4008 27.7121 35.6008 28.0026C36.2008 28.5835 36.7008 29.1645 37.6008 29.2613C38.5008 29.3581 39.8008 29.0676 40.1008 28.1962C40.3008 27.809 40.3008 27.5185 40.1008 27.3249C40.0008 27.1312 39.5008 26.9376 39.0008 26.8407Z" fill="#63736C"/>
</svg>
