<svg width="24" height="20" viewBox="0 0 24 20" fill="none" xmlns="http://www.w3.org/2000/svg">
<path d="M23.4985 3.12932C23.2225 1.89755 22.4092 0.927448 21.3766 0.598229C19.505 0 12 0 12 0C12 0 4.49503 0 2.62336 0.598229C1.59077 0.9275 0.777523 1.89755 0.501503 3.12932C0 5.36198 0 10.0202 0 10.0202C0 10.0202 0 14.6784 0.501503 16.9111C0.777523 18.1429 1.59077 19.0726 2.62336 19.4018C4.49503 20 12 20 12 20C12 20 19.505 20 21.3766 19.4018C22.4092 19.0726 23.2225 18.1429 23.4985 16.9111C24 14.6784 24 10.0202 24 10.0202C24 10.0202 24 5.36198 23.4985 3.12932ZM9.54544 14.2495V5.79088L15.8181 10.0203L9.54544 14.2495Z" fill="#231E1E"/>
</svg>
